<svg xmlns="http://www.w3.org/2000/svg" width="78" height="79" viewBox="0 0 78 79"><g><g><path fill="#121a24" d="M14.967 54.778c-1.271-.724-1.824-1.62-1.816-3.09.045-8.033.042-16.066.003-24.098-.007-1.428.52-2.322 1.765-3.031a2216.691 2216.691 0 0 0 20.93-12.08c1.205-.704 2.21-.716 3.42-.01a2529.606 2529.606 0 0 0 21.007 12.125c1.178.672 1.694 1.523 1.674 2.89-.06 4.077-.021 8.154-.021 12.23 0 4.106-.023 8.213.015 12.319.01 1.184-.438 1.966-1.46 2.552a3698.909 3698.909 0 0 0-21.24 12.263c-1.168.68-2.165.69-3.344.003a2216.527 2216.527 0 0 0-20.933-12.073zm42.599-24.123c-.228.107-.388.169-.535.254-5.575 3.217-11.144 6.443-16.73 9.64-.475.274-.57.598-.568 1.085.01 6.352.006 12.705.009 19.057 0 .227.029.455.05.778.26-.123.448-.196.62-.295 5.548-3.203 11.09-6.417 16.65-9.6.486-.277.556-.606.555-1.085-.01-6.352-.006-12.705-.008-19.057 0-.23-.025-.458-.043-.777zm-20.378-13.91c-1.88 1.046-3.74 2.13-5.647 3.229.082.138.09.173.11.186 5.752 3.33 11.503 6.66 17.26 9.977.179.103.495.165.652.077 1.948-1.094 3.879-2.22 5.903-3.39-5.905-3.406-11.685-6.746-17.478-10.063-.207-.12-.594-.13-.8-.015zm-10.501 6.048c-2.293 1.294-4.57 2.62-6.885 3.96.054.109.06.148.082.16 5.775 3.349 11.55 6.699 17.337 10.029.182.105.53.094.719-.011 2.317-1.312 4.618-2.652 6.965-4.008-.13-.117-.204-.213-.302-.27-5.703-3.296-11.406-6.593-17.121-9.868-.203-.116-.588-.108-.795.008zm-9.193 8.306c-.002 6.502.006 13.004-.017 19.507-.002.565.287.779.694 1.014 5.5 3.165 10.996 6.339 16.495 9.507.212.122.445.209.755.353 0-6.803.008-13.454-.028-20.105-.001-.283-.347-.662-.632-.83-3.02-1.774-6.06-3.514-9.093-5.265-2.665-1.538-5.33-3.08-8.12-4.691-.031.282-.054.396-.054.51z"/></g><g><path fill="#121a24" d="M71.079 60.727c-.202-1.137-.938-1.907-2.054-1.923-2.846-.043-5.696-.045-8.54.06-1.418.05-2.25 1.492-1.798 2.815.298.873 1.066 1.401 2.174 1.428 1.095.028 2.19.007 3.48.007-.335.369-.515.594-.722.793-9.373 9.01-20.445 12.218-33.074 9.166C15.308 69.39 4.618 55.6 4.504 39.928c-.048-6.603 1.688-12.716 5.102-18.366.764-1.264.466-2.552-.653-3.19-1.1-.625-2.292-.252-3.041.989C.84 27.759-.928 36.82.79 46.464c3.195 17.93 18.32 31.239 36.437 31.986 11.497.474 21.375-3.468 29.544-11.604.245-.243.37-.606.552-.914l.306.261c.192 1.117.359 2.238.584 3.347.239 1.18 1.333 1.936 2.449 1.746a2.173 2.173 0 0 0 1.793-2.502 578.947 578.947 0 0 0-1.377-8.058z"/></g><g><path fill="#121a24" d="M77.22 32.447C71.954 4.367 38.891-8.608 15.95 8.408c-.225.167-.466.314-.82.552 0-1.228.023-2.299-.008-3.368-.037-1.318-.989-2.192-2.267-2.13-1.192.058-2.019.957-2.034 2.3-.026 2.457-.017 4.915-.019 7.373-.003 1.954.647 2.667 2.61 2.932 2.372.322 4.744.657 7.114 1.005 1.492.22 2.597-.486 2.797-1.823.18-1.205-.667-2.203-2.087-2.432-1.026-.166-2.056-.309-3.289-.492.573-.424.964-.737 1.38-1.017 8.413-5.674 17.586-7.462 27.5-5.285 15.09 3.314 26.433 17.173 26.754 32.61.103 4.95-.75 9.71-2.632 14.294-.219.534-.37 1.161-.322 1.725.08.937.9 1.638 1.796 1.742 1.117.13 1.913-.377 2.414-1.585 2.99-7.219 3.823-14.668 2.381-22.362z"/></g><g><path fill="#121a24" d="M22.17 41.172c1.54.916 3.092 1.81 4.656 2.683.38.212.826.306 1.028.378 1.212-.02 2.006-.64 2.277-1.597.26-.915-.08-1.849-.974-2.388a192.701 192.701 0 0 0-4.805-2.782c-1.236-.699-2.494-.417-3.124.662-.64 1.096-.282 2.317.942 3.044z"/></g></g></svg>