<svg xmlns="http://www.w3.org/2000/svg" width="102" height="86" viewBox="0 0 102 86"><g><g><path fill="#121a24" d="M99.436 55.856c1.879.008 2.562.698 2.563 2.594.002 8.25.002 16.5 0 24.75-.001 1.837-.665 2.502-2.53 2.502-32.236.003-64.473-.002-96.71.02-1.195 0-2.046-.374-2.56-1.459v-27.04c.619-1.039 1.519-1.45 2.732-1.384 1.288.071 2.582.016 4.028.016V13.126c0-2.063.603-2.677 2.65-2.677 15.109-.002 30.217 0 45.325-.002h1.368v-6.85c0-3.156.329-3.489 3.45-3.489 3.513 0 7.025-.006 10.537.003 1.847.005 2.489.666 2.494 2.528.003 1.32 0 2.638 0 4.022h5.97c0-1.415-.007-2.797.004-4.179.013-1.643.72-2.363 2.37-2.369C85.003.1 88.88.103 92.756.111c1.828.005 2.483.685 2.483 2.548V55.855c1.442 0 2.82-.004 4.197.001zm-31.208-13.09c-.007-3.048-.002-6.095-.002-9.142v-1.047h-7.877v23.221h30.863V32.611h-7.868c-.012.258-.03.452-.03.647-.001 3.28.012 6.558-.006 9.837-.01 1.744-1.213 2.59-2.861 2.045-.565-.187-1.15-.344-1.677-.61-1.94-.979-3.858-1.143-5.817-.047-.456.254-.99.37-1.488.547-2.062.728-3.233-.086-3.237-2.264zm4.019-2.124c2.367-1.493 4.69-1.462 7.03-.037v-7.977h-7.03zm-11.913-12.15h30.854V4.157H82.73c0 1.421.005 2.772-.002 4.123-.008 1.73-.69 2.42-2.396 2.422-2.947.005-5.895.002-8.842.001-2.044 0-2.681-.63-2.684-2.652-.002-1.309 0-2.617 0-3.884h-8.473zm10.919 31.414H30.948v7.013h40.305zM27.38 26.631c1.686-.577 3.294-1.067 4.853-1.683.998-.395 1.894-.352 2.875.022 1.565.596 3.165 1.1 4.81 1.664V14.505H27.382zM10.99 55.796h45.227V14.474H43.924v1.11c-.001 4.473.007 8.945-.004 13.418-.005 1.993-1.19 2.823-3.08 2.176-2.128-.728-4.241-1.5-6.382-2.185a2.813 2.813 0 0 0-1.603-.008c-2.08.658-4.131 1.406-6.194 2.116-2.222.765-3.327-.01-3.33-2.344-.005-4.373-.002-8.747-.002-13.12v-1.14h-12.34zm86.958 4.106h-22.66c0 2.85.006 5.63 0 8.41-.005 1.963-.673 2.63-2.626 2.63H29.52c-1.945 0-2.605-.669-2.61-2.646-.005-2.452.002-4.904-.003-7.356-.001-.348-.04-.696-.058-1.034H4.258v21.798h93.69z"/></g><g><path fill="#121a24" d="M27.76 46.756a254.446 254.446 0 0 0-8.15-.002c-1.231.02-2.066.887-2.072 1.976-.007 1.13.866 1.952 2.154 1.974 1.325.023 2.65.005 3.975.005 1.326 0 2.65.017 3.976-.005 1.307-.021 2.162-.811 2.168-1.955.005-1.09-.825-1.972-2.051-1.993z"/></g><g><path fill="#121a24" d="M19.681 41.681c.66.03 1.322.005 1.983.005v-.018c.761 0 1.526.055 2.28-.013 1.132-.103 1.924-1.022 1.87-2.06-.053-1.066-.883-1.853-2.042-1.874-1.355-.026-2.711-.02-4.066-.005-1.28.015-2.162.824-2.168 1.953-.006 1.116.873 1.957 2.144 2.012z"/></g></g></svg>