<svg xmlns="http://www.w3.org/2000/svg" width="1077" height="1413" viewBox="0 0 1077 1413"><g><g><path fill="#e2e2e2" d="M369.317 1171.869c3.365 2.939 8.77 6.698 12.015 8.353 3.243 1.648 7.518 2.459 9.493 1.8 5.105-1.696 12.017-8.156 16.365-15.294 4.49-7.373 3.935-18.54-2.08-41.762-4.272-16.495-6.385-20.531-27.124-51.712-5.551-8.346-10.543-16.532-11.093-18.188-.55-1.655-2.853-4.252-5.111-5.775-2.263-1.523-5.6-4.731-7.42-7.127-9.542-12.566-55.117-40.667-65.44-40.35-4.956.156-4.656.816 4.368 9.537 12.942 12.518 18.47 19.044 22.973 27.124 7.083 12.709 11.02 26.62 10.454 36.963-.275 5.104.564 14.548 1.871 20.974 1.305 6.422 1.95 14.373 1.432 17.66-.769 4.87.066 8.402 4.48 18.985 6.557 15.714 12.65 23.923 21.816 29.364 3.79 2.255 9.638 6.502 13 9.448z"/></g><g><path fill="#e2e2e2" d="M974.364 583.331c-6.809.966-8.49 1.925-14.516 8.294-5.484 5.795-6.806 8.482-6.777 13.787.047 9.638 5.524 17.906 14.532 21.95 8.464 3.798 16.914 1.915 22.34-4.982 13.574-17.25 3.787-41.786-15.579-39.049z"/></g><g><path fill="#e2e2e2" d="M338.89 1218.935c13.294 14.048 23.745 43.794 21.798 62.038-.49 4.56-.674 8.927-.422 9.703.718 2.163-7.816 27.045-13.108 38.214-5.13 10.836-17.15 24.92-24.906 29.192l-4.922 2.7 5.477-8.747c3.013-4.812 6.018-8.934 6.684-9.156.666-.222 2.716-6.321 4.552-13.552 3.07-12.05 3.545-33.27.792-34.646-.637-.318-3.62 1.266-6.647 3.516-3.33 2.479-8.43 4.64-12.967 5.484-7.002 1.31-7.313 1.554-4.878 3.864 4.086 3.87 7.572 16.423 6.255 22.522-.881 4.078-3.138 6.854-8.704 10.695-9.282 6.403-13.65 6.81-22.952 2.147l-7.283-3.642.533 4.618c1.043 9.193 1.258 10.082 2.716 11.258.822.658 4.87 1.702 9 2.317 6.099.918 8.4 2.324 12.257 7.512l4.737 6.38-3.65 5.352c-4.04 5.935-9.873 11.138-14.032 12.523-1.495.495-5.581-.208-9.082-1.57-7.92-3.078-10.295-9.088-7.793-19.694 1.672-7.128 1.339-8.816-6.077-31.28-10-30.286-10.976-41.44-5.647-64.665 3.382-14.773 6.572-21.997 11.33-25.661 2.266-1.747 7.61-8.26 11.88-14.477 5.226-7.616 9.74-12.301 13.826-14.36 3.33-1.68 8.838-4.462 12.235-6.18 3.597-1.812 7.216-5.203 8.667-8.096 2.087-4.175 1.99-6.233-.622-12.768-3.005-7.52-3.345-7.801-9.755-7.852-14.581-.126-20.398-5.522-38.332-35.534-6.024-10.088-6.565-12.042-12.264-44.743-.792-4.506-.777-11.146.03-14.751.799-3.604 1.332-11.198 1.177-16.867-.385-14.292-11.732-48.183-21.05-62.883-3.65-5.743-6.395-10.91-6.114-11.471.54-1.067 27.193 20.516 27.874 22.566.577 1.733 12.916 13.308 20.102 18.859 9.563 7.386 16.35 18.814 33.988 57.19 9.932 21.613 13.034 32.345 13.715 47.466 1.043 23.085 1.532 30.027 4.085 58.168 1.029 11.36 1.118 11.568 7.498 18.31zm-45.022 84.65c11.109-.46 10.562-.007 5.773-4.678-3.25-3.167-4.79-6.387-6.114-12.826l-1.783-8.601-3.442 2.805c-8.86 7.23-17.26 28.866-14.47 37.266 1.547 4.649 3.923 3.73 5.47-2.11 1.443-5.454 9.037-11.627 14.566-11.856zm22.145-48.931c1.613-6.091.799-8.29-2.213-5.95-2.961 2.294-7.49 10.058-6.906 11.819 1 3.02 7.95-1.458 9.119-5.87z"/></g><g><path fill="#e2e2e2" d="M991.728 459.68c-5.036 11.354-13.741 17.882-33.816 25.36-14.866 5.542-19.526 6.601-30.624 6.99-13.181.458-23.223-1.345-24.221-4.344-.297-.893.718-3.53 2.259-5.866 1.541-2.334 3.518-7.266 4.39-10.962 1.422-6.002 1.179-7.3-2.332-12.3-2.159-3.07-7.692-7.472-12.298-9.783-4.609-2.305-8.196-4.55-7.976-4.99 1.427-2.857 16.985-15.393 22.407-18.064 7.556-3.715 9.518-1.883 5.117 4.787-7.025 10.643-1.839 25.571 11.306 32.572 7.296 3.885 8.655 4.016 16.095 1.542 4.469-1.486 9.784-4.402 11.817-6.49 8.125-8.339 7.61-25.755-.971-32.549-7.103-5.62-6.005-7.343 4.966-7.823 10.551-.457 11.105-.006 11.782 9.567 1.064 15.191 11.435 22.586 25.237 17.997 6.722-2.236 7.769-3.236 10.304-9.809 3.78-9.783 2.972-15.863-2.963-22.298-4.198-4.554-5.875-5.106-14.326-4.733-5.261.241-13.628-.06-18.598-.66-18.483-2.224-53.016-.286-69.369 3.897-20.674 5.285-31.178 11.462-40.884 24.024-13.709 17.743-16.746 25.658-15.307 39.872.605 6.001-3.899 12.231-14.716 20.367-8.321 6.26-8.94 6.357-20.908 3.384-4.442-1.105-5.029-.828-9.505 4.514-14.537 17.355-39.334 65.883-41.744 81.716-.877 5.773-2.124 10.68-2.77 10.893-.645.214-2.308 4.664-3.687 9.898-1.384 5.225-3.108 9.7-3.836 9.942-.723.241-1.259 1.787-1.192 3.431.067 1.648.024 4.4-.096 6.116-.235 3.378 20.177-22.177 28.772-36.009 2.793-4.502 7.984-11.192 11.53-14.856 3.55-3.67 8.564-9.709 11.148-13.415 2.584-3.704 6.702-8.922 9.15-11.596 7.869-8.588 13.763-20.169 13.685-26.902-.115-10.444 3.186-17.649 10.76-23.493 3.8-2.934 8.157-5.746 9.676-6.252 1.519-.505 9.7 2.882 18.176 7.527 14.471 7.924 16.593 8.533 34.688 9.948 25.752 2.011 33.998 1.021 58.9-7.093 20.005-6.523 21.621-7.32 30.523-15.12 12.819-11.226 33.29-45.079 28.667-47.395-3.266-1.636-15.529 10.145-19.216 18.458z"/></g><g><path fill="#e2e2e2" d="M31.978 1004.828c.042 5.23-.73 15.135-1.714 22.011-2.543 17.749.623 25.55 9.887 24.35 7.473-.965 9.505-2.067 16.11-8.72 20.763-20.903 28.187-46.81 22.719-79.283-3.214-19.115-21.934-81.145-24.254-80.374-.873.291-1.194 1.707-.715 3.15 1.286 3.867 1.409 24.107.204 33.094-.578 4.29-5.026 17.867-9.88 30.16-8.982 22.745-12.494 38.54-12.357 55.612z"/></g><g><path fill="#e2e2e2" d="M434.78 938.51c.812.678 1.751 1.152 2.081 1.043.326-.108.794-1.05 1.04-2.08.245-1.042-.69-1.507-2.079-1.045-1.393.463-1.86 1.394-1.043 2.082z"/></g><g><path fill="#e2e2e2" d="M634.166 1323.066c-8.473 2.817-12.886 8.754-12.87 17.312.024 9.699 9.123 19.2 18.608 19.424 4.894.114 13.524-7.354 16.617-14.375.993-2.265 1.244-7.087.553-10.721-1.128-5.937-1.997-6.98-8.594-10.283-6.208-3.11-8.417-3.318-14.314-1.357z"/></g><g><path fill="#e2e2e2" d="M451.59 926.791c-2.218 3.233-2.197 3.28 1.134 2.227 4.403-1.395 7.834-4.239 7.245-6.01-.727-2.184-5.871.141-8.38 3.783z"/></g><g><path fill="#e2e2e2" d="M35.336 899.66c-2.672-11.982-5.84-26.23-7.03-31.663-1.326-6.04-2.903-10.052-4.065-10.325-1.043-.244-3.567 6.727-5.61 15.49-2.19 9.379-5.892 19.34-9 24.204-3.427 5.358-6.72 11.257-9.637 17.082v78.41c1.325-1.235 3.264-2.664 5.936-4.507 13.863-9.562 16.246-6.253 5.61 7.809-5.78 7.652-8.807 9.244-11.546 5.75v73.882a156.96 156.96 0 0 1 2.147-2.71c8.733-10.77 17.045-27.11 17.578-34.594.29-4.048-.488-6.942-2.739-10.14-6.468-9.192-5.136-16.364 8.357-44.89 3.515-7.423 6.898-16.926 7.52-21.115.63-4.182 2.19-11.236 3.456-15.67 4.322-15.054 4.137-24.076-.977-47.013z"/></g><g><path fill="#e2e2e2" d="M541.208 1143.838c5.988 1.151 11.932-1.623 15.206-7.094 2.565-4.28 2.657-6.87.597-16.178-1.348-6.096-3.63-12.52-5.068-14.286-1.437-1.757-3.903-7.082-5.48-11.829-2.39-7.187-5.132-10.959-16.44-22.596-7.467-7.688-17.267-18.697-21.78-24.46-7.948-10.153-23.794-22.487-34.809-27.085-2.653-1.107-12.299-5.38-21.434-9.495-23.739-10.689-43.536-18.469-45.409-17.846-1.805.6 4.21 5.881 11.463 10.06 8.201 4.727 18.473 13.298 28.234 23.56 14.664 15.41 16.097 17.58 22.21 33.672 8.977 23.63 20.233 49.842 22.686 52.842 5.93 7.245 41.504 29.101 50.024 30.735z"/></g><g><path fill="#e2e2e2" d="M515.347 1273.86c2.576 19.037-2.827 50.057-12.419 71.32-4.678 10.377-17.394 29.762-18.992 28.962-1.147-.577 2.857-20.931 5.891-29.953 1.088-3.228 2.554-9.17 3.264-13.227.703-4.048 1.584-8.63 1.954-10.184 3.11-13.122 2.51-23.011-2.316-38.25-3.775-11.924-5.788-16.246-8.386-18.023-2.968-2.013-3.538-1.94-4.286.563-.466 1.584.296 4.848 1.71 7.23 5.544 9.415 7.513 19.319 5.336 26.78-2.383 8.104-6.098 12.16-15.283 16.682-9.149 4.5-17.853 3.005-24.936-4.278-3.086-3.168-6.128-5.603-6.75-5.396-3.767 1.25-9.614 24.374-6.558 25.906.533.273 2.74-1.333 4.908-3.546 4.581-4.707 13.026-7.875 19.221-7.21 2.391.253 6.87 2.747 9.933 5.537 11.923 10.836 9.821 28.799-4.123 35.165-7.4 3.375-16.875 3.256-23.15-.29-2.214-1.25-4.538-2.101-5.16-1.894-2.006.666-1.925 10.525.126 14.944 1.85 3.98 2.59 4.159 10.376 2.413 10.592-2.384 17.194.414 22.59 9.562 3.05 5.173 3.722 7.623 2.916 10.703-2.19 8.385-15.869 17.134-24.107 15.41-7.66-1.592-11.716-8.801-22.115-39.287-13.36-39.162-16.816-65.244-12.146-91.616 2.916-16.445 22.5-48.42 33.765-55.14 2.495-1.48 5.825-6.713 8.571-13.485l4.493-11.058-6.38-15.513c-3.508-8.526-7.609-18.66-9.11-22.516-1.526-3.915-5.982-10.317-10.104-14.521-4.056-4.13-9.88-11.51-12.945-16.387-7.653-12.205-18.645-42.824-19.399-54.03-.415-6.076-1.466-9.881-3.405-12.257-1.547-1.894-4.16-8.097-5.803-13.781-2.575-8.911-4.204-11.606-11.798-19.54-4.848-5.063-11.827-11.383-15.506-14.055-7.482-5.418-16.934-17.652-14.314-18.518 4.678-1.562 20.428 5.846 32.877 15.439 7.52 5.81 13.841 11.035 14.033 11.612.193.585 3.99 3.205 8.438 5.826 4.448 2.612 10.31 6.284 13.026 8.156 6.077 4.189 31.604 30.93 32.811 34.38.474 1.369 4.056 6.113 7.964 10.539 11.176 12.672 17.534 23.892 23.995 42.314 7.49 21.346 7.416 27.008-.444 32.522-4.863 3.412-6.506 3.753-13.64 2.805-4.464-.585-8.8-.837-9.637-.562-.837.28.06 5.255 1.991 11.057 1.931 5.803 3.612 13.04 3.737 16.098.311 7.379 4.42 13.07 13.308 18.422 15.055 9.06 32.796 40.7 35.978 64.17zm-47.465-13.67c.096-7.038-.363-8.297-2.753-7.49-1.91.644-4.685 10.68-3.745 13.515.266.792 1.813.992 3.45.444 1.923-.636 2.996-2.916 3.048-6.47z"/></g><g><path fill="#e2e2e2" d="M640.948 1369.184c-7.883-1.356-18.002 9.269-17.09 17.944.722 6.836 7.676 13.649 14.858 14.548 3.2.403 6.763.516 7.921.255 3.05-.685 9.923-11.718 11.598-18.608l1.437-5.921-7.599-3.807c-4.177-2.093-9.186-4.076-11.125-4.411z"/></g><g><path fill="#e2e2e2" d="M121.761 99.25c-2.742 4.867-9.249 23.987-8.713 25.6 1.422 4.274 14.572-6.766 20.332-17.062 2.061-3.687 5.014-7.127 6.562-7.642 2.514-.835 5.773-6.01 21.861-34.65 7.791-13.866 10.857-27.013 11.03-47.238.076-9.318-.45-11.773-3.216-14.97-5.186-5.983-10.798-3.039-18.805 9.854-8.47 13.638-13.445 28.272-18.996 55.891-1.949 9.681-6.945 24.71-10.055 30.217z"/></g><g><path fill="#e2e2e2" d="M295.853 104.255c-.725.866-13.758 6.181-28.96 11.81-22.336 8.261-29.585 10.353-37.762 10.884-11.92.774-14.335 1.42-13.596 3.643.302.908 5.171 2.064 10.826 2.571 5.652.514 11.765 1.197 13.577 1.522 1.815.323 7.143.071 11.832-.56 4.694-.635 9.942-.59 11.666.086 2.877 1.135 34.8-2.355 46.13-5.04 16.006-3.798 45.268-17.15 57.346-26.179 6.661-4.974 8.96-8.067 12.175-16.37 3.375-8.7 3.62-11.288 1.626-17.28-2.174-6.538-2.778-7.075-8.39-7.499-7.93-.592-22.716 5.791-39.576 17.084a18351.264 18351.264 0 0 1-24.174 16.155c-6.269 4.182-11.995 8.307-12.72 9.173z"/></g><g><path fill="#e2e2e2" d="M756.468 196.098c7.199.645 10.155-.338 15.769-5.223 9.334-8.137 7.457-24.674-3.42-30.123-10.91-5.465-23.125.447-26.651 12.905-3.39 11.982 2.603 21.394 14.302 22.441z"/></g><g><path fill="#e2e2e2" d="M795.024 337.163c-1.178 5.566-.827 12.02 1.175 21.427 2.503 11.759 2.469 14.282-.26 19.965-1.716 3.572-3.341 8.915-3.612 11.86-.878 9.595-5.383 21.495-9.498 25.116-10.838 9.533-18.43 23.22-22.223 40.063-2.398 10.65-7.51 60.857-6.502 63.885.313.942-.416 3.448-1.617 5.573-2.491 4.406.047 14.471 4.165 16.53l-.005.002c2.03 1.017 3.337-.21 6.285-5.884 2.045-3.947 6.42-11.859 9.72-17.592 10.28-17.84 20.618-39.249 22.958-47.529 3.222-11.414 3.12-31.812-.207-41.432-2.412-6.98-2.357-9.31.425-17.15 3.539-9.99 8.526-13.357 13.208-8.92 3.912 3.705 14.115 4.08 28.676 1.06 15.987-3.318 22.6-7.516 28.646-18.188 2.498-4.415 6.457-10.485 8.79-13.498 9.934-12.805 16.268-29.172 18.127-46.854.622-5.91 2.25-18.923 3.626-28.92 1.375-9.997 1.904-19.96 1.178-22.145-.852-2.562-4.194-5.369-9.402-7.9-7.877-3.833-8.092-3.83-8.746-.046-.367 2.138-1.704 4.226-2.976 4.65-3.242 1.077-5.34 11.687-3.068 15.458 1.044 1.73 5.164 4.525 9.156 6.221l7.266 3.081-1.317 9.751c-.727 5.367-1.165 11.813-.975 14.327.485 6.403-11.095 29.49-18.276 36.454-6.236 6.046-17.678 10.907-22.69 9.648-2.341-.59-2.651-1.313-1.77-4.155.585-1.892 1.497-6.927 2.02-11.187.912-7.359.697-8.117-4.278-15.328-5.152-7.471-14.895-13.35-19.554-11.8-1.116.37-3.21-.06-4.651-.955-2.142-1.336-1.473-4.172 3.645-15.522 6.179-13.69 8.219-16.923 19.155-30.391l5.539-6.812-8.05 1.223c-9.388 1.429-21.191 7.752-26.788 14.356-3.558 4.197-13.592 34.104-17.295 51.559z"/></g><g><path fill="#e2e2e2" d="M844.211 302.95c-7.862 9.406-4.77 21.62 6.11 24.125 10.225 2.356 17.363-2.033 18.87-11.6 1.365-8.668-1.387-14.253-8.382-17.036-7.392-2.942-11.248-1.896-16.598 4.512z"/></g><g><path fill="#e2e2e2" d="M2.82 168.845c2.185 6.566 6.188-1.75 12.444-25.857 2.085-8.04 4.94-15.453 6.346-16.475 1.406-1.023 2.3-3.892 1.996-6.382-.311-2.489-.576-9.203-.59-14.917-.037-15.445-2.283-34.613-4.4-37.526-2.173-2.986-6.552-3.513-9.753-1.176-3.763 2.75-6.318 17.29-5.177 29.473.59 6.346.754 13.66.357 16.26-.4 2.591-.146 8.037.56 12.092 1.44 8.284 1.415 9.112-.955 28.194-.934 7.532-1.305 14.877-.827 16.314z"/></g><g><path fill="#e2e2e2" d="M75.858 132.948c.565 1.699 2.116 1.743 5.667.169 3.546-1.572 5.309-3.81 6.404-8.117.83-3.273 4.444-9.391 8.034-13.586 4.335-5.07 8.833-13.83 13.406-26.11 8.894-23.901 11.973-39.714 9.958-51.138-.877-4.953-1.52-10.226-1.431-11.71.288-4.823-5.698-7.425-12.133-5.285-5.13 1.706-6.471 3.295-10.136 11.95-2.324 5.49-4.381 13.94-4.57 18.773-.187 4.832-1.473 14.24-2.863 20.9-1.385 6.664-3.09 16.205-3.78 21.198-.69 5.006-2.985 14.085-5.098 20.194-3.835 11.063-4.933 18.326-3.458 22.762z"/></g><g><path fill="#e2e2e2" d="M35.119 140.815c.386 1.16.088 5.743-.664 10.19-.75 4.444-.773 8.86-.057 9.813 2.03 2.705 2.87 1.778 7.894-8.693 6.705-13.985 17.058-30.99 20.73-34.032 2.015-1.672 3.383-6.05 3.832-12.236.377-5.3 1.634-12.04 2.792-14.975 7.339-18.695 4.05-44.243-7.11-55.24-6.012-5.924-10.753-5.398-15.451 1.72-3.63 5.509-5.655 30.274-3.605 44.123 1.916 12.94-1.035 38.945-5.598 49.34-1.905 4.336-3.147 8.835-2.763 9.99z"/></g><g><path fill="#e2e2e2" d="M810.953 1196.294c3.234 9.785 6.528 44.593 5.084 53.764-.873 5.543-4.61 11.36-6.646 10.347-.525-.267-4.7 2.709-9.267 6.609-9.459 8.082-14.225 10.096-21.27 8.986-15.034-2.37-21.858-14.596-17.054-30.59.918-3.057-.037-3.923-7.742-7.076-7.823-3.205-9.17-4.45-12.257-11.414-4.448-10.05-3.915-16.66 1.984-24.52 2.59-3.441 4.626-6.498 4.522-6.787-.096-.29-2.524-.903-5.396-1.355-3.382-.525-7.357-3.212-11.242-7.571-3.309-3.724-6.329-6.654-6.706-6.528-1.569.518-2.539 12.908-1.954 24.92.511 10.384 1.991 16.772 7.853 33.81 6.831 19.865 7.831 21.797 18.37 35.512 14.181 18.452 15.67 20.798 13.663 21.464-.903.304-3.893-1.103-6.654-3.115-2.76-2.014-15.395-13.62-28.08-25.78l-23.056-22.115-8-24.226c-14.44-43.786-13.782-74.006 2.36-107.21l5.892-12.123-4.012-13.632c-2.206-7.498-5.64-15.825-7.63-18.504-5.359-7.195-25.743-17.452-31.13-15.655-2.48.823-7.084.26-10.903-1.324-3.635-1.517-8.468-3.057-10.732-3.428-2.273-.37-4.552-1.953-5.07-3.507-.526-1.562-4.019-5.048-7.779-7.75-3.76-2.701-7.195-5.994-7.639-7.32-.962-2.886-9.999-11.99-16.342-16.453l-4.537-3.19 1.206-7.497 1.207-7.505-4.219-.178c-6.062-.26-22.833-17.01-26.008-25.98-2.19-6.224-2.88-6.845-7.365-6.58-2.716.17-7.794-1.013-11.272-2.62-3.494-1.605-10.407-4.047-15.388-5.432-8.438-2.34-16.03-6.994-13.04-7.986.717-.237 6.327.696 12.455 2.087 6.13 1.392 14.848 3.109 19.377 3.82 4.53.703 9.607 2.457 11.28 3.885 2.065 1.769 4.67 2.073 8.12.948 6.498-2.124 17.682 1.043 32.588 9.207 6.417 3.515 16.971 9.2 23.462 12.64 6.484 3.428 11.954 6.707 12.146 7.285.193.577 2.665 1.569 5.5 2.198 14.528 3.24 28.591 13.44 40.803 29.598 11.332 14.988 13.286 25.069 6.403 32.98-2.05 2.362-3.287 5.61-2.746 7.239 2.094 6.306 21.323 22.47 39.997 33.632 21.486 12.834 25.735 16.039 38.983 29.398 9.852 9.94 12.59 14.13 30.494 46.592 4.19 7.595 5.314 10.903 4.93 14.478-.267 2.553.836 8.652 2.457 13.552zm-77.826-41.456c1.724-1.82 1.94-4.285.688-8.03-2.33-7.016-4.752-6.084-5.366 2.058-.733 9.836.06 10.85 4.678 5.972zm10.118-7.638c2.057 2.51 6.713 1.229 5.78-1.591-.377-1.125-2.139-3.071-3.923-4.33-3.02-2.132-3.249-2.08-3.39.792-.08 1.695.607 4.004 1.533 5.129zm61.646 88.699c.488-3.693-1.199-10.732-5.744-23.966-6.838-19.902-14.662-33.788-21.826-38.724l-4.019-2.768-5.403 10.776-5.396 10.784 6.188 2.458c11.694 4.647 17.356 13.38 16.453 25.4-.244 3.295-1.762 6.95-3.368 8.12-4.122 2.99-3.019 4.545 4.523 6.328 3.611.859 8.467 3.22 10.798 5.24 4.99 4.345 6.847 3.472 7.794-3.648z"/></g><g><path fill="#e2e2e2" d="M453.39 540.548c.753.628 3.692.372 6.531-.57 2.839-.946 7.41-.913 10.16.081 2.748.988 7.909 1.53 11.472 1.208 13.192-1.192 18.362-3.746 21.519-10.622 2.448-5.33 2.485-7.666.213-14.499-2.408-7.242-4.441-9.626-18.456-21.642-8.658-7.43-17.869-14.593-20.463-15.912-2.596-1.32-12.844-6.902-22.78-12.389-9.933-5.492-22.352-12.158-27.603-14.804-18.598-9.397-25.962-15.464-48.587-40.03-7.53-8.169-13.504-17.479-19.92-31.018-7.821-16.5-11.439-22.39-13.366-21.734-2.73.93-.149 10.361 15.287 55.772 16.697 49.142 20.967 60.021 25.054 63.901 1.524 1.44 4.983 6.88 7.683 12.084 7.556 14.551 21.501 27.28 43.31 39.506 12.828 7.197 20.357 10.391 23.689 10.037 2.687-.284 5.503.003 6.257.631z"/></g><g><path fill="#e2e2e2" d="M1074.865 824.979c2.087 3.369 1.836 5.13-1.62 11.362-4.967 8.94-9.993 11.036-22.583 9.392-4.936-.643-12.44-1.021-16.675-.843-22.863.976-56.103-6.07-65.429-13.864-2.76-2.301-5.773-3.944-6.69-3.634-.926.304-7.047-2.471-13.619-6.172-10.999-6.203-13.944-8.208-25.26-17.208-9.889-7.87-34.899-45.445-35.49-53.335-.245-3.25-2.347-4.945-11.266-9.104l-10.96-5.114 5.653-1.917c3.11-1.052 6.143-3.16 6.736-4.679.592-1.524 3.974-5.35 7.505-8.489 7.068-6.29 12.552-8.075 33.07-10.762 15.313-2.006 50.595 2.805 58.152 7.935 2.768 1.872 12.027 7.15 20.576 11.723 16.661 8.92 22.62 13.952 25.01 21.123.821 2.48 5.565 9.763 10.546 16.173 4.967 6.403 9.992 14.455 11.154 17.874 1.17 3.435 4.16 10.851 6.647 16.491 3.99 9.06 5.107 10.384 9.592 11.353 5.588 1.2 11.14 5.544 14.951 11.694zm-27.104-7.276c.54-1.717.111-4.174-.94-5.462-1.643-1.999-3.264-1.725-11.339 1.94-9.289 4.21-9.51 4.225-16.409.598-4.78-2.509-7.934-5.602-9.977-9.776-2.687-5.507-2.62-6.824.696-13.456 2.035-4.04 5.7-8.505 8.164-9.91 5.654-3.227 7.69-7.712 4.277-9.422-1.324-.666-2.827-2.457-3.338-3.99-1.162-3.507-15.202-13.64-17.104-12.337-.777.525-.74 2.605.081 4.61 5.137 12.56.378 25.956-10.576 29.775-9.415 3.28-12.79 2.947-19.969-1.983-11.413-7.83-13.515-15.534-7.372-26.962 3.404-6.33 4.64-7.276 13.307-10.155l9.548-3.175-6.09-3.22c-6.233-3.286-22.087-5.817-28.756-4.59-3.61.674-3.597 1 .49 11.539 3.803 9.837 3.966 11.429 1.753 17.002-1.347 3.382-4.219 7.283-6.38 8.66-8.837 5.618-7.942 8.667 6.957 23.603 20.302 20.36 40.042 31.58 61.47 34.927 17.207 2.694 24.616 3.1 26.637 1.495.807-.644 2.013-4.633 2.68-8.874.665-4.241 1.65-9.118 2.19-10.836z"/></g><g><path fill="#e2e2e2" d="M1026.772 996.02c-.846 1.343-4.475 4.097-8.053 6.122-5.85 3.304-6.471 4.286-6.051 9.553 1.404 17.546 3.535 21.634 12.309 23.658 7.219 1.663 13.454-.124 18.497-5.3 5.73-5.878 7.743-13.424 5.429-20.384-1.694-5.095-3.598-6.962-11.314-11.107-7.23-3.88-9.615-4.44-10.817-2.541z"/></g><g><path fill="#e2e2e2" d="M316.42 414.482c-.164 10.964 2.588 29.096 6.354 41.91 1.79 6.083 4.236 16.583 5.438 23.34 3.977 22.383 11.225 48.764 15.352 55.875 2.163 3.732 5.737 11.513 7.942 17.3 7.222 18.93 20.21 34.08 38.605 45.038 7.81 4.652 14.558 6.854 27.462 8.967 9.416 1.54 20.418 2.177 24.456 1.418 9.402-1.775 9.763-2.083 12.095-10.243 1.869-6.55 1.724-7.278-3.32-16.71-6.42-12.011-16.69-23.56-23.868-26.831-2.937-1.341-5.618-3.294-5.967-4.343-.352-1.058-4.426-4.834-9.054-8.394-4.63-3.564-12.796-10.88-18.146-16.252-5.354-5.372-13.182-12.75-17.402-16.397-4.22-3.647-7.772-6.94-7.898-7.318-.126-.38-3.887-4.361-8.36-8.85-4.472-4.486-9.6-10.795-11.396-14.008-1.792-3.22-6.393-10.67-10.22-16.55-6.18-9.511-7.52-12.94-12.08-30.977-5.89-23.292-9.796-29.932-9.993-16.975z"/></g><g><path fill="#e2e2e2" d="M1025.202 969.336c3.353 16.647 2.975 20.569-1.562 16.277-2.635-2.502-3.723-2.369-12.345 1.524-11.54 5.189-18.585 4.618-24.95-2.035-11.813-12.324-7.624-27.934 9.518-35.476l8.208-3.611-2.154-7.498c-3.131-10.909-5.965-11.087-11.613-.718-7.69 14.1-13.537 17.275-27.888 15.136-7.72-1.154-9.548-2.19-12.953-7.335-7.453-11.272-6.846-22.478 1.717-31.804 3.649-3.974 6.425-5.306 16.025-7.697 8.926-2.221 11.457-3.353 10.939-4.922-.992-2.975-20.82-18.037-32.041-24.329-10.303-5.78-24.928-9.881-29.687-8.318-4.086 1.339-2.132 2.937 7.727 6.328 17.253 5.921 22.123 12.715 19.85 27.688-1.398 9.201-8.911 17.223-17.415 18.592-7.564 1.222-7.705 4.804-.814 20.569 7.128 16.32 17.763 32.307 25.32 38.051 3.227 2.457 7.979 6.691 10.562 9.407 2.576 2.724 5.277 4.751 5.995 4.515.718-.244 5.174 1.266 9.903 3.345 4.722 2.08 13.382 4.722 19.25 5.862 13.457 2.628 14.36 4.241 2.54 4.567-2.51.074-6.913-.274-9.785-.762-2.88-.488-9.925-1.488-15.661-2.213-11.724-1.488-34.498-9.726-39.131-14.152-1.673-1.599-6.565-4.619-10.873-6.705-5.81-2.828-9.577-6.307-14.633-13.531-3.745-5.35-7.18-10.865-7.645-12.249-.46-1.384-4.241-5.899-8.393-10.029-12.812-12.715-21.14-27.873-25.624-46.636-2.11-8.807-3.39-16.905-2.85-17.985.54-1.096.208-4.323-.747-7.18-.948-2.864-1.525-7.89-1.288-11.169.348-4.596-.193-6.528-2.376-8.46-10.458-9.251-22.123-15.617-26.164-14.269-2.361.784-7.95-2.006-8.867-4.419-1.021-2.679 7.89-3.605 12.183-1.258 2.56 1.392 9.429 3.464 15.254 4.589 9.985 1.938 11.62 1.739 28.348-3.412 16.26-5.019 18.57-5.329 27.629-3.694 5.433.985 11.924 3.279 14.41 5.092 2.488 1.814 7.557 3.805 11.25 4.427 3.709.614 9.082 2.908 11.962 5.092 13.692 10.414 26.312 20.479 26.548 21.19.14.422 2.59 3.316 5.44 6.409 19.866 21.583 40.856 63.32 46.88 93.206zm-119.37-89.068c1.806-2.568 1.317-3.197-5.462-6.95-4.086-2.273-7.957-3.508-8.586-2.753-2.124 2.538 7.638 14.011 10.984 12.9.592-.2 1.969-1.635 3.064-3.197z"/></g><g><path fill="#e2e2e2" d="M272.452 525.622c-.595-7.736 1.616-26.387 3.474-29.376.75-1.197 1.434-4.357 1.528-7.008.233-6.82-2.584-5.225-3.724 2.106-.509 3.27-2.697 10.431-4.855 15.92-2.159 5.487-4.764 12.983-5.788 16.665-1.018 3.68-3.793 11.006-6.158 16.277-2.68 5.978-3.81 11.07-3.002 13.502.717 2.155.428 5.598-.638 7.66-1.759 3.4-3.696 11.432-8.026 33.288-.94 4.76-.618 11.32.853 17.282 1.301 5.291 2.586 13.45 2.855 18.13.888 15.701 2.91 23.501 7.091 27.42 2.13 1.992 8.225 8.233 13.553 13.883 7.673 8.131 11.584 10.878 18.814 13.205 16.073 5.188 27.644-1.7 26.425-15.723-.91-10.47-13.21-45.984-22.752-65.696-10.746-22.2-19.906-51.998-19.474-63.326.166-4.346.088-10.738-.176-14.208z"/></g><g><path fill="#e2e2e2" d="M352.512 212.25c5.159.197 12.396 2.351 18.456 5.482 7.786 4.031 11.049 4.798 14.912 3.514 2.718-.903 8.829-1.082 13.58-.392 19.369 2.796 25.582 2.972 36.184 1.042 6.108-1.115 11.406-1.874 11.777-1.685.367.18 9.877-3.586 21.134-8.375 19.617-8.35 20.652-9.002 25.137-15.852 5.552-8.474 5.37-17.416-.421-20.685-9.086-5.133-28.445-2.765-63.213 7.724-29.728 8.97-34.215 9.918-51.286 10.852-18.454 1.006-27.844.711-32.832-1.03-5.23-1.835-28.371-1.976-29.267-.18-2.528 5.055 23.174 19.102 35.839 19.585z"/></g><g><path fill="#e2e2e2" d="M326.784 640.675c5.113 4.875 9.59 9.741 9.944 10.81.774 2.33 22.357 11.008 30.643 12.327 3.216.514 9.307.775 13.532.578 7.881-.368 14.157-2.94 16.03-6.566 2.58-5.012-10.104-29.91-24.839-48.757-5.927-7.58-32.053-36.34-34.526-38.007-2.28-1.538-8.716-11.589-14.24-22.235-2.359-4.55-5.564-9.83-7.12-11.737-1.557-1.908-6.21-13.166-10.345-25.013-6.349-18.218-7.546-23.372-7.742-33.364-.273-13.9-.489-14.825-3.285-13.896-2.654.882-2.287 23.964.76 47.436.71 5.487.913 11.661.445 13.725-1.195 5.318-.624 20.44 1.354 35.968.935 7.315 2.09 16.687 2.57 20.823.518 4.457 4.257 15.944 9.2 28.276 7.958 19.851 8.733 21.16 17.62 29.632z"/></g><g><path fill="#e2e2e2" d="M304.867 210.486c.603 2.93 3.807 6.959 9.287 11.652 4.605 3.946 9.466 8.759 10.8 10.697 1.34 1.942 5.067 4.994 8.278 6.788 6.37 3.55 21.413 17.277 22.493 20.524 1.227 3.689 37.903 20.479 61.303 28.058 5.944 1.925 30.044 3.552 38.194 2.584 2.752-.333 8.862-.727 13.58-.884 11.462-.378 20.86-4.76 30.159-14.056 4.233-4.225 9.023-8.621 10.646-9.754 3.103-2.174 4.58-9.176 2.963-14.04-1.253-3.765-23.185-14.937-26.902-13.701-1.582.527-5.266.097-8.186-.953-5.7-2.05-12.12-1.974-27.766.329-5.456.807-20.473 2-33.374 2.658-19.316.99-27.303.44-45.258-3.113-23.938-4.743-43.97-13.145-58.576-24.576-8.181-6.4-8.516-6.498-7.641-2.213z"/></g><g><path fill="#e2e2e2" d="M529.514 455.23c3.117 1.56 10.234-9.71 9.797-15.515-.45-6.021-11.558-16.168-22.344-20.418-5.054-1.99-16.587-6.67-25.627-10.401-9.045-3.73-25.893-9.402-37.452-12.607a16755.413 16755.413 0 0 1-29.242-8.127c-4.528-1.265-10.867-4.46-14.088-7.097-3.223-2.642-10.407-6.92-15.967-9.507-5.565-2.585-11.653-6.613-13.528-8.943-1.88-2.333-8.412-9.885-14.521-16.795-6.107-6.905-13.038-16.307-15.408-20.887-6.305-12.202-16.52-29.793-17.62-30.344-2.6-1.301 1.353 12.885 6.339 22.723 3.1 6.132 6.845 14.766 8.315 19.187 3.23 9.716 10.709 23.582 17.263 32.009 2.653 3.409 6.13 9.668 7.728 13.902 1.599 4.243 4.492 9.522 6.429 11.734 1.946 2.22 7.203 8.837 11.683 14.71 4.485 5.87 9.675 11.556 11.532 12.637 1.858 1.08 8.31 6.565 14.339 12.192 14.678 13.687 31.47 21.77 53.587 25.777 20.187 3.658 31.8 3.342 47.014-1.296 6.029-1.838 11.323-3.163 11.77-2.934z"/></g><g><path fill="#e2e2e2" d="M682.73 1262.7c1.378 14.735.823 27.347-1.553 35.045-1.007 3.279-2.324 8.844-2.91 12.39-.598 3.538-1.857 8.252-2.797 10.473-.947 2.221-1.532 6.113-1.302 8.667.229 2.546-.296 4.87-1.155 5.151-.866.289-1.658 2.502-1.761 4.922-.178 4.308-3.501 6.973-6.047 4.849-.711-.6-.32-2.798.873-4.901 1.184-2.101 1.858-4.707 1.495-5.802-.363-1.095.637-3.96 2.22-6.358 2.36-3.575 2.435-5.728.407-11.827-1.57-4.723-1.887-8.809-.873-11.14 1.34-3.034 1.133-3.981-1.191-5.432-2.31-1.429-2.672-2.606-2.021-6.425.444-2.575-.237-7.445-1.517-10.828-1.273-3.382-2.236-8.06-2.14-10.406.193-4.538-10.435-26.779-12.471-26.105-.621.207-1.68 2.235-2.361 4.507-1.946 6.528-7.594 12.649-13.522 14.663-9.348 3.175-9.918 5.928-1.495 7.201 11.775 1.791 16.749 5.921 19.192 15.957 3.07 12.561-3.227 23.922-15.913 28.71-14.448 5.455-30.561-8.341-28.09-24.054.867-5.492 7.343-16.32 10.348-17.319 4.264-1.422 2.058-4.93-4.751-7.55-7.89-3.05-14.3-9.148-16.476-15.683-2.465-7.424-3.923-3.094-6.062 18-2.353 23.174-2.464 34.417-.414 40.678.733 2.257.585 5.336-.348 6.831-1.932 3.094-.74 8.179 2.08 8.845 2.324.556 6.313 12.079 4.803 13.893-4.048 4.847-27.77-58.102-28.97-76.886-1.28-20.117 10.526-68.493 20.777-85.124l6.817-11.035-4.101-16.736c-7.993-32.617-15.484-50.144-24.795-58.004-2.627-2.213-8.533-10.184-13.122-17.726-4.59-7.535-11.71-18.163-15.824-23.618-7.883-10.466-12.797-22.131-10.91-25.891.807-1.605-.881-4.233-5.906-9.221-12.531-12.435-22.005-19.222-40.79-29.221-10.14-5.403-18.074-9.941-17.623-10.096 1.762-.585 28.585 5.263 37.77 8.237 5.344 1.725 16.498 4.212 24.787 5.53 10.436 1.658 16.587 3.664 20.006 6.52 2.717 2.273 5.544 4.175 6.292 4.241.732.06 13.492 7.379 28.354 16.269 30.627 18.325 41.115 28.236 49.19 46.495 6.506 14.707 6.12 20.835-1.798 28.836-3.486 3.509-7.742 6.854-9.46 7.432-1.717.569-8.526.044-15.135-1.17-6.61-1.214-12.634-1.466-13.39-.563-1.813 2.169 7.69 23.87 11.932 27.238 1.724 1.362 5.662 6.824 8.756 12.13 5.52 9.474 7.86 11.569 24.52 21.99 4.508 2.828 8.512 6.062 8.89 7.194.377 1.133 2.005 2.576 3.61 3.197 1.615.63 6.759 6.47 11.437 12.983 7.223 10.044 9.577 14.936 15.58 32.366 4.329 12.583 7.194 23.507 7.416 28.215.185 4.233.844 12.989 1.443 19.466zm-65.124-43.684c6.906-1.857 7.172-3.375 2.487-13.974-3.79-8.541-6.402-9.311-9.615-2.835-3.108 6.262-8.785 21.834-8.385 23.034.207.614 2.479-.178 5.055-1.762 2.568-1.599 7.275-3.605 10.458-4.463z"/></g><g><path fill="#e2e2e2" d="M520.684 771.373c-5.556-2.787-6.514-2.394-10.615 4.284-7.078 11.538-14.147 65.307-8.62 65.555 4.263.193 4.37 4.486.124 4.831-3.386.273-4.034 2.101-5.923 16.808-1.17 9.077-3.619 19.474-5.444 23.11-5.243 10.442-12.07 20.12-15.953 22.628-1.968 1.263-5.103 4.687-6.968 7.604l-3.399 5.307 7.8-4.037c10.241-5.309 12.426-6.909 22.442-16.449 18.35-17.48 35.137-40.756 38.901-53.947 5.58-19.539 5.787-25.757 1.285-38.532-2.292-6.519-5.323-17.06-6.725-23.418-2.31-10.48-2.955-11.77-6.905-13.744z"/></g><g><path fill="#e2e2e2" d="M537.648 349.55l-1.954-8.527-18.222-8.46c-10.022-4.649-22.323-9.045-27.326-9.763-5.01-.726-15.773-2.583-23.922-4.145-8.149-1.546-21.767-3.796-30.27-4.988-8.498-1.184-17.513-2.472-20.03-2.857-13.944-2.132-66.635-30.842-76.242-41.536-5.558-6.189-21.516-20.155-26.149-22.886-7.564-4.448-11.798-9.43-16.23-19.096-2.273-4.966-6.27-12.227-8.868-16.128-2.598-3.9-8.956-13.492-14.129-21.315-5.174-7.817-10.614-14.974-12.087-15.92-1.48-.934-4.026-3.213-5.662-5.049-4.944-5.565-27.452-21.19-37.052-25.72-13.219-6.239-35.016-13.344-45.822-14.95-9.733-1.436-15.528-4.07-9.592-4.338 1.762-.089 8.985-1.547 16.046-3.234 7.07-1.702 14.522-2.769 16.557-2.384 8.35 1.621 74.23-20.205 85.753-28.392 1.621-1.154 6.64-5.573 11.147-9.814 4.507-4.248 8.748-7.927 9.414-8.193 3.412-1.325 8.38-13.61 10.103-24.965 1.651-10.903 1.473-13.64-1.25-18.659-2.717-5.018-4.07-5.89-9.26-5.965-8.896-.126-9.222.11-38.939 28.435-6.098 5.82-12.967 13.33-15.26 16.684-6.122 8.985-16.914 17.148-37.275 28.222-25.046 13.626-27.067 11.982-8.075-6.566 17.993-17.578 24.077-27.318 30.057-48.116 7.276-25.328 3.435-35.639-10.206-27.408-12.797 7.72-36.667 38.265-62.794 80.343-5.847 9.421-12.227 18.961-14.189 21.212-3.759 4.323-3.989 6.07-.917 6.794 4.522 1.074 2.28 3.183-2.968 2.798-11.857-.873-64.518 18.778-80.602 30.094-11.553 8.12-45.977 44.002-57.205 59.626-1.229 1.718-2.687 3.738-4.234 5.885v25.542c.518.236.97.881 1.325 1.954.37 1.102-.215 3.767-1.325 6.417v61.32c4.39 5.914 10.606 11.487 13.87 12.05 3.324.577 4.33-.186 6.802-5.15 3.523-7.092 2.435-23.279-2.916-43.174-5.788-21.53-6.269-26.874-4.01-44.63 2.308-18.149 4.987-23.515 18.176-36.357 13.227-12.878 14.544-11.908 12.302 9.045-1.288 12.028-.955 15.388 2.59 26.038 3.161 9.504 4.966 12.805 8.075 14.796 9.851 6.306 12.294-10.777 4.804-33.595-3.324-10.14-3.968-14.892-3.257-24.188.748-9.71 1.717-12.375 6.054-16.639 2.85-2.79 8.734-6.6 13.093-8.46 6.891-2.945 8.58-3.048 13.116-.769 7.712 3.856 12.886 12.671 20.294 34.572 7.158 21.14 9.556 24.403 16.261 22.175 5.226-1.739 10.873-17.43 9.06-25.15-.785-3.3-2.043-9.31-2.82-13.345-.992-5.203-3.16-9.614-7.468-15.188-8.134-10.532-7.187-12.138 8.815-14.833 15.41-2.604 17.896-1.998 22.678 5.493 2.213 3.463 5.233 6.35 6.72 6.417 2.391.111 2.51.555 1.06 3.856-.904 2.05-.956 8.341-.127 13.988 2.302 15.595-1.229 25.876-13.153 38.325-27.4 28.591-31.95 35.541-30.96 47.236.37 4.36.792 9.518.94 11.465.185 2.398 2.213 4.596 6.27 6.81 9.932 5.387 13.122 5.277 21.552-.734 17.001-12.123 21.701-17.008 26.142-27.185 2.42-5.558 4.197-10.747 3.93-11.532-.259-.792 1.281-5.307 3.412-10.059 4.767-10.568 4.426-19.398-1.384-36.08-2.435-6.965-4.61-14.856-4.833-17.52-.222-2.672-3.286-10.443-6.794-17.26-3.516-6.824-6.07-13.034-5.685-13.804.83-1.658 22.101.481 25.58 2.57 1.332.791 3.397 1.138 4.596.768 3.471-1.066 32.596 13.463 39.56 19.747 3.48 3.131 9.385 9.363 13.131 13.841 3.745 4.478 8.615 9.526 10.821 11.228 7.741 5.987 18.488 25.047 24.787 43.98 6.424 19.324 8.948 37.42 9.481 67.892.081 4.39.43 8.852.785 9.911.607 1.835-2.472 30.553-4.53 42.255-1.606 9.09-10.732 41.122-14.566 51.106-7.113 18.548-27.63 45.29-37.185 48.472-2.154.711-7.697 4.396-12.33 8.18-17.823 14.572-28.37 19.464-61.099 28.338-30.923 8.38-38.169 9.52-49.442 7.75-5.536-.866-14.018-2.065-18.85-2.665-4.834-.599-10.519-2.464-12.635-4.152-2.125-1.673-8.334-5.373-13.819-8.208-7.483-3.87-10.384-6.365-11.635-10.007-.925-2.657-4.152-8.696-7.187-13.41a836.01 836.01 0 0 1-10.739-17.239c-12.694-21.042-16.313-24.669-32.529-32.55-1.977-.964-3.538-1.667-4.804-2.126v59.012c1.636 3.383 3.656 7.275 6.18 12.035 4.16 7.83 18.992 22.515 31.16 30.842 5.411 3.7 10 7.238 10.207 7.875.215.636-4.996 4.337-11.569 8.222-18.407 10.88-19.014 11.31-21.079 14.818-3.412 5.773-.296 10.71 7.098 11.265 11.332.851 21.945-2.487 38.288-12.042 15.52-9.059 26.83-13.108 28.887-10.325.69.925-2.834 4.137-8.533 7.801-22.952 14.743-36.193 27.37-37.148 35.431-1.42 11.982 7.098 17.067 20.902 12.478 9.074-3.019 16.993-9.658 42.158-35.305 6.64-6.772 14.662-14.306 17.837-16.756 7.44-5.729 15.67-8.57 16.61-5.737.828 2.495-7.35 13.952-10.77 15.092-1.28.43-2.805 1.584-3.382 2.568-1.074 1.814-22.553 19.932-24.344 20.525-.525.178-3.3 3.42-6.158 7.201-15.469 20.473-18.163 45.127-5.602 51.418 11.51 5.758 19.74-2.103 36.252-34.616 17.082-33.633 31.752-59.76 35.89-63.927 3.39-3.427 28.998-14.447 31.093-13.403 1.91.954-3.042 10.17-7.616 14.166-2.332 2.028-5.137 6.491-6.24 9.903-1.11 3.412-4.759 8.985-8.127 12.39-3.36 3.412-6.432 8.06-6.816 10.332-.874 5.136-2.42 7.483-11.954 18.148-13.522 15.13-23.632 43.107-22.263 61.536.651 8.734 6.365 22.426 10.924 26.208 1.725 1.43 5.352 2.746 8.068 2.946 12.442.896 19.473-14.292 22.885-49.39.718-7.394 2.183-19.584 3.257-27.089 1.073-7.513 1.917-15.595 1.872-17.963-.118-5.744 8.445-32.159 15.728-48.546l5.855-13.174 13.493-5.633c7.431-3.094 15.27-6.78 17.43-8.186 2.405-1.576 4.115-1.946 4.448-.955.607 1.828-15.802 34.676-29.132 58.338-4.877 8.638-10.42 20.628-12.338 26.638-1.902 6.01-4.589 12.856-5.95 15.217-1.37 2.37-2.48 7.416-2.465 11.228.014 3.805-.459 8.941-1.044 11.398-4.907 20.606 2.85 42.566 19.421 55.023 10.385 7.801 25.794 8.193 28.71.724 4.523-11.538 4.153-28.62-1.813-83.036-1.458-13.322-2.257-25.239-1.776-26.482.481-1.243.866-6.942.843-12.656-.036-9.156 1.755-18.999 7.002-38.517 7.861-29.222 8.786-30.99 24.247-46.792 11.657-11.909 26.15-34.387 29.384-45.563 1.347-4.67 3.005-8.674 3.671-8.897.681-.222 2.45-4.522 3.945-9.548 1.488-5.033 5.13-14.24 8.09-20.465 3.582-7.556 5.225-13.707 4.922-18.466-.259-3.922.577-9.762 1.857-12.967 2.332-5.862 4.256-21.042 3.116-24.49-.34-1.023.282-5.035 1.385-8.912 1.095-3.894 1.517-11.037.925-15.884a5862.92 5862.92 0 0 1-2.82-23.848c-1.45-12.449-3.153-20.709-8.297-40.16-.17-.658.355-1.42 1.177-1.694 1.946-.645 11.672 10.117 15.417 17.06 1.613 2.997 4.433 6.683 6.254 8.186 1.821 1.51 3.612 3.627 3.975 4.714.651 1.961 9.71 13.323 16.727 20.976 2.013 2.198 6.432 8.526 9.836 14.077 3.397 5.544 8.504 12.82 11.34 16.172 2.827 3.346 6.18 7.823 7.438 9.955 1.258 2.124 6.957 6.47 12.656 9.66 5.7 3.197 12.745 8.163 15.67 11.05 8.207 8.12 29.39 16.245 58.085 22.285 15.284 3.22 16.298 3.198 28.392-.674 6.891-2.205 15.07-4.262 18.17-4.566 8.742-.85 21.45-7.594 24.773-13.138 2.228-3.73 2.45-6.787.94-13.359z"/></g><g><path fill="#e2e2e2" d="M35.913 655.168c-3.952-3.375-28.466-20.228-35.919-24.78v29.036c.851.755 1.71 1.503 2.568 2.235 14.847 12.671 38.295 19.74 43.765 13.19 2.146-2.554-4.027-14.219-10.414-19.68z"/></g><g><path fill="#e2e2e2" d="M118.276 765.317c-7.364-7.194-17.719-12.51-29.694-15.24-5.67-1.295-13.02-3.25-16.343-4.352-3.308-1.095-6.705-1.77-7.527-1.495-2.48.829-31.856-9.74-38.177-13.73-8.282-5.225-13.648-10.806-22.44-23.33a230.588 230.588 0 0 0-4.1-5.64v15.885c.191.266.384.548.591.836 12.442 17.712 29.273 35.17 44.505 46.177 14.98 10.822 26.297 15.314 48.116 19.118 10.26 1.792 22.893-2.76 28.133-10.125 2.065-2.91 1.947-3.212-3.064-8.104z"/></g><g><path fill="#e2e2e2" d="M1064.233 626.539c8.467 4.467 11.305 14.189 6.65 22.75-4.926 9.048-13.216 10.547-24.259 4.383-8.579-4.786-12.438-4.42-22.16 2.118-5.489 3.69-36.932 15.904-58.774 22.826-17.749 5.629-28.848 4.327-38.336-4.525-3.812-3.55-10.77-9.15-15.473-12.457-16.71-11.726-33.054-30.338-39.639-45.098-7.305-16.382-31.16-10.894-56.404 12.98-4.355 4.113-10.49 9.133-13.637 11.147-14.658 9.404-28.81 19.248-34.44 23.95-12.57 10.499-15.913 12.832-21.88 15.258-6.64 2.697-20.849 13.262-25.148 18.685-3.1 3.906-6.472 16.644-4.655 17.553 1.835.927 16.653-10.097 22.657-16.87 8.776-9.871 18.058-15.257 53.978-31.311 20.596-9.216 28.651-11.267 40.481-10.35 8.776.675 10.696 3.597 8.13 12.317-3.119 10.688-14.808 18.883-46.082 32.389-8.205 3.54-17.3 6.687-20.222 6.997-8.28.87-62.333 20.072-66.735 23.706-3.672 3.025-19.36 33.643-18.527 36.19.796 2.484 7.362-1.34 12.626-7.341 11.511-13.124 62.52-35.387 90.413-39.452 15.857-2.295 34.44.496 40.96 6.192 5.01 4.364 12.278 6.059 21.467 5.019 2.52-.29 4.842.244 5.151 1.19.366 1.077-1.124 1.854-4.065 2.098-16.606 1.349-23.462 3.175-27.47 7.278-2.22 2.276-4.076 5.31-4.15 6.744-.197 4.252-16.776 18.929-25.767 22.816-11.08 4.795-32.52 8.504-54.259 9.395-9.882.412-20.794.898-24.25 1.086-4.112.224-13.946 3.437-28.38 9.263l-22.095 8.917-10.528 12.513c-5.797 6.885-13.73 15.567-17.627 19.295-3.887 3.709-9.319 9.413-12.055 12.654-2.735 3.24-8.11 8.214-11.932 11.052-3.822 2.829-9.357 8.158-12.289 11.839-5.15 6.453-7.587 8.486-19.884 16.56-3.138 2.05-8.824 6.05-12.654 8.888-3.822 2.829-11.409 8.187-16.86 11.877-5.442 3.69-11.08 7.859-12.523 9.244-1.45 1.396-5.573 4.243-9.169 6.34-3.597 2.1-10.069 6.109-14.387 8.9-14.93 9.666-38.655 19.21-78.77 31.668-21.618 6.714-41.503 12.616-44.19 13.103-39.17 7.155-44.978 7.896-72.42 9.085-33.776 1.452-53.146 1.067-60.03-1.228-3.344-1.114-10.593-2.293-16.11-2.622-5.517-.328-11.624-1.5-13.563-2.594-1.938-1.096-5.45-1.845-7.792-1.667-2.35.177-9.46-1.63-15.8-4.01-16.346-6.144-36.596-12.86-42.487-14.105-2.763-.581-7.97-3.335-11.596-6.116-10.827-8.346-13.187-3.568-4.85 9.844 2.743 4.41 6.5 12.195 8.344 17.309 1.855 5.105 7.203 18.929 11.895 30.72 6.95 17.479 8.814 23.866 10.06 34.564.852 7.212 2.641 16.372 4 20.342l2.462 7.232 1.836-4.684c1.012-2.575 1.78-9.468 1.714-15.304-.056-5.854.094-16.166.337-22.92.431-11.717.038-13.468-8.457-37.371-7.072-19.922-8.393-24.868-6.416-24.09 1.367.534 2.82 1.967 3.231 3.184.403 1.208 2.913 4.384 5.564 7.035 2.66 2.66 9.694 11.792 15.642 20.315 5.947 8.514 12.747 17.178 15.098 19.257 7.343 6.454 15.782 25.13 24.877 55.018 7.484 24.67 8.495 29.682 9.563 47.72 1.705 28.662-1.508 35.65-18.845 40.94l-9.807 2.999-1.592 8.888c-1.377 7.662-1.058 10.013 2.22 17.019 3.035 6.48 3.634 9.872 2.988 16.71-.45 4.72-.328 10.087.29 11.923.61 1.836.497 6.256-.243 9.816-.74 3.578-1.864 10.19-2.529 14.695-1.845 12.804-5.592 22.78-14.32 38.13-8.525 15.015-26.864 33.504-33.814 35.827 0 0-22.769 2.163 4.674-33.091 6.716-11.324-10.144-29.982-16.035-13.347-4.262 10.059-19.763 12.869-14.705-12.41.552-.638.843-9.451.665-19.576l-.319-18.396 10.66-21.374c14.367-28.876 21.907-33.868 38.101-25.326 3.241 1.714 6.744 2.828 7.784 2.482 3.306-1.096 7.85-14.443 6.996-20.588-.487-3.605-3.165-9.713-6.818-15.547-7.549-12.074-12.373-26.47-14.734-43.966-2.772-20.653-4.917-22.62-6.949-6.388-2.042 16.25-8.486 30.216-17.412 37.728-5.798 4.879-7.053 5.385-11.305 4.608-6.604-1.227-13.853-9.113-19.267-20.952-3.288-7.203-4.355-11.324-3.85-14.856.825-5.647-3.297-34.87-5.039-35.741-.655-.328-4.486 6.04-8.514 14.17-6.837 13.732-9.872 17.263-20.1 23.352-3.54 2.116-3.606 2.987-.993 13.927 6.566 27.575 7.971 43.206 4.281 47.619-.712.86-1.93 6.743-2.688 13.056-.778 6.313-2.754 14.434-4.402 18.03-1.649 3.597-3.738 8.945-4.646 11.895-1.124 3.663-3.475 6.332-7.446 8.439 0 0-8.14 6.753-19.323 3.419 4.45-3.42 2.81-5.722-2.782-3.86-6.266 2.09-14.377.01-17-4.354-1.292-2.164-3.08-5.03-3.962-6.36-.88-1.33-1.227-4.73-.786-7.55 1.704-10.808 8.176-16.672 17.636-15.968 8.664.655 13.46 5.179 15.661 14.817 1.011 4.42 2.38 7.849 3.025 7.634 1.49-.497 6.697-19.511 6.95-25.365.243-5.788-.88-6.134-10.022-3.09-6.585 2.19-8.58 2.079-13.778-.75-3.344-1.808-7.352-5.611-8.926-8.44-1.564-2.818-3.925-5.178-5.236-5.244-4.514-.206-13.759 10.949-17.71 21.383l-3.954 10.416-2.023-9.732c-2.21-10.584.16-45.68 3.915-58.005 2.323-7.634 11.445-16.692 18.2-18.05 2.097-.421 5.6-2.331 7.791-4.224 3.157-2.734 5.35-3.466 10.556-3.466 5.564-.018 7.175-.636 10.565-4.13 2.202-2.257 5.18-4.055 6.623-3.98 3.596.159 4.14-4.768 1.788-16.354-1.077-5.367-1.854-14.95-1.704-21.318.14-6.37-.337-13.375-1.077-15.586-.73-2.2-.88-4.542-.338-5.207.562-.646 1.658-5.555 2.454-10.884.797-5.34 3.756-15.922 6.585-23.538 2.83-7.614 6.097-16.596 7.268-19.977 3.644-10.453 1.733-34.094-4.28-53.071-5.039-15.941-5.554-16.86-13.787-24.801-4.702-4.543-12.392-11.315-17.085-15.042-7.52-5.986-15.239-14.846-29.916-34.366-11.8-15.698-23.659-24.801-21.13-16.232 2.407 8.196 2.154 28.343-.496 38.637-1.48 5.769-4.487 13.59-8.168 21.767v-54.924c2.857-5.217 4.15-9.31 4.29-13.337.197-5.574-.056-7.438-4.29-14.462v-76.71c7.418 18.114 20.063 43.609 26.085 50.68 3.13 3.69 8.44 10.856 11.783 15.942 15.764 23.987 37.091 49.014 52.536 61.696 12.766 10.453 64 34.815 69.442 33.007.787-.263 5.31.487 10.04 1.667 4.74 1.18 10.275 2.117 12.308 2.089 2.032-.03 7.971 1.142 13.188 2.585 9.637 2.678 37.353 4.59 47.974 3.297 13.834-1.677 28.764-10.734 44.733-27.144 6.81-7.006 26.826-20.185 34.506-22.751 6.725-2.228 11.858.506 14.181 7.568 2.397 7.25-2.67 26.975-8.983 35.02-6.8 8.675-22.282 17.066-47.15 25.57-24.118 8.225-35.479 9.649-57.696 7.232-21.084-2.295-62.07-14.022-70.379-20.147-7.512-5.536-9.966-5.891-8.41-1.218.552 1.659 3.605 3.822 6.79 4.796 3.184.974 8.907 4.13 12.72 7.015 12.588 9.517 50.577 27.509 69.001 32.688 4.205 1.17 9.675 2.867 12.167 3.756 10.265 3.672 41.4 6.089 59.27 4.59 25.542-2.126 56.675-15.735 74.968-32.754 12.598-11.717 18.143-25.074 23.406-56.451 3.85-22.937 14.097-47.17 20.887-49.435 2.108-.693 10.584 8.233 12.092 12.71 4.281 12.84-4.674 55.496-15.314 72.86-4.786 7.849-16.934 20.784-30.337 32.343-2.229 1.91-7.887 5.844-12.579 8.719-20.859 12.804-4.159 12.139 51.028-2.004 22.844-5.854 67.802-24.417 80.222-33.138 5.02-3.522 14.05-9.236 20.053-12.692 36.426-20.962 57.716-41.033 63.926-60.262 1.723-5.367 4.505-11.998 6.163-14.752 3.643-6.013 10.883-38.121 10.49-46.476-.14-3.287-1.31-9.366-2.595-13.487-1.273-4.14-2.079-8.945-1.779-10.678.281-1.742-3.475-14.715-8.355-28.82-9.703-28.005-11.586-36.67-9.076-41.69 2.435-4.851 8.683-3.596 19.66 3.972 14.49 9.975 19.791 18.067 25.111 38.233 4.271 16.279 4.318 17.328 1.34 29.84-4.506 18.856-10.688 39.583-17.169 57.398-3.999 11.034-5.02 15.95-3.466 16.738 2.763 1.386 11.924-8.346 24.344-25.86a9969.348 9969.348 0 0 1 15.351-21.627c3.568-5.031 8.72-13.432 11.446-18.687 2.725-5.245 8.308-16.015 12.438-23.921 4.318-8.327 7.24-16.241 6.922-18.79-1.152-9.103-1.19-27.517-.056-28.876.646-.777.618-3.091-.057-5.132-.683-2.051-.758-4.281-.178-4.983 1.096-1.32-5.45-29.86-9.29-40.425-9.096-25.064-12.168-31.274-21.038-42.42-13.656-17.187-23.116-35.161-23.706-45.033l-.468-7.803 6.622-1.105c16.831-2.791 18.704-2.304 26.535 6.94 14.012 16.588 25.73 40.932 26.881 55.87.318 4.188 1.152 12.898 1.836 19.333.693 6.444 1.067 17.244.843 24.005-.234 6.754-.384 14.48-.337 17.188.056 2.688-.29 5.929-.75 7.184-1.62 4.346-3.419 33.326-2.173 34.974 1.696 2.267 12.392-28.352 15.483-44.341 1.386-7.136 2.632-16.915 2.782-21.738.15-4.814.946-12.485 1.77-17.057 2.22-12.26 3.27-37.633 2.117-51.102-.872-10.22-1.958-13.834-8.14-27.135-7.399-15.922-14.508-25.87-31.115-43.497-5.348-5.685-9.975-11.08-10.293-12.007-.3-.918-3.859-3.775-7.915-6.342-6.818-4.327-27.19-26.244-28.745-30.936-1.274-3.831 3.128-5.208 12.813-3.99 15.108 1.9 27.743 7.8 32.183 15.05 2.06 3.364 6.163 9.602 9.113 13.864 8.505 12.279 13.984 23.875 14.66 30.964.776 8.487 7.763 29.382 10.564 31.677 4.196 3.438 2.772-6.556-6.369-44.855-9.15-38.318-21.337-75.137-28.37-85.72-1.827-2.735-4.43-8.327-5.799-12.42-1.358-4.102-5.3-10.987-8.729-15.314-3.428-4.318-7.943-10.406-10.022-13.525-7.016-10.565-15.895-16.887-26.29-18.723-5.809-1.021-12.993-3.991-17.985-7.437-34.159-23.491-38.804-27.706-42.617-38.73-2.34-6.782-2.275-9.01.441-15.585 2.903-7.044 3.653-7.728 9.235-8.495 6.725-.918 20.85 3.643 38.533 12.447 12.504 6.22 21.664 15.688 28.623 29.579 2.052 4.084 6.791 10.696 10.538 14.705 12.13 12.954 13.487 15.427 39.33 71.895 2.846 6.202 8.28 21.956 12.081 34.994 3.812 13.047 7.578 25.84 8.383 28.417.815 2.594 2.913 12.045 4.665 21 3.475 17.702 10.986 43.524 12.972 44.508 1.311.656 2.257-7.446 2.042-17.421-.309-13.975-6.706-57.51-9.835-66.895-2.173-6.547-3.213-13.487-2.903-19.453.412-8.317-1.003-14.003-13.666-54.878-16.41-52.94-20.802-62.333-52.339-111.777-10.33-16.204-28.66-40.266-38.467-50.495-36.295-37.915-37.756-39.225-54.672-48.798-13.15-7.446-20.727-10.35-36.322-13.9-10.837-2.472-25.402-7.905-32.988-10.555-21.993-7.681-23.07-24.465-23.07-24.465-.787-4.852-.14-7.681 2.482-10.762 6.126-7.193 22.498-18.873 26.92-19.21 15.547-1.171 61.5 21.673 69.6 34.58 1.433 2.295 5.367 6.013 8.75 8.252 3.39 2.248 8.278 6.472 10.864 9.403 2.575 2.923 7.483 8.037 10.883 11.362 3.41 3.325 12.907 14.996 21.121 25.926 8.215 10.93 16.616 21.26 18.695 22.957 2.08 1.695 4.768 4.505 5.995 6.247 3.746 5.358 4.795 3.643 9.066-14.865 2.792-12.175 7.99-14.246 16.654-6.65 8.017 7.025 16.69 27.528 17.73 41.887.375 5.283 1.171 13.544 1.752 18.385.59 4.843.281 11.194-.675 14.125-2.8 8.57.103 20.906 11.287 47.816 10.94 26.356 14.901 30.496 10.07 10.537-4.525-18.742-4.123-38.74 1.048-51.057 2.566-6.088 3.83-11.847 3.09-14.067-.693-2.07-1.414-7.55-1.61-12.195-.207-4.637-1.274-12.786-2.398-18.115-2.136-10.275-.103-31.133 3.737-38.16 3.362-6.152 22.63-26.543 28.09-29.71 4.823-2.8 4.795-2.668-1.91 10.436-6.95 13.628-10.688 31.695-8.58 41.624l1.03 4.86 8.607-3.446c14.331-5.741 25.14-2.042 29.073 9.937 4.271 13.01-1.76 24.053-15.67 28.68-7.736 2.576-8.214 3.025-8.28 8.027-.112 7.522 3.391 7.175 12.842-1.293 4.196-3.746 10.687-9.244 14.424-12.204 11.043-8.757 19.65-27.218 16.756-35.938-.609-1.826-.27-7.25.76-12.045l1.863-8.74 3.325 8.477c6.556 16.7 3.7 40.032-7.39 60.45-9.114 16.766-34.468 37.897-39.976 33.298-.815-.683-2.828-.787-4.477-.234-2.94.974-5.123 9.356-4.927 18.91.047 2.352-1.18 14.462-2.716 26.919-3.156 25.542-3.98 40.098-2.622 46.008 4.215 18.357 5.31 25.673 4.402 29.41-2.108 8.646 5.283 45.408 8.88 44.209 2.2-.73 1.226-17.31-1.677-28.24-1.359-5.16-2.66-11.67-2.895-14.461-.665-8.271-.702-29.467-.065-33.166.318-1.883.777-7.914 1.021-13.404.552-12.72 10.827-31.611 18.011-33.11 7.634-1.601 11.305 3.916 13.328 20.11.937 7.474 1.134 17.29.431 21.814-2.978 19.173-5.563 29.729-7.886 32.174-1.349 1.432-2.192 3.409-1.873 4.374.318.983-1.583 6.987-4.234 13.346-2.65 6.37-4.683 11.999-4.515 12.514.178.515-.524 7.812-1.536 16.223-1.02 8.4-1.62 15.978-1.339 16.83.29.853.066 6.21-.487 11.905-.553 5.695-.169 22.18.852 36.613 1.012 14.453 1.564 28.118 1.246 30.375-.787 5.292 1.845 6.64 3.428 1.76.946-2.855 1.808-3.455 3.681-2.537 1.883.918 1.901 2.8.094 8.073-1.302 3.776-3.7 8.562-5.339 10.63-1.639 2.072-2.745 4.469-2.463 5.322.29.86-.675 5.722-2.145 10.799-1.46 5.076-2.754 11.933-2.848 15.22-.103 3.278-.599 8.448-1.114 11.483-2.735 16.176-3.213 23.425-1.639 25.336 1.095 1.339.262 5.199-2.276 10.509-2.192 4.627-4.73 12.55-5.63 17.618-.899 5.068-2.05 10.097-2.557 11.174-1.479 3.11-.327 4.525 2.83 3.475 3.24-1.076 16.12-20.034 18.947-27.93 1.002-2.782 3.672-6.912 5.93-9.188 2.256-2.277 5.141-5.976 6.396-8.234 1.255-2.248 5.77-7.755 10.022-12.232 4.252-4.477 11.165-12.607 15.352-18.068 7.624-9.928 25.87-24.624 33.896-27.293 10.687-3.55 17.403 3.587 16.223 17.262-.984 11.53 1.255 13.14 9.9 7.128 7.25-5.05 13.665-12.195 18.077-20.128 3.943-7.081 10.237-11.428 28.55-19.688 11.032-4.974 15.931-6.407 23.517-6.922 5.283-.347 14.425-1.508 20.325-2.585 7.85-1.433 12.842-1.246 18.621.675 4.336 1.46 11.988 3.717 17 5.039 8.364 2.19 17.73 8.363 28.68 18.89 12.306 11.85 15.08 14.21 19.715 16.73 10.153 5.525 18.808 17.074 17.684 23.584-.965 5.61-8.992 15.276-14.078 16.97-6.256 2.08-14.536-.082-19.294-5.046-6.913-7.232-7.23-11.54-1.724-23.361 2.782-5.966 4.824-11.567 4.534-12.457-.628-1.873-22.395-11.304-32.97-14.283-3.97-1.124-12.223-1.995-18.349-1.94-11.66.104-29.485 4.937-30.262 8.197-.253 1.049 2.847 3.428 6.865 5.3 6.182 2.877 7.653 4.44 9.535 10.117 1.977 5.919 1.677 7.792-2.51 15.707l-4.739 8.982 10.256 7.259c20.334 14.368 39.891 21.28 51.608 18.274 3.204-.825 13.16-2.642 22.124-4.046l16.306-2.54 6.163-8.148c7.671-10.181 13.544-12.475 21.346-8.354zM143.074 996.293c1.34-15.371-1.442-36.388-6.116-46.13-3.53-7.333-14.274-19.313-18.152-20.231-1.133-.271-5.75-3.474-10.256-7.118-4.496-3.643-8.954-6.37-9.919-6.051-2.435.816 4.13 14.809 15.81 33.738 10.144 16.428 15.736 30.534 15.305 38.608-.394 7.23 1.864 25.964 3.765 31.368l1.658 4.654 3.41-8.27c1.872-4.561 3.896-13.815 4.495-20.568zm31.602 261.873c.31-.61-1.658-3.27-4.383-5.911-3.185-3.09-5.264-6.687-5.854-10.125-.965-5.675-2.745-6.302-4.58-1.601-.965 2.482-.712 18.714.355 22.086.413 1.34 13.591-2.716 14.462-4.45zm5.33 49.127c2.67-3.091 4.74-6.361 4.59-7.27-.142-.898-1.996-1.301-4.103-.89-5.133 1.022-9.788 8.356-7.259 11.447 1.76 2.135 2.341 1.854 6.771-3.287zm22.488-36.81c2.014-4.421 3.316-14.462 1.94-15.023-.423-.17-5.368.73-10.978 1.994l-10.21 2.295 4.992 4.168c2.745 2.295 5.442 5.554 6.004 7.24 1.967 5.92 5.358 5.657 8.252-.674z"/></g><g><path fill="#e2e2e2" d="M449.72 122.791c-1.948-8.903-2.91-10.917-6.1-12.723-2.087-1.169-4.944-1.747-6.358-1.28-1.413.466-3.5.385-4.64-.185-1.355-.68-8.638 1.724-21.39 7.076-13.197 5.536-24.595 9.266-35.905 11.754-9.11 2.004-23.825 6.083-32.684 9.073-17.43 5.854-29.354 7.276-55.015 6.543-31.649-.896-36.867-.377-35.557 3.553 1.26 3.775 30.413 15.387 34.891 13.9 1.354-.452 4.433.858 6.846 2.901 4.656 3.952 25.335 10.14 38.813 11.62 4.456.481 11.887 1.488 16.513 2.213 17.748 2.821 40.175 1.614 56.902-3.056 14.151-3.938 17.12-5.337 27.333-12.87 7.41-5.47 12.072-10.14 13.175-13.206.94-2.613 3.918-5.616 5.432-7.786 5.433-7.787-2.257-17.527-2.257-17.527z"/></g><g><path fill="#e2e2e2" d="M892.168 1024.057c-12.243-12.895-17.47-16.115-33.499-20.653-6.318-1.786-14.566-4.303-18.336-5.594-3.764-1.286-10.3-2.175-14.529-1.97-5.207.255-11.423-1.387-19.342-5.101-6.414-3.015-12.416-5.229-13.338-4.922-.96.319-.628 3.734.782 7.975 1.861 5.596 1.905 9.942.188 17.713-7.512 33.958 11.288 86.131 39.836 110.555 4.53 3.878 9.237 8.457 10.457 10.18 1.22 1.723 3.53 3.904 5.135 4.841 1.602.944 5.898 4.56 9.547 8.03 3.647 3.477 13.515 10.3 21.936 15.171 8.42 4.863 15.604 9.077 15.97 9.348.366.278.897.041 1.18-.52.632-1.274-9.307-11.647-11.705-12.213-3.564-.848-25.869-24.744-29.708-31.832-2.19-4.042-6.256-11.55-9.037-16.69-5.223-9.645-10.946-33.677-9.028-37.894.482-1.061 4.411-2.895 8.731-4.084 4.316-1.188 9.034-3.402 10.477-4.929 4.126-4.352 6.83-16.419 4.95-22.072-2.417-7.266 1.054-7.573 11.646-1.038 9.017 5.56 16.583 12.929 18.164 17.685.65 1.951-.08 2.597-3.012 2.661-17.257.376-24.416 4.116-28.319 14.791-1.958 5.362-2.093 8.926-.508 13.692 4.081 12.273 15.2 16.73 29.706 11.907 8.366-2.782 11.92-8.287 13.127-20.33.738-7.376.813-7.46 3.531-4.197 2.417 2.893 14 25.532 15.735 30.754.915 2.752-1.923 3.178-8 1.194-12.376-4.039-27.562 11.802-23.38 24.376 2.26 6.794 9.477 13.395 15.84 14.486 4.418.762 14.327-2.879 20.7-7.606 2.758-2.044 3.301-1.788 4.594 2.164 3.047 9.309 2.338 11.521-4.74 14.792-6.082 2.814-20.489 18.773-19.536 21.642.188.562 2.51 3.88 5.162 7.37 4.595 6.055 10.344 8.821 22.578 10.86 3.048.512 4.272-.526 7.225-6.101 5.338-10.075 6.142-18.874 2.687-29.329-1.645-4.977-3.093-12.883-3.218-17.567-.41-15.612-8.059-44.868-17.048-65.238-9.957-22.549-19.595-37.562-33.6-52.307z"/></g><g><path fill="#e2e2e2" d="M150.551 837.354c-7.987 1.783-14.727 1.729-28.136-.231-17.623-2.575-22.044-4.312-47.76-18.742-12.596-7.065-15.602-5.214-3.79 2.327 4.14 2.645 11.78 8.082 16.977 12.077 9.081 6.983 25.296 15.194 41.475 20.992 13.255 4.755 52.59 8.825 65.375 6.766 25.118-4.045 41.637-15.586 37.994-26.54-3.29-9.895-19.886-10.757-54.703-2.844a9984.48 9984.48 0 0 1-27.432 6.195z"/></g><g><path fill="#e2e2e2" d="M788.832 1297.644c-5.566 1.85-11.803 8.026-11.975 11.867-.179 3.935 4.905 18.672 7.009 20.317.946.736 4.199 1.767 7.235 2.289 7.204 1.242 8.619.717 14.637-5.385 8.58-8.707 9.061-14.763 2.005-25.25-3.745-5.572-9.923-6.827-18.911-3.838z"/></g><g><path fill="#e2e2e2" d="M151.42 364.727c14.667.038 32.725-5.741 41.046-13.133 9.327-8.275 21.741-24.17 25.379-32.483 1.813-4.144 3.175-11.005 3.026-15.245-.146-4.247.062-10.947.469-14.898 1.103-10.796 1.12-29.175.031-34.687-.529-2.692-2.079-10.902-3.436-18.255-2.069-11.164-3.933-16.269-11.302-30.925-4.85-9.657-10.804-19.572-13.227-22.043-4.338-4.422-4.279-4.069 3.997 23.819 9.221 31.051 10.564 41.912 6.848 55.324-4.08 14.717-12.669 23.411-38.719 39.193-8.904 5.396-42.189 46.863-40.889 50.947.274.859 3.925 3.993 8.109 6.962 6.351 4.496 9.448 5.397 18.668 5.424z"/></g><g><path fill="#e2e2e2" d="M113.555 431.431c-2.006 2.575-5.58 5.332-7.936 6.121-2.656.894-4.011 2.282-3.555 3.65.406 1.223 7.94 6.102 16.744 10.855 12.908 6.967 17.178 8.446 22.053 7.645 3.322-.545 7.537-.723 9.362-.387 6.36 1.151 19.266-.882 38.23-6.03 10.495-2.848 19.325-5.11 19.62-5.032.297.08 2.76-1.785 5.467-4.145 2.713-2.364 5.923-4.25 7.132-4.194 1.21.056 4.69-2.508 7.732-5.697 3.048-3.185 7.254-6.89 9.355-8.22 6.79-4.312 15.684-23.374 24.077-51.604 4.508-15.179 9.016-34.442 10.019-42.807 2.844-23.83-.797-50.678-10.865-80.078-11.043-32.25-24.405-52.497-51.601-78.2-6.066-5.729-4.9-.748 1.567 6.706 7.043 8.114 16.01 22.163 22.205 34.795 2.618 5.328 6.596 12.98 8.84 17.003 6.042 10.83 12.037 41.594 12.309 63.191.43 34.357-6.252 51.783-27.83 72.574-16.38 15.784-22.807 19.533-52.812 30.827-12.714 4.783-26.497 10.271-30.628 12.195-10.451 4.86-25.142 15.237-29.485 20.832z"/></g><g><path fill="#e2e2e2" d="M558.134 925.236c1.039-.346.618-1.203-1.108-2.278-2.997-1.866-4.718-.657-2.136 1.503.873.728 2.332 1.079 3.244.775z"/></g><g><path fill="#e2e2e2" d="M610.395 885.176c-13.487 7.256-14.822 8.864-6.188 7.47 11.898-1.92 32.802-.178 40.454 3.368 3.887 1.802 12.709 4.554 19.605 6.12 6.897 1.565 18.455 4.944 25.689 7.508 19.133 6.788 39.739 10.52 49.307 8.934 4.53-.752 9.57-.848 11.195-.209 1.628.634 7.93.118 13.999-1.145 6.069-1.264 15.089-3.542 20.046-5.067 7.999-2.46 9.148-3.3 10.274-7.549 2.643-9.978-9.678-25.229-24.004-29.72-8.298-2.603-30.928-6.423-52.284-8.828-11.484-1.29-34.187-1.28-41.998.028-2.963.49-12.617 2.013-21.456 3.373-16.473 2.54-27.04 6.26-44.64 15.717z"/></g><g><path fill="#e2e2e2" d="M816.187 820.256c4.385-3.798 5.44-9.106 2.652-13.387-2.683-4.13-15.292-7.719-38.835-11.058-3.554-.51-11.14.146-16.854 1.455-5.716 1.307-16.732 3.251-24.483 4.32-18.69 2.577-47.757 13.504-58.573 22.017-7.242 5.695-22.673 15.257-35.229 21.825-7.478 3.916-10.633 7.137-9.709 9.912.974 2.932 4.335 2.682 20.113-1.493 17.267-4.562 33.726-7.189 40.533-6.46 2.964.306 14.063 1.64 24.657 2.945 10.6 1.305 20.012 2.125 20.924 1.822.908-.3 5.365-.529 9.908-.498 5.823.037 14.723-2.017 30.251-6.976 13.792-4.409 23.402-6.726 25.745-6.21 4.787 1.053 6.755.426 8.28-2.62.87-1.734.553-2.864-1.088-3.89-3.62-2.252-2.812-7.792 1.708-11.704z"/></g><g><path fill="#e2e2e2" d="M785.986 981.545c.002-4.226-6.52-9.668-18.766-15.652-6.785-3.322-12.503-6.53-12.703-7.132-.202-.607-10.95-6.525-23.88-13.154-15.262-7.823-27.42-12.79-34.62-14.154-6.107-1.154-12.446-2.614-14.09-3.243-3.181-1.222-19.562-4.273-33.728-6.289-4.746-.675-10.06-.75-11.806-.17-1.747.581-9.18 1.117-16.522 1.193-22.693.238-43.903 1.271-49.866 2.43l-5.702 1.103 5.932 2.377c3.26 1.308 11.979 2.893 19.38 3.526 7.393.63 16.163 2.041 19.473 3.13 3.318 1.095 6.743 1.751 7.616 1.46.874-.29 9.554 6.556 19.286 15.221 9.733 8.67 20.035 17.187 22.889 18.944 4.203 2.574 5.434 4.43 6.428 9.687 1.036 5.45 2.217 7.105 7.269 10.205 8.065 4.951 24.933 10.326 35.047 11.177 4.518.378 10.534 1.402 13.374 2.274 2.839.872 7.825 1.471 11.083 1.337 13.678-.57 24.29-7.313 25.858-16.424.453-2.625-.31-8.387-1.695-12.798-1.387-4.41-2.602-8.664-2.703-9.455-.18-1.433 20.109 8.507 28.169 13.798 2.814 1.85 4.274 2.06 4.277.61z"/></g></g></svg>