<svg xmlns="http://www.w3.org/2000/svg" width="867" height="1111" viewBox="0 0 867 1111"><g><g><path fill="#e2e2e2" d="M671.26 951.513c4.407-7.824 14.867-38.56 14.006-41.15-2.286-6.873-23.424 10.873-32.683 27.425-3.313 5.927-8.059 11.456-10.548 12.283-4.04 1.344-9.28 9.663-35.14 55.698-12.525 22.29-17.453 43.421-17.73 75.933-.123 14.979.722 18.926 5.17 24.066 8.334 9.617 17.356 4.884 30.226-15.84 13.616-21.924 21.613-45.446 30.536-89.843 3.133-15.562 11.163-39.718 16.163-48.572z"/></g><g><path fill="#e2e2e2" d="M391.415 943.467c1.166-1.393 22.115-9.936 46.554-18.982 35.904-13.282 47.555-16.645 60.701-17.499 19.158-1.242 23.04-2.282 21.852-5.855-.485-1.459-8.312-3.318-17.402-4.133-9.086-.825-18.912-1.924-21.824-2.447-2.918-.519-11.482-.114-19.02.902-7.545 1.02-15.981.948-18.752-.14-4.625-1.823-55.938 3.786-74.152 8.102-25.729 6.104-72.766 27.568-92.181 42.081-10.708 7.997-14.401 12.968-19.57 26.315-5.426 13.985-5.819 18.144-2.615 27.778 3.494 10.508 4.466 11.372 13.487 12.054 12.748.95 36.514-9.309 63.617-27.462a30896.625 30896.625 0 0 1 38.858-25.97c10.077-6.72 19.281-13.35 20.447-14.744z"/></g><g><path fill="#e2e2e2" d="M862.451 839.642c-3.51-10.555-9.946 2.813-20 41.565-3.353 12.924-7.943 24.839-10.203 26.482-2.26 1.644-3.698 6.255-3.208 10.259.5 4 .926 14.793.95 23.978.058 24.828 3.67 55.64 7.071 60.322 3.493 4.798 10.533 5.646 15.678 1.89 6.05-4.42 10.155-27.791 8.321-47.377-.949-10.201-1.21-21.958-.574-26.138.642-4.164.235-12.917-.902-19.436-2.314-13.318-2.272-14.648 1.538-45.32 1.501-12.108 2.097-23.916 1.33-26.225z"/></g><g><path fill="#e2e2e2" d="M745.048 897.345c-.908-2.73-3.401-2.802-9.11-.271-5.7 2.527-8.533 6.122-10.293 13.048-1.334 5.26-7.144 15.095-12.916 21.839-6.967 8.148-14.197 22.23-21.548 41.968-14.297 38.42-19.247 63.84-16.007 82.205 1.409 7.96 2.442 16.437 2.3 18.823-.463 7.753 9.159 11.935 19.503 8.495 8.245-2.742 10.402-5.296 16.293-19.211 3.736-8.824 7.043-22.407 7.345-30.175.302-7.768 2.369-22.89 4.604-33.595 2.226-10.712 4.967-26.05 6.075-34.076 1.11-8.045 4.799-22.641 8.196-32.46 6.163-17.783 7.929-29.46 5.558-36.59z"/></g><g><path fill="#e2e2e2" d="M810.534 884.7c-.62-1.865-.141-9.232 1.068-16.383 1.203-7.14 1.242-14.24.09-15.772-3.263-4.347-4.614-2.86-12.688 13.975-10.78 22.479-27.421 49.812-33.323 54.703-3.238 2.688-5.438 9.726-6.16 19.67-.606 8.519-2.626 19.353-4.488 24.07-11.796 30.052-6.51 71.12 11.43 88.797 9.664 9.522 17.285 8.678 24.837-2.767 5.832-8.852 9.09-48.663 5.794-70.924-3.08-20.8 1.663-62.603 8.999-79.311 3.062-6.97 5.058-14.202 4.44-16.058z"/></g><g><path fill="#e2e2e2" d="M138.183 242.147c-1.211-1.01-5.935-.6-10.498.918s-11.911 1.466-16.332-.131c-4.418-1.59-12.713-2.461-18.44-1.942-21.206 1.914-29.517 6.02-34.592 17.074-3.935 8.569-3.994 12.322-.341 23.306 3.87 11.64 7.138 15.473 29.666 34.787 13.918 11.945 28.724 23.457 32.894 25.58 4.172 2.12 20.646 11.094 36.617 19.914 15.967 8.827 35.93 19.543 44.37 23.797 29.897 15.104 41.734 24.857 78.103 64.346 12.103 13.13 21.706 28.096 32.019 49.86 12.572 26.524 18.389 35.991 21.485 34.935 4.39-1.494.24-16.654-24.571-89.65-26.84-78.993-33.704-96.482-40.275-102.718-2.45-2.314-8.01-11.06-12.35-19.424-12.145-23.392-34.561-43.852-69.618-63.505-20.62-11.57-32.723-16.702-38.08-16.135-4.318.458-8.846-.003-10.057-1.013z"/></g><g><path fill="#e2e2e2" d="M358.356 444.792c.264-17.623-4.16-46.77-10.213-67.37-2.88-9.776-6.81-26.654-8.742-37.516-6.393-35.978-18.044-78.386-24.678-89.816-3.477-6-9.221-18.506-12.766-27.811-11.61-30.43-32.486-54.781-62.056-72.395-12.554-7.477-23.401-11.018-44.144-14.413-15.136-2.478-32.821-3.502-39.311-2.28-15.114 2.852-15.694 3.349-19.442 16.465-3.005 10.529-2.772 11.699 5.336 26.858 10.32 19.31 26.828 37.872 38.367 43.13 4.72 2.158 9.03 5.299 9.59 6.983.566 1.7 7.116 7.77 14.554 13.493 7.443 5.729 20.57 17.488 29.17 26.124 8.606 8.635 21.189 20.496 27.973 26.359 6.783 5.862 12.493 11.153 12.696 11.762.202.609 6.247 7.01 13.438 14.227 7.188 7.21 15.43 17.352 18.318 22.516 2.88 5.176 10.277 17.15 16.427 26.602 9.935 15.289 12.09 20.802 19.418 49.796 9.47 37.44 15.749 48.115 16.065 27.286z"/></g><g><path fill="#e2e2e2" d="M429.032 266.139c.956 12.435-2.598 42.415-5.583 47.22-1.206 1.925-2.307 7.005-2.458 11.265-.374 10.963 4.154 8.4 5.987-3.385.818-5.254 4.335-16.768 7.804-25.59 3.47-8.82 7.658-20.87 9.303-26.788 1.637-5.916 6.098-17.692 9.9-26.165 4.307-9.61 6.125-17.795 4.825-21.704-1.152-3.464-.687-8.998 1.026-12.314 2.827-5.463 5.94-18.376 12.9-53.51 1.512-7.65.995-18.194-1.37-27.78-2.092-8.504-4.158-21.617-4.59-29.141-1.426-25.24-4.677-37.778-11.398-44.077-3.422-3.203-13.221-13.234-21.786-22.316-12.334-13.07-18.62-17.486-30.243-21.227-25.835-8.338-44.437 2.734-42.476 25.275 1.464 16.832 21.236 73.918 36.573 105.605 17.273 35.685 31.998 83.584 31.303 101.793-.267 6.985-.142 17.262.283 22.839z"/></g><g><path fill="#e2e2e2" d="M300.34 769.87c-8.293-.318-19.927-3.778-29.667-8.813-12.515-6.478-17.761-7.713-23.971-5.648-4.368 1.453-14.192 1.739-21.83.63-31.134-4.495-41.121-4.777-58.162-1.675-9.818 1.792-18.336 3.013-18.931 2.709-.59-.29-15.878 5.765-33.973 13.462-31.534 13.424-33.196 14.47-40.407 25.48-8.924 13.624-8.633 27.996.678 33.252 14.604 8.25 45.723 4.444 101.612-12.417 47.785-14.418 54.998-15.942 82.44-17.443 29.664-1.617 44.757-1.144 52.775 1.657 8.406 2.949 45.605 3.175 47.045.288 4.064-8.126-37.251-30.706-57.61-31.482z"/></g><g><path fill="#e2e2e2" d="M341.695 81.197c-8.219-7.836-15.413-15.66-15.984-17.375-1.245-3.744-35.939-17.696-49.258-19.816-5.17-.828-14.96-1.246-21.752-.93-12.669.593-22.757 4.727-25.765 10.554-4.147 8.059 16.24 48.08 39.925 78.376 9.527 12.184 51.524 58.415 55.5 61.094 3.664 2.472 14.01 18.629 22.89 35.742 3.791 7.316 8.943 15.8 11.445 18.867 2.502 3.067 9.983 21.164 16.628 40.206 10.206 29.286 12.13 37.569 12.446 53.63.44 22.346.786 23.833 5.28 22.339 4.266-1.42 3.677-38.52-1.22-76.251-1.14-8.821-1.469-18.745-.718-22.062 1.922-8.55 1.004-32.857-2.176-57.817-1.502-11.76-3.358-26.823-4.13-33.471-.833-7.166-6.843-25.632-14.787-45.455-12.794-31.908-14.04-34.013-28.324-47.631z"/></g><g><path fill="#e2e2e2" d="M376.926 772.706c-.97-4.71-6.12-11.186-14.928-18.73-7.402-6.342-15.217-14.08-17.362-17.195-2.155-3.12-8.144-8.027-13.305-10.91-10.242-5.709-34.42-27.774-36.157-32.993-1.972-5.929-60.928-32.918-98.542-45.1-9.554-3.096-48.294-5.713-61.394-4.154-4.424.534-14.245 1.167-21.829 1.42-18.425.608-33.532 7.65-48.48 22.593-6.804 6.793-14.504 13.858-17.112 15.68-4.99 3.495-7.363 14.75-4.764 22.567 2.014 6.054 37.268 24.012 43.244 22.025 2.543-.846 8.464-.155 13.16 1.532 9.16 3.296 19.481 3.173 44.632-.529 8.77-1.297 32.91-3.216 53.646-4.273 31.05-1.592 43.888-.707 72.75 5.005 38.48 7.624 70.68 21.131 94.16 39.504 13.15 10.287 13.688 10.446 12.281 3.558z"/></g><g><path fill="#e2e2e2" d="M15.817 379.292c-5.01-2.51-16.45 15.607-15.748 24.938.723 9.68 18.58 25.99 35.917 32.822 8.125 3.197 26.663 10.722 41.194 16.719 14.54 5.995 41.621 15.114 60.203 20.266 18.572 5.148 39.725 11.023 47.005 13.064 7.277 2.033 17.467 7.169 22.646 11.408 5.18 4.246 16.728 11.123 25.666 15.281 8.945 4.155 18.731 10.63 21.745 14.377 3.023 3.75 13.522 15.888 23.342 26.996 9.816 11.1 20.958 26.213 24.767 33.574 10.135 19.616 26.556 47.892 28.323 48.776 4.18 2.094-2.174-20.711-10.189-36.525-4.984-9.857-11.003-23.736-13.366-30.842-5.194-15.618-17.215-37.906-27.75-51.453-4.264-5.478-9.855-15.541-12.42-22.346-2.572-6.821-7.222-15.308-10.337-18.863-3.127-3.57-11.577-14.205-18.779-23.646-7.21-9.437-15.552-18.575-18.537-20.312-2.986-1.736-13.36-10.553-23.049-19.599-23.594-22.001-50.589-34.995-86.138-41.436-32.45-5.878-51.118-5.371-75.574 2.085-9.69 2.955-18.2 5.083-18.92 4.716z"/></g><g><path fill="#e2e2e2" d="M2.741 549.168l3.141 13.706 29.291 13.6c16.11 7.47 35.884 14.538 43.927 15.692 8.054 1.166 25.353 4.152 38.452 6.663 13.098 2.486 34.99 6.103 48.66 8.019 13.659 1.903 28.15 3.973 32.195 4.592 22.414 3.427 107.112 49.577 122.555 66.768 8.935 9.947 34.586 32.397 42.033 36.787 12.16 7.15 18.965 15.158 26.091 30.696 3.653 7.983 10.078 19.654 14.254 25.924 4.177 6.27 14.397 21.689 22.713 34.265 8.316 12.564 17.06 24.068 19.428 25.59 2.38 1.5 6.473 5.165 9.102 8.115 7.946 8.947 44.126 34.063 59.557 41.344 21.25 10.029 56.287 21.45 73.658 24.033 15.645 2.308 24.96 6.543 15.42 6.972-2.832.142-14.444 2.486-25.794 5.199-11.362 2.736-23.343 4.449-26.615 3.83-13.42-2.605-119.32 32.48-137.843 45.639-2.606 1.856-10.672 8.959-17.918 15.776-7.245 6.83-14.063 12.743-15.133 13.17-5.485 2.13-13.468 21.88-16.241 40.13-2.653 17.526-2.367 21.928 2.01 29.994 4.368 8.067 6.545 9.47 14.885 9.59 14.3.202 14.824-.18 62.592-45.71 9.804-9.352 20.845-21.427 24.533-26.817 9.839-14.444 27.185-27.566 59.915-45.365 40.26-21.903 43.509-19.262 12.98 10.553-28.922 28.256-38.702 43.913-48.315 77.345-11.695 40.712-5.521 57.285 16.407 44.056 20.57-12.41 58.94-61.51 100.937-129.147 9.399-15.146 19.655-30.48 22.808-34.098 6.044-6.947 6.412-9.755 1.475-10.921-7.27-1.725-3.664-5.116 4.77-4.497 19.06 1.404 103.71-30.184 129.563-48.375 18.572-13.052 73.907-70.731 91.955-95.846 1.976-2.76 4.32-6.008 6.807-9.46v-41.057c-.833-.38-1.56-1.415-2.13-3.141-.595-1.772.345-6.055 2.13-10.315v-98.57c-7.056-9.506-17.05-18.465-22.296-19.37-5.342-.928-6.96.298-10.934 8.281-5.663 11.397-3.914 37.417 4.688 69.398 9.304 34.61 10.077 43.2 6.448 71.741-3.712 29.172-8.02 37.798-29.22 58.44-21.261 20.703-23.38 19.144-19.774-14.537 2.07-19.334 1.535-24.735-4.164-41.856-5.08-15.276-7.983-20.582-12.98-23.783-15.835-10.136-19.762 17.323-7.721 54.003 5.342 16.299 6.377 23.938 5.235 38.88-1.202 15.61-2.76 19.892-9.732 26.745-4.581 4.485-14.04 10.613-21.047 13.6-11.076 4.735-13.79 4.902-21.082 1.237-12.397-6.198-20.714-20.368-32.623-55.573-11.505-33.98-15.36-39.226-26.14-35.644-8.399 2.796-17.477 28.018-14.562 40.427 1.261 5.306 3.284 14.967 4.533 21.45 1.594 8.365 5.08 15.456 12.004 24.415 13.076 16.93 11.553 19.512-14.17 23.842-24.77 4.188-28.767 3.212-36.452-8.828-3.558-5.568-8.412-10.208-10.803-10.315-3.843-.178-4.033-.892-1.701-6.198 1.45-3.296 1.534-13.41.202-22.487-3.7-25.067 1.975-41.593 21.14-61.604 44.045-45.96 51.362-57.132 49.767-75.93-.593-7.007-1.271-15.3-1.51-18.43-.297-3.854-3.557-7.387-10.077-10.945-15.966-8.661-21.094-8.483-34.645 1.178-27.328 19.488-34.883 27.34-42.022 43.699-3.89 8.935-6.746 17.276-6.317 18.537.416 1.273-2.06 8.53-5.485 16.168-7.662 16.99-7.115 31.184 2.225 58 3.914 11.196 7.412 23.878 7.769 28.16.357 4.296 5.282 16.789 10.922 27.746 5.65 10.97 9.756 20.952 9.137 22.189-1.333 2.665-35.526-.773-41.118-4.128-2.141-1.273-5.461-1.833-7.388-1.238-5.58 1.713-52.396-21.642-63.592-31.743-5.593-5.033-15.087-15.05-21.107-22.248s-13.849-15.312-17.394-18.049c-12.445-9.625-29.72-40.26-39.844-70.694-10.327-31.064-14.384-60.154-15.24-109.135-.131-7.056-.69-14.23-1.261-15.93-.977-2.952 3.973-49.114 7.28-67.924 2.582-14.61 17.251-66.102 23.414-82.15 11.434-29.816 44.413-72.802 59.773-77.918 3.462-1.142 12.373-7.067 19.821-13.146 28.65-23.426 45.604-31.29 98.215-45.556 49.707-13.468 61.355-15.3 79.474-12.456 8.9 1.392 22.534 3.32 30.303 4.283 7.769.964 16.906 3.962 20.309 6.674 3.415 2.69 13.396 8.638 22.213 13.195 12.028 6.222 16.692 10.231 18.702 16.085 1.488 4.271 6.675 13.98 11.553 21.558 4.878 7.58 12.647 20.047 17.263 27.71 20.404 33.824 26.222 39.653 52.289 52.324 3.177 1.547 5.687 2.677 7.722 3.415v-94.859c-2.63-5.437-5.878-11.695-9.935-19.345-6.686-12.587-30.53-36.192-50.088-49.576-8.697-5.949-16.073-11.636-16.407-12.659-.345-1.023 8.03-6.972 18.596-13.218 29.589-17.49 30.565-18.18 33.884-23.819 5.485-9.28.476-17.216-11.41-18.108-18.215-1.368-35.275 3.998-61.545 19.357-24.95 14.563-43.128 21.071-46.436 16.597-1.106-1.487 4.557-6.65 13.718-12.54 36.894-23.699 58.178-43.996 59.713-56.953 2.285-19.262-11.41-27.435-33.598-20.059-14.586 4.854-27.317 15.526-67.768 56.751-10.672 10.886-23.57 22.998-28.673 26.936-11.957 9.208-25.187 13.777-26.698 9.22-1.332-4.009 11.815-22.426 17.31-24.259 2.059-.69 4.51-2.546 5.438-4.128 1.726-2.915 36.252-32.04 39.13-32.992.846-.285 5.307-5.496 9.9-11.576 24.865-32.908 29.196-72.538 9.006-82.65-18.5-9.258-31.73 3.378-58.274 55.643-27.46 54.062-51.04 96.06-57.69 102.758-5.45 5.51-46.615 23.224-49.981 21.546-3.07-1.534 4.889-16.347 12.242-22.77 3.748-3.26 8.257-10.435 10.03-15.92 1.783-5.485 7.65-14.444 13.062-19.916 5.401-5.485 10.34-12.957 10.958-16.609 1.403-8.257 3.89-12.029 19.214-29.173 21.736-24.318 37.988-69.29 35.787-98.915-1.047-14.039-10.23-36.049-17.56-42.129-2.772-2.296-8.602-4.414-12.968-4.735-20-1.44-31.303 22.974-36.787 79.392-1.154 11.885-3.51 31.48-5.235 43.544-1.725 12.076-3.082 25.068-3.01 28.875.19 9.233-13.575 51.695-25.282 78.036l-9.41 21.177-21.69 9.054c-11.945 4.973-24.545 10.898-28.019 13.158-3.866 2.535-6.615 3.13-7.15 1.535-.976-2.938 25.401-55.739 46.828-93.775 7.841-13.885 16.752-33.159 19.833-42.819 3.058-9.66 7.377-20.666 9.566-24.46 2.201-3.808 3.985-11.923 3.962-18.05-.024-6.115.737-14.372 1.677-18.322 7.888-33.122-4.58-68.422-31.219-88.445-16.692-12.54-41.462-13.17-46.15-1.166-7.269 18.548-6.674 46.007 2.915 133.477 2.344 21.415 3.63 40.57 2.855 42.57-.773 1.998-1.39 11.16-1.356 20.344.06 14.717-2.82 30.54-11.255 61.914-12.635 46.971-14.122 49.814-38.976 75.216-18.738 19.143-42.033 55.275-47.233 73.24-2.165 7.507-4.83 13.944-5.9 14.301-1.094.357-3.938 7.27-6.341 15.348-2.392 8.09-8.246 22.89-13.005 32.896-5.758 12.147-8.4 22.034-7.912 29.684.417 6.306-.928 15.693-2.986 20.844-3.748 9.424-6.84 33.826-5.009 39.37.547 1.642-.452 8.09-2.225 14.325-1.76 6.258-2.439 17.739-1.487 25.53.952 7.806 2.986 25.057 4.533 38.335 2.332 20.01 5.068 33.289 13.337 64.555.274 1.059-.57 2.285-1.892 2.725-3.129 1.035-18.762-16.264-24.782-27.424-2.594-4.818-7.126-10.743-10.053-13.158-2.927-2.427-5.806-5.83-6.389-7.58-1.047-3.152-15.61-21.414-26.888-33.716-3.237-3.534-10.339-13.706-15.812-22.63-5.46-8.91-13.67-20.605-18.227-25.995-4.545-5.378-9.934-12.576-11.957-16.002-2.023-3.415-11.184-10.398-20.345-15.526-9.16-5.14-20.487-13.123-25.187-17.763-13.194-13.052-47.244-26.115-93.37-35.823-24.569-5.176-26.199-5.14-45.639 1.082-11.077 3.546-24.223 6.853-29.208 7.34-14.05 1.369-34.479 12.208-39.82 21.119C.67 533.69.313 538.604 2.74 549.169z"/></g><g><path fill="#e2e2e2" d="M144.083 913.67c3.129 14.313 4.676 17.55 9.804 20.452 3.355 1.88 7.947 2.807 10.219 2.058 2.273-.75 5.628-.619 7.46.297 2.177 1.095 13.884-2.772 34.384-11.374 21.213-8.899 39.535-14.895 57.714-18.893 14.646-3.224 38.298-9.779 52.539-14.586 28.019-9.41 47.185-11.695 88.434-10.517 50.873 1.44 59.261.607 57.155-5.71-2.022-6.069-48.886-24.736-56.084-22.344-2.178.725-7.127-1.38-11.005-4.664-7.484-6.353-40.725-16.3-62.391-18.679-7.162-.774-19.107-2.392-26.543-3.558-28.53-4.532-64.579-2.593-91.467 4.914-22.748 6.33-27.519 8.578-43.938 20.69-11.909 8.792-19.404 16.3-21.177 21.225-1.511 4.2-6.299 9.028-8.733 12.516-8.732 12.516 3.629 28.173 3.629 28.173z"/></g><g><path fill="#e2e2e2" d="M623.585 524.771c-23.576-.06-52.604 9.227-65.98 21.11-14.992 13.302-34.947 38.852-40.796 52.216-2.914 6.66-5.103 17.689-4.863 24.506.234 6.828-.1 17.595-.754 23.946-1.774 17.355-1.8 46.898-.05 55.76.85 4.326 3.342 17.523 5.523 29.344 3.325 17.945 6.322 26.15 18.168 49.709 7.796 15.523 17.367 31.462 21.261 35.434 6.973 7.106 6.88 6.54-6.425-38.289-14.822-49.913-16.98-67.37-11.007-88.93 6.558-23.658 20.365-37.632 62.24-63 14.312-8.677 67.815-75.332 65.726-81.898-.44-1.379-6.31-6.418-13.035-11.19-10.209-7.228-15.187-8.674-30.008-8.718z"/></g><g><path fill="#e2e2e2" d="M684.452 417.547c3.224-4.139 8.968-8.57 12.756-9.839 4.27-1.437 6.447-3.669 5.716-5.869-.654-1.965-12.766-9.807-26.916-17.447-20.748-11.199-27.612-13.578-35.45-12.289-5.34.876-12.114 1.162-15.05.621-10.222-1.85-30.968 1.42-61.451 9.692-16.87 4.58-31.064 8.217-31.54 8.09-.476-.128-4.435 2.87-8.787 6.664-4.36 3.798-9.52 6.831-11.464 6.741-1.945-.09-7.54 4.032-12.428 9.158-4.9 5.12-11.66 11.076-15.04 13.214-10.914 6.93-25.21 37.571-38.7 82.951-7.247 24.398-14.494 55.364-16.105 68.808-4.572 38.306 1.28 81.464 17.464 128.723 17.75 51.841 39.229 84.386 82.946 125.704 9.75 9.207 7.877 1.202-2.52-10.78-11.32-13.044-25.734-35.627-35.692-55.933-4.21-8.564-10.603-20.863-14.21-27.33-9.712-17.408-19.348-66.86-19.786-101.578-.692-55.227 10.049-83.24 44.733-116.658 26.33-25.373 36.663-31.399 84.896-49.552 20.436-7.689 42.592-16.512 49.232-19.604 16.8-7.813 40.415-24.494 47.396-33.487z"/></g></g></svg>