<svg xmlns="http://www.w3.org/2000/svg" width="106" height="86" viewBox="0 0 106 86"><g><g><path fill="#121a24" d="M105.166 36.487c.034 6.521.043 13.042-.003 19.562-.017 2.364-1.927 4.102-4.419 4.15-2.105.04-4.217.106-6.316-.015-2.487-.144-4.518.726-6.51 2.135-1.396.987-2.029 2.013-1.868 3.75.175 1.885.051 3.8.037 5.701-.027 3.662-2.333 5.95-6.019 5.952-15.792.005-31.585.007-47.377-.014-.787-.001-1.262.208-1.73.886-3.9 5.642-10.787 8.251-17.445 6.673-6.502-1.541-11.49-7.003-12.494-13.67-.029-.192-.12-.374-.184-.561v-3.669c.17-.757.317-1.519.513-2.27 1.015-3.894 3.16-7.03 6.425-9.371.578-.414.75-.844.747-1.512-.018-4.233-.015-25.607-.012-35.448-.005-.539 0-1.078.001-1.617v-.607c-.004-3.493-.013-6.985.003-10.477.017-3.689 2.3-5.957 5.99-5.958 21.871-.004 43.743-.004 65.614 0 3.68.001 5.956 2.276 5.967 5.978.015 5.23.022 10.461-.014 15.691-.006.888.253 1.431.962 2.028 1.658 1.394 3.17 2.963 4.733 4.469.66.636 1.288 1.305 1.953 1.937 1.57 1.492 3.372 2.341 5.613 2.139a8.64 8.64 0 0 1 2.527.141c1.926.406 3.296 2.037 3.306 3.997zM40.738 18.501c1.851-1.155 3.548-2.192 5.222-3.267.9-.579 1.76-.613 2.655-.021.451.299.922.57 1.381.857l3.848 2.407V4.267H40.738zM17.28 81.638c6.925.033 12.537-5.504 12.583-12.414.045-6.893-5.549-12.521-12.458-12.533-6.849-.012-12.468 5.569-12.489 12.407-.02 6.854 5.554 12.508 12.364 12.54zm64.733-10.242c.003-1.828.001-3.656.001-5.367-9.143 0-18.193.009-27.243-.004-3.466-.005-5.945-2.078-6.349-5.345-.102-.825.054-1.681.091-2.53-4.56-1.413-5.74-3.162-5.343-7.953-4.442-.899-6.499-2.892-6.428-6.225.071-3.307 2.172-5.281 6.363-6.025 0-1.016-.149-2.046.028-3.017.525-2.876 2.98-4.834 5.96-4.846 4.686-.019 9.373-.005 14.06-.005h1.172c-.312-.88-.682-1.679-.878-2.518-.867-3.696 1.177-6.38 4.965-6.43 4.478-.061 8.957-.015 13.603-.015v-.805c0-4.687.003-9.373-.002-14.06-.002-1.618-.449-2.068-2.042-2.068-6.996-.003-13.992-.002-20.989 0-.298 0-.596.028-1.007.049v1.246c0 5.367-.007 10.733.006 16.099.002.958-.08 1.855-1.022 2.379-.967.539-1.805.177-2.654-.367-2.056-1.32-4.158-2.568-6.199-3.909-.616-.405-1.043-.353-1.624.022-2.109 1.362-4.256 2.666-6.376 4.012-.766.486-1.544.717-2.394.279-.908-.469-1.093-1.294-1.09-2.237.011-5.434.004-10.868.004-16.302V4.181h-1.134c-6.928 0-13.857-.001-20.785.001-1.676 0-2.115.431-2.117 2.097-.004 3.464-.002 6.927-.004 10.391.006 7.548.002 31.562.002 35.385v1.201c6.24-1.518 11.784-.38 16.354 4.09 4.576 4.476 5.843 10.001 4.445 16.302h46.335c1.88 0 2.288-.402 2.291-2.252zm19.033-34.991c-.493 0-.925.011-1.356-.002-.983-.029-1.978.019-2.945-.123-2.685-.394-4.715-1.982-6.575-3.817-1.57-1.55-3.078-3.166-4.675-4.687-1.453-1.383-3.14-2.488-5.2-2.538-3.97-.096-7.946-.052-11.919-.031-.968.005-1.19.362-.99 1.305.438 2.062 2.134 3.508 4.271 3.55 2.207.043 4.415.015 6.622.017 1.953.001 2.892.682 2.867 2.079-.025 1.359-.93 1.996-2.845 1.996l-28.629.001c-1.7 0-2.565.644-2.584 1.914-.02 1.303.864 1.974 2.618 1.975 2.75.003 5.501.001 8.252.001 1.02 0 2.038-.021 3.056.007 1.287.036 2.198.927 2.174 2.077-.023 1.132-.888 1.935-2.148 1.987-.305.012-.61.005-.917.005h-16.3c-.239 0-.476-.003-.714.001-1.364.024-2.275.797-2.286 1.938-.01 1.156.872 1.938 2.257 1.941 5.74.009 11.48.004 17.218.004 1.9.001 2.915.736 2.891 2.089-.023 1.327-.97 1.986-2.86 1.987H49.936c-.27 0-.544-.011-.814.006-1.247.078-2.037.846-2.034 1.963.004 1.121.794 1.913 2.05 1.921 3.87.026 7.742.003 11.613.018 1.491.006 2.423.805 2.436 2.025.014 1.23-.904 2.029-2.398 2.042-1.867.016-3.735.003-5.603.005-1.802.002-2.773.707-2.746 1.99.025 1.254.943 1.901 2.714 1.902 6.928.001 13.856.022 20.784-.006 5.695-.024 5.138.561 10.156-3.291.161-.124.331-.236.498-.352 2.124-1.476 4.446-2.263 7.065-2.184 2.103.063 4.211.016 6.316.01.36-.001.717-.04 1.072-.061z"/></g><g><path fill="#121a24" d="M23.588 63.764c-.916-.749-2.058-.594-2.965.41-.273.301-.527.62-.789.932l-4.182 4.987c-.4-.333-.712-.593-1.024-.85-.314-.26-.613-.542-.946-.772-.916-.63-2.078-.48-2.752.331-.696.837-.677 1.98.165 2.753a65.533 65.533 0 0 0 3.568 3.027c.845.671 1.912.57 2.68-.192.408-.404.757-.868 1.127-1.31 1.743-2.08 3.495-4.153 5.222-6.245.88-1.065.817-2.319-.104-3.07z"/></g></g></svg>