<svg xmlns="http://www.w3.org/2000/svg" width="44" height="44" viewBox="0 0 44 44"><g><g><path fill="#121a24" d="M32.33-.002c6.026 0 10.928 4.903 10.928 10.915v21.445c0 6.025-4.902 10.914-10.927 10.914H10.899C4.874 43.272-.03 38.383-.03 32.358V10.913C-.03 4.901 4.874-.002 10.899-.002zm6.204 10.915A6.207 6.207 0 0 0 32.33 4.71H10.899a6.207 6.207 0 0 0-6.203 6.204v21.445a6.207 6.207 0 0 0 6.203 6.203H32.33a6.207 6.207 0 0 0 6.203-6.203z"/></g><g><path fill="#121a24" d="M33.124 7.517a2.645 2.645 0 0 0-2.643 2.643 2.633 2.633 0 0 0 2.643 2.629 2.63 2.63 0 0 0 2.63-2.63 2.642 2.642 0 0 0-2.63-2.642z"/></g><g><path fill="#121a24" d="M21.608 10.501c6.149 0 11.147 4.985 11.147 11.134 0 6.15-4.999 11.147-11.148 11.147-6.134 0-11.132-4.998-11.132-11.147s4.998-11.134 11.133-11.134zm0 17.57c3.547 0 6.437-2.889 6.437-6.436s-2.89-6.436-6.437-6.436c-3.533 0-6.436 2.89-6.436 6.436 0 3.547 2.903 6.436 6.436 6.436z"/></g></g></svg>