<svg xmlns="http://www.w3.org/2000/svg" width="109" height="103" viewBox="0 0 109 103"><g><g><path fill="#121a24" d="M105.923 89.02c1.776.015 2.488.722 2.502 2.504.01 1.266.027 2.535-.02 3.8-.15 3.964-3.249 7.078-7.224 7.287-.526.028-1.055.032-1.583.032-11.684.002-23.369.002-35.054 0-.1 0-.195-.002-.29-.006-16.08-.018-44.946-.063-54.402.054-4.574.058-8.03-1.491-9.4-6.453v-5.702c.55-1.152 1.45-1.618 2.726-1.532 1.085.073 2.178.015 3.41.015-1.548-3.208-.964-6.554-.975-9.822-.052-14.888-.028-29.776-.02-44.664.003-4.254 2.291-7.477 6.07-8.486.902-.241 1.873-.32 2.813-.32 14.36-.02 28.72-.014 43.08-.014h1.2c.276-1.945.428-3.835.826-5.673C62.062 8.582 72.527.456 84.382.725c11.751.267 21.838 8.919 23.8 20.426 1.176 6.895-.292 13.19-4.276 18.932a3.394 3.394 0 0 0-.582 1.813c-.032 13.655-.03 27.31-.019 40.967.002 2.044.064 4.086-1.065 6.157 1.345 0 2.514-.008 3.683 0zM64.091 19.5c-2.582 7.874.09 16.47 6.485 21.82.826.69 1.23 1.478 1.21 2.548-.033 1.684-.009 3.368-.009 5.29 1.832-1.125 3.458-2.091 5.047-3.114.8-.515 1.606-.625 2.511-.417 3.036.695 6.068.619 9.092-.095 10.477-2.474 17.447-12.848 15.676-23.331-1.832-10.844-11.82-18.533-22.634-17.125C72.75 6.21 66.834 11.135 64.091 19.5zM63.07 39.17c-.457-.597-.856-.858-1.613-.856-13.832.023-27.664.017-41.495.017h-1.08v41.532H89.92v-30.14c-1.809.212-3.549.549-5.295.583-1.783.034-3.57-.255-5.359-.341-.414-.02-.892.125-1.253.34-2.323 1.39-4.615 2.834-6.932 4.235-1.868 1.13-3.504.232-3.523-1.938a340.21 340.21 0 0 1 .007-7.285c.008-.68-.21-1.14-.685-1.651a61.375 61.375 0 0 1-3.81-4.496zM9.815 84.084c0 .28-.008.563.006.844.12 2.396 1.717 3.986 4.11 4.086.351.015.703.005 1.055.005l79.408-.001c2.967 0 4.676-1.582 4.678-4.362.008-12.882.004-25.765 0-38.648 0-.252-.054-.504-.082-.755-1.342.817-2.566 1.652-3.875 2.323-.708.363-.916.762-.914 1.53.026 10.7.018 21.4.018 32.102 0 2.297-.662 2.965-2.946 2.965H17.567c-2.314 0-2.965-.645-2.965-2.937v-44.14c0-2.405.582-2.99 2.984-2.99h42.796l-1.117-4.17h-44.51c-3.467 0-4.94 1.473-4.94 4.94v49.208zm94.238 11.877c.2-.83.13-1.724.186-2.656H4.477c.25 1.219.293 2.439.763 3.463.592 1.29 1.88 1.669 3.287 1.66 3.907-.024 7.814-.008 11.72-.008 6.371 0 30.524-.001 44.225.002l.057-.001c11.861-.001 23.722 0 35.583-.002 2.157 0 3.548-.817 3.941-2.458z"/></g><g><path fill="#121a24" d="M33.558 51.567c.248.668.566.906 1.289.9 4.467-.035 8.935-.032 13.402-.002.679.005.983-.242 1.225-.85.91-2.283 1.867-4.547 2.82-6.813.624-1.48 1.765-2.05 2.975-1.517 1.168.515 1.519 1.684.92 3.15-.793 1.938-1.603 3.87-2.492 6.015 1.416 0 2.573-.01 3.73.002 1.583.018 2.522.779 2.556 2.05.033 1.248-.87 2.048-2.456 2.176-.105.008-.21.026-.441.056-.428 2.374-.865 4.78-1.295 7.19-.297 1.66-.57 3.325-.882 4.982-.56 2.958-2.933 4.925-5.972 4.934-4.82.013-9.638.01-14.458 0-3.21-.005-5.55-1.975-6.114-5.143-.66-3.701-1.306-7.404-1.963-11.105-.048-.273-.133-.54-.21-.847-.397-.05-.778-.072-1.148-.15-1.041-.215-1.743-1.095-1.708-2.106.036-1.06.829-1.943 1.936-1.997 1.288-.063 2.58-.015 4.097-.015-.513-1.327-.947-2.455-1.384-3.582-.356-.916-.737-1.824-1.07-2.748-.465-1.29.005-2.461 1.126-2.897 1.149-.446 2.28.07 2.798 1.349.934 2.312 1.854 4.63 2.719 6.968zm-2.882 5.177c-.023.152-.065.256-.05.349.654 3.74 1.29 7.483 1.986 11.214.159.852.812 1.31 1.693 1.312 4.892.009 9.784.009 14.676 0 .874 0 1.546-.425 1.708-1.286.723-3.83 1.39-7.67 2.092-11.59z"/></g><g><path fill="#121a24" d="M65.096 69.621c-1.555.005-2.51.79-2.54 2.062-.032 1.307.96 2.157 2.55 2.158 5.624.005 11.25.006 16.874 0 1.565 0 2.505-.776 2.533-2.062.03-1.335-.922-2.153-2.542-2.157-2.777-.008-5.555-.002-8.332-.002-2.848 0-5.695-.005-8.543.002z"/></g><g><path fill="#121a24" d="M64.77 64.8c1.44.024 2.88.005 4.32.006 1.475 0 2.95.019 4.425-.006 1.27-.022 2.111-.812 2.164-1.966.056-1.216-.733-2.186-2.034-2.213-3.019-.063-6.04-.06-9.059.005-1.228.026-2.054 1.008-2.033 2.132.023 1.182.907 2.02 2.217 2.042z"/></g><g><path fill="#121a24" d="M74.8 36.52c-1.96-.005-2.657-.699-2.66-2.685a5483.62 5483.62 0 0 1 .001-17.208c.003-1.893.733-2.63 2.617-2.634a4778.98 4778.98 0 0 1 18.159 0c1.887.004 2.587.74 2.589 2.647.003 5.771.004 11.542-.001 17.313-.001 1.842-.714 2.56-2.547 2.565-3.026.01-6.053.002-9.079.002-3.026.001-6.053.005-9.079 0zm1.624-4.295h14.814V18.323h-5.165c0 .633.017 1.158-.004 1.681-.055 1.395-.882 2.297-2.09 2.301-1.2.005-2.052-.902-2.118-2.287-.028-.578-.005-1.158-.005-1.713h-5.432z"/></g><g><path fill="#121a24" d="M45.592 67.45a2.048 2.048 0 0 0 2.002-1.927c.062-.8.012-1.612.012-2.418h-.007c0-.84.056-1.687-.014-2.522-.09-1.063-.92-1.796-1.955-1.85-1.057-.055-2.063.665-2.13 1.761a45.304 45.304 0 0 0-.006 5.146c.06 1.098 1.054 1.845 2.098 1.81z"/></g><g><path fill="#121a24" d="M37.933 67.45c1.087-.037 1.962-.891 2.021-2.031.04-.77.008-1.544.009-2.315.001-.772.03-1.545-.006-2.315-.054-1.161-.891-2.002-1.99-2.057-1.045-.052-2.075.674-2.145 1.763a42.323 42.323 0 0 0-.008 5.149c.063 1.082 1.091 1.84 2.119 1.806z"/></g></g></svg>