<svg xmlns="http://www.w3.org/2000/svg" width="369" height="325" viewBox="0 0 369 325"><g><g><path fill="#f4f4f4" d="M56.822 284.522c.706 2.073 1.172 4.13 1.381 6.154.21 2.072.321 3.855.321 5.413 0 1.463-.064 3.198-.289 5.157-.176 1.96-.61 3.985-1.285 6.09-.707 2.088-1.67 4.16-2.876 6.217-1.237 2.024-2.956 3.887-5.125 5.478-2.168 1.607-4.835 2.924-8 3.92s-6.973 1.494-11.423 1.494c-4.482 0-8.289-.497-11.486-1.493-3.197-.996-5.864-2.313-8.033-3.92-2.185-1.591-3.888-3.454-5.173-5.478-1.237-2.057-2.233-4.13-2.908-6.218-.675-2.105-1.108-4.13-1.317-6.09-.177-1.959-.289-3.694-.289-5.157 0-1.493.112-3.197.29-5.189a31.3 31.3 0 0 1 1.284-6.088 27.308 27.308 0 0 1 2.843-6.186c1.318-2.072 2.99-3.887 5.126-5.526 2.12-1.59 4.755-2.876 7.888-3.872 3.164-.996 6.94-1.494 11.39-1.494h.08c2.442 0 4.707.145 6.78.45 1.638.225 3.15.562 4.562.98 3.165.948 5.832 2.233 8.001 3.808 2.17 1.59 3.904 3.373 5.221 5.398 1.285 2.024 2.313 4.064 3.037 6.152zM46.427 303.85c.643-2.458.932-5.06.932-7.76 0-2.81-.289-5.413-.932-7.855-.61-2.458-1.607-4.563-2.988-6.378-1.43-1.816-3.309-3.197-5.655-4.226-2.345-1.044-5.237-1.542-8.643-1.542-3.277 0-6.009.498-8.258 1.542-2.233 1.03-4.048 2.41-5.446 4.226-1.382 1.815-2.378 3.92-3.02 6.378-.61 2.442-.916 5.044-.916 7.855 0 2.7.305 5.302.916 7.68.642 2.426 1.638 4.562 3.07 6.378 1.412 1.847 3.26 3.261 5.573 4.337 2.281 1.061 5.125 1.591 8.466 1.591 3.278 0 6.057-.53 8.371-1.59 2.265-1.077 4.112-2.49 5.542-4.274 1.381-1.783 2.378-3.952 2.988-6.362z"/></g><g><path fill="#f4f4f4" d="M145.535 284.667c.642 2.105 1.108 4.13 1.317 6.121.209 1.96.402 3.743.434 5.302 0 1.462-.081 3.197-.257 5.157-.145 1.96-.563 3.952-1.237 5.976a26.426 26.426 0 0 1-2.924 6.09c-1.286 2.023-2.988 3.84-5.125 5.397-2.137 1.574-4.803 2.843-8 3.807-3.165.964-7.005 1.43-11.455 1.43H92.455V268.2h26.299c4.273 0 7.936.466 10.989 1.382 3.1.932 5.687 2.17 7.79 3.743 2.106 1.526 3.777 3.31 5.046 5.302a26.947 26.947 0 0 1 2.956 6.04zm-10.25 19.07c.61-2.378.9-4.948.868-7.647-.081-2.81-.434-5.414-1.045-7.76-.626-2.409-1.622-4.45-3.02-6.185-1.382-1.75-3.277-3.1-5.575-4.129-2.313-.964-5.205-1.462-8.58-1.462h-14.345v39.023h14.7c3.277 0 6.089-.498 8.354-1.446 2.28-.996 4.16-2.394 5.59-4.128 1.43-1.784 2.427-3.889 3.053-6.266z"/></g><g><path fill="#f4f4f4" d="M181.3 323.963h11.15v-55.767H181.3z"/></g><g><path fill="#f4f4f4" d="M343.491 268.2h-11.353l-24.895 55.753h12.352l18.219-41.88 18.222 41.88h12.35z"/></g><g><path fill="#f4f4f4" d="M258.811 286.772l-5.029 9.029-5.012-8.932-11.23-18.668h-5.3l-.017-.016s0-.017-.032-.017h-.916s0 .017.016.017h-6.796c.13.24.29.465.45.707 3.374 5.783 6.924 11.454 10.667 16.948l12.515 19.825v18.282h11.134v-18.571l23.632-37.175h-13.029z"/></g><g><path fill="#f4f4f4" d="M159.775 38.938c1.148.88 3.395 1.735 4.513 1.717 1.07-.017 1.446.418 1.937 2.24.22.821.677 1.79 1.015 2.151.338.363.857 1.594 1.155 2.736.99 3.8 2.244 7.615 2.895 8.816.353.653 1.177 2.118 1.83 3.255.655 1.137 1.973 3.724 2.93 5.748 1.41 2.984 1.75 4.003 1.79 5.391.048 1.588.86 3.711 1.275 3.324.246-.23.643-5.759.79-11.033.087-3.024-.063-5.146-.496-7.018-.34-1.475-.714-2.785-.831-2.91-.116-.125-.18-.66-.142-1.192.084-1.166-1.401-4.168-3.38-6.829-3.105-4.179-2.95-3.802-2.607-6.306.494-3.607.482-5.645-.044-7.607-1.97-5.754-6.42-9.396-6.42-9.396-1.26-1.183-2.062-1.71-3.116-2.054-1.319-.429-1.514-.4-2.737.406-1.669 1.101-2.242 2.486-1.6 3.873.352.765.622.986 1.663 1.364 1.386.502 2.152.228 3.307-1.182l.731-.893.721.78c.396.426.762.996.813 1.264.1.523-.07.603-2.5 1.168-1.48.346-2.186 1.035-2.513 2.457-.28 1.22.108 3.462.716 4.125.67.73 2.242 1.136 3.513.91l1.261-.225-.159 1.48c-.087.813-.269 1.583-.405 1.71-.142.132-1.203-.46-2.504-1.4l-2.258-1.63-1.073-2.112c-.59-1.162-1.209-2.878-1.376-3.815-.547-3.062-.83-4.19-1.01-4.022-.097.09-.33.916-.517 1.831-.844 4.132.725 11.261 2.833 12.878z"/></g><g><path fill="#f4f4f4" d="M140.787 64.653c2.07 2.487 3.813 3.34 12.444 6.09 5.233 1.667 13.249 5.346 15.445 7.088.604.48 1.458.921 1.899.982.795.111.795.1-.024-1.283-.454-.768-1.545-2.243-2.424-3.278-2.284-2.69-3.185-4.009-3.26-4.77-.055-.553.014-.645.407-.55 1.279.31 4.879 4.361 6.155 6.926.544 1.093 2.47 2.77 3.137 2.73.58-.035.462-.64-.58-2.974-.386-.863-.76-1.908-.831-2.32-.167-.965-1.69-3.569-3.291-5.63-1.876-2.416-3.485-4.86-3.402-5.168.107-.39 5.274 5.501 6.376 7.27.509.818 1.135 1.631 1.39 1.806.585.401.13-.986-1.555-4.746-.656-1.463-1.52-3.784-1.92-5.158-.843-2.9-1.614-4.915-2.518-6.586a506.775 506.775 0 0 1-1.49-2.78c-.538-1.018-1.843-2.71-3.608-4.68-1.52-1.699-2.997-3.537-3.283-4.085-.286-.549-1.837-2.41-3.45-4.135-2.658-2.849-3.05-3.18-4.24-3.587l-1.311-.448.968 1.25c1.005 1.298 1.038 2.106.064 1.56-.677-.38-1.697-.005-2.813 1.037-.668.624-.844 1.082-.92 2.39-.082 1.372.025 1.746.712 2.481 1.407 1.506 4.214 1.11 5.113-.72.46-.94.477-.95.884-.515.474.507.998 3.93.652 4.252-.306.286-2.898-.287-4.47-.988-3.325-1.483-6.026-3.697-7.25-5.94-.452-.83-.51-.862-.58-.323-.113.85 1.545 4.77 2.67 6.32.962 1.321 4.198 3.73 5.58 4.15.858.262 2.885 1.34 4.044 2.15 1.416.991 3.472 1.817 4.383 1.761.95-.057 1.486.477 2.902 2.897 1.445 2.468 1.449 2.478 1.199 2.712-.122.114-.676-.286-1.26-.91-.571-.612-1.762-1.512-2.644-1.998a39.915 39.915 0 0 1-3.024-1.883c-.78-.549-1.797-1.057-2.261-1.127-.463-.073-.98-.277-1.147-.456-.58-.62-4.222-1.687-6.054-1.774-1.013-.047-2.945.072-4.293.266-3.683.528-4.351 1.404-3.518 4.612.184.712.105 1.147-.27 1.5-1.551 1.447-1.113 3.722 1.267 6.582z"/></g><g><path fill="#f4f4f4" d="M176.217 15.955c-1.035-1.108-1.343 8.134-.41 12.321.173.768.376 1.894.452 2.503.318 2.508 4.444 5.115 8.439 5.332 1.474.079 1.809.216 2.599 1.061.86.922 1.207 2.128 1.169 4.066-.004.273.097 1.026.227 1.675.243 1.213-.045 2.006-.388 1.069-.105-.285-.76-1.595-1.457-2.911-1.648-3.115-3.03-4.44-4.722-4.535-1.405-.078-1.634.092-2.178 1.611-.424 1.188-.5 2.895-.218 5.006.197 1.486 1.492 5.803 1.857 6.194.143.152.588 1.419.989 2.814.4 1.394.935 3.006 1.186 3.581.863 1.972 1.635 6.581 1.504 8.979-.115 2.115.382 4.354.969 4.374.319.011 1.554-3.812 1.913-5.92.185-1.088.558-2.186.83-2.44 1.075-1.008 1.75-10.321 1.19-16.384a813.921 813.921 0 0 1-.532-6.059c-.145-1.734-.4-4.025-.566-5.089-.167-1.064-.237-3.769-.156-6.012.104-2.859-.032-4.804-.453-6.51l-.602-2.434-4.01-4.183c-4.221-4.403-4.748-4.779-6.104-4.362-1.334.412-2.077 1.421-2.128 2.889-.054 1.596.425 2.263 1.93 2.682 1.46.408 2.272.124 3.329-1.163.489-.596 1.003-1.051 1.142-1.012.488.138 2.182 2.931 2.546 4.199.469 1.631 1.383 6.816 1.273 7.219-.045.168-.536.234-1.09.148-1.938-.302-3.32.476-3.941 2.218-.183.516-.453.933-.597.928-.572-.02-1.664-1.362-2.571-3.161-1.124-2.227-1.647-4.909-1.355-6.943.115-.8.086-1.589-.066-1.751z"/></g><g><path fill="#f4f4f4" d="M180.585 23.267c.989.033 1.433-.128 2.125-.775 2.093-1.955 1.73-4.804-.721-5.678-.49-.174-1.251-.27-1.692-.215-.568.072-1.075.406-1.742 1.151-1.288 1.438-1.323 2.74-.117 4.31.818 1.062 1.008 1.169 2.147 1.208z"/></g><g><path fill="#f4f4f4" d="M197.243 29.971c3.055 1.67 4.694 2.551 5.128 2.758.29.138.293 1.072.008 2.971a153.201 153.201 0 0 0-.577 4.215c-.282 2.487-.715 2.372-1.562-.41-.413-1.355-.926-2.65-1.142-2.882-.216-.23-.53-.76-.7-1.175-.36-.88-1.209-1.279-1.962-.92-1.373.652-2.846 5.63-2.773 9.365.025 1.26.025 2.936 0 3.724-.025.788.058 1.54.183 1.673s.248 1.09.273 2.128c.026 1.038.128 2.794.228 3.903.316 3.513-.313 8.233-1.303 9.76-.238.367-.433 1.1-.435 1.63-.002.9.023.936.401.575.223-.212.644-.963.937-1.669.293-.707.717-1.455.941-1.665.541-.505 2.304-4.183 3.275-6.829.427-1.167.92-2.254 1.095-2.418.491-.459 2.65-8.005 2.447-8.557-.046-.128.128-.937.388-1.797.447-1.478.902-4.624 1.086-7.512.132-2.075.782-4.387 1.636-5.823.435-.73.843-1.636.91-2.012.064-.377.45-.999.854-1.385 1.936-1.842 3.597-4.96 4.281-8.036.31-1.389-.192-5.022-.778-5.65-.155-.166-.639-1.45-1.075-2.857-1.493-4.809-4.615-9.402-6.373-9.375-.504.008-.968-.228-1.32-.67-.476-.596-.725-.635-1.948-.31-1.557.414-2.105.814-2.433 1.777-.444 1.304-.197 2.65.656 3.577.683.742 1.018.878 2.032.826 1.025-.054 1.343-.213 2.041-1.03.488-.572.853-1.349.888-1.896.08-1.217.552-1.072 1.683.517.91 1.277 2.243 4.857 2.484 6.666.174 1.301-1.046 6.752-1.532 6.85-.202.04-.572-.147-.824-.416-1.19-1.276-3.92-.763-5.317 1l-.835 1.051-1.364-1.702c-1.022-1.275-1.504-2.182-1.923-3.62-.309-1.055-.632-1.849-.72-1.766-.172.163-1.222 3.191-1.73 4.99-1.208 4.27-1.239 5.364-.208 7.373 1.61 3.137 1.766 3.297 4.98 5.053z"/></g><g><path fill="#f4f4f4" d="M203.841 11.676c-.11-1.096-.276-1.396-1.258-2.264-.96-.85-1.354-.998-2.608-.986-1.369.013-1.544.094-2.389 1.094-1.528 1.808-1.613 3.77-.227 5.253 2.474 2.649 6.848.558 6.482-3.097z"/></g><g><path fill="#f4f4f4" d="M225.37 5.86c.04.386.33.978.646 1.315.725.776 2.76.89 3.504.195.858-.802 1.139-.453 1.213 1.502.047 1.233.19 1.78.436 1.667.757-.347-.064-6.091-1.1-7.695-.543-.841-.676-.884-2.293-.74-.943.086-1.83.26-1.967.39-.622.58-1.127 1.979-.832 2.306.175.197.353.673.393 1.06z"/></g><g><path fill="#f4f4f4" d="M213.605 24.328c.075 1.44.797 2.477 3.604 5.176l2.395 2.304.082 2.084c.056 1.438-.198 2.975-.822 4.955-1.945 6.173-2.963 9.15-3.454 10.092-.281.54-.986 2.181-1.567 3.644a208.842 208.842 0 0 1-1.317 3.267c-.144.334-.32.832-.392 1.106-.164.633-3.944 8.548-4.83 10.114l-.664 1.176.872-.528c1.09-.659 5.868-5.553 5.792-5.932-.03-.154.415-.334.99-.4 1.093-.126 2.539-1.292 2.897-2.335.108-.31.73-.893 1.526-1.426 1.527-1.02 2.21-1.872 2.755-3.43.208-.596.676-1.818 1.039-2.716 1.305-3.23 1.473-6.488.362-7.03-.353-.17-2.358.386-3.713 1.033-1.044.5-.928-.449.54-4.41.368-.988.79-2.43.942-3.203.15-.775.367-1.494.48-1.6.113-.106.444-1.04.734-2.077.43-1.53.743-2.083 1.667-2.949 1.902-1.784 4.44-4.913 5.346-6.592.472-.875 1.132-2.774 1.467-4.22.623-2.684 1.107-8.677.7-8.69-.122-.005-.454.924-.737 2.064-.283 1.14-.643 2.367-.8 2.728-.158.36-.348.876-.424 1.146-.215.765-2.071 3.714-2.331 3.706-.128-.005-.354-.439-.502-.966-.341-1.212-1.17-2.1-2.571-2.759-.831-.39-1.492-.417-2.684-.109-.87.225-1.643.343-1.718.262-.193-.208.073-4.977.35-6.28.129-.6.404-1.25.61-1.445.392-.365 1.263-1.82 1.694-2.83h-.001c.162-.38-.08-.19-.69.537-5.936 7.093-6.735 8.266-7.613 11.165-.404 1.333-.525 2.46-.346 3.187.153.62.302 1.6.332 2.181z"/></g><g><path fill="#f4f4f4" d="M228.766 14.017c.594-1.409.436-2.154-.715-3.386-1.075-1.151-1.773-1.297-3.215-.672-1.443.627-1.629.799-2.012 1.876-.454 1.27-.22 2.32.74 3.349 1.641 1.756 4.215 1.179 5.202-1.167z"/></g><g><path fill="#f4f4f4" d="M210.003 37.723c-.555.193-1.154.578-1.33.856-.179.277-.7 1.029-1.16 1.67-1.083 1.509-2.077 4.438-2.28 6.712-.088.99-.32 2.247-.516 2.795-.197.547-.41 1.56-.477 2.255-.42 4.44-1.686 9.117-3.238 11.955-1.6 2.93-.924 3.819.881 1.156.597-.881 1.921-2.637 2.942-3.901 1.02-1.266 2.281-2.971 2.8-3.791.52-.82 1.43-1.943 2.021-2.497.888-.828 1.328-1.664 2.5-4.734.781-2.05 1.515-4.431 1.63-5.29.242-1.811-.335-4.397-1.179-5.28-.322-.336-.81-.981-1.085-1.434-.46-.757-.583-.795-1.509-.472z"/></g><g><path fill="#f4f4f4" d="M236.945 40.179c-.12.354-.065.995.125 1.424.372.844-.243 2.089-2.573 5.207-2.845 3.807-5.338 6.49-7.016 7.557-1.652 1.048-6.744 6.107-6.966 6.92-.055.203-2.68 2.754-5.834 5.67-3.154 2.915-5.66 5.38-5.57 5.478.176.188 2.344-.578 4.63-1.637.761-.353 1.827-.744 2.368-.866.54-.123 1.738-.522 2.662-.886.924-.365 1.925-.578 2.226-.477.3.103.871.003 1.267-.223.397-.225 1.702-.78 2.901-1.233 2.078-.785 2.288-.931 4.445-3.11 1.922-1.94 2.387-2.571 3.08-4.176 1.401-3.25 1.243-5.015-.543-6.057-.575-.336-1.04-.72-1.037-.852.005-.134.917-1.245 2.028-2.47 1.11-1.226 2.735-3.351 3.611-4.725.875-1.373 1.84-2.733 2.141-3.023.303-.29.605-.845.673-1.234.138-.794 1.758-2.142 4.478-3.723.85-.495 2.61-1.893 3.915-3.106 2.056-1.916 2.547-2.53 3.704-4.63.733-1.331 1.631-3.45 1.996-4.71.746-2.58 1.255-8.23.813-9.044-.34-.632-.4-.492-.84 1.985-.489 2.76-1.693 6.047-2.684 7.333-2.647 3.43-4.305 5.362-5.184 6.037l-.98.754-.053-1.754c-.064-2.15-.859-3.181-2.786-3.618-.694-.158-1.428-.465-1.63-.683-.205-.218-.28-1.553-.17-2.967.201-2.595.743-4.404 1.755-5.864.303-.438.415-.833.25-.878-.168-.045-1.15.709-2.186 1.677-3.086 2.882-5.774 7.102-6.518 10.229-.23.97-.405 1.984-.387 2.255.051.8 2.308 5.563 2.976 6.277.773.828 1.2 2.299.913 3.143z"/></g><g><path fill="#f4f4f4" d="M247.34 17.915c1.246.917 2.54.749 4.13-.534 1.26-1.018 1.375-1.202 1.436-2.285.055-1.003-.086-1.34-.949-2.264-1.066-1.141-2.89-1.762-3.955-1.346-1.264.494-1.818 1.365-1.836 2.878-.023 2.033.255 2.876 1.173 3.55z"/></g><g><path fill="#f4f4f4" d="M246.041 26.495c1.47-.422 2.636-1.439 3.08-2.683.413-1.162-.184-3.32-1.1-3.977-.974-.699-3.276-1.24-4.03-.949-1.056.407-1.673 1.11-2.216 2.515-1.209 3.13 1.18 5.98 4.266 5.094z"/></g><g><path fill="#f4f4f4" d="M249.945 47.684c-.23 1.236-.12 4.119.17 4.429.085.09-.126.679-.468 1.307-.473.868-.525 1.28-.216 1.723.224.32.42.778.435 1.018.02.293.25.403.704.339.372-.052 1.628.035 2.792.194 1.586.217 2.96.1 5.478-.461 1.85-.411 3.58-.95 3.846-1.194s.73-.513 1.031-.597c1.271-.355 3.58-2.301 6.632-5.595 3.514-3.791 4.193-4.77 5.074-7.296.336-.965.785-1.916.997-2.114.213-.2.447-.838.52-1.42.074-.583.243-1.374.377-1.756.278-.8.015-1.252-.466-.803-.183.172-.888.057-1.614-.262-1.02-.45-1.47-.47-2.167-.103-1.864.984-2.092 3.24-.535 5.288l.912 1.199-.856.997c-1.613 1.877-4.673 4.566-5.782 5.08-1.449.673-4.329 1.533-4.504 1.346-.076-.081.015-.664.201-1.295.602-2.045-.905-4.396-3.172-4.95-.682-.165-.777-.26-.672-.666.265-1.016 3.344-3.661 6.072-5.22 1.161-.66 2.332-1.41 2.603-1.663.906-.846-.479-.54-4.147.92-1.912.76-4.094 1.582-4.848 1.826-.755.245-1.817.734-2.36 1.088-2.375 1.548-5.567 6.116-6.037 8.64z"/></g><g><path fill="#f4f4f4" d="M243.97 62.114c1.138-1 2.476-2.1 2.974-2.445.503-.347.822-.715.717-.826-.186-.2-4.196 2.64-5.686 4.027-.818.763-1.985 1.098-3.983 1.143-1.478.033-2.632.46-4.14 1.53-1.125.8-2.976 1.924-6.205 3.77-2.222 1.27-8.324 4.815-8.883 5.162-.971.602-1.714 1.354-1.53 1.551.257.275 2.884-.09 4.78-.665.868-.265 1.929-.45 2.358-.414.428.036.896-.044 1.04-.179.144-.134 1.243-.222 2.44-.195 1.199.028 2.732-.123 3.406-.335.674-.212 1.737-.535 2.362-.716.624-.182 1.258-.446 1.408-.586.15-.14.594-.259.987-.265 1.095-.018 3.876-2.414 4.974-4.286 1.234-2.109 1.442-2.765 1.16-3.665-.243-.772-.21-.82 1.82-2.606z"/></g><g><path fill="#f4f4f4" d="M272.435 63.887c-.745.138-1.99.25-2.764.25-1.321 0-2.777.289-5.348 1.06-.608.182-1.893.978-2.92 1.807-1.007.814-2.097 1.496-2.42 1.515-.334.019-.755.295-.98.642-.255.397-.595.583-.977.535-.322-.042-.728.057-.903.22-.174.163-1.061.387-1.97.496-2.112.255-7.515 1.372-9.535 1.97-1.507.447-3.61 1.276-6.824 2.69-2.233.982-4.726 1.88-9.213 3.32-1.26.406-3.501 1.164-4.98 1.688-1.477.522-3.115 1.066-3.638 1.208-2.188.593-1.49.964 2.226 1.182 8.09.473 9.148.574 9.448.896.177.189 1.493.288 2.925.218 6.474-.318 7.072-.494 10.396-3.063 2.729-2.108 2.938-3.694.609-4.61-.58-.227-1.05-.517-1.045-.643.027-.812 11.775-3.472 12.713-2.88.247.157.973 1.02 1.612 1.92.987 1.387 1.493 1.846 3.334 3.022 3.185 2.034 4.507 2.424 7.706 2.269 3.302-.16 5.795-.656 8.354-1.665 3.565-1.405 7.644-3.69 7.28-4.077-.09-.096-1.494.314-3.121.91-1.627.599-3.524 1.145-4.216 1.215-.692.07-1.67.18-2.174.25-.943.126-3.64-.294-3.94-.614-.092-.1.354-.668.992-1.264.993-.928 1.179-1.277 1.294-2.437.17-1.732-.548-3.27-1.892-4.042-.533-.306-.966-.654-.962-.771.018-.538 6.646-1.567 7.083-1.1.087.094-.21.636-.661 1.206-1.043 1.313-1.225 2.827-.542 4.504.449 1.102.677 1.383 1.382 1.704 2.652 1.205 6.207-.701 6.025-3.23-.023-.324-.307-1.451-.631-2.503l-.588-1.912-1.171-.417c-1.167-.416-3.472-.901-6.835-1.438-.976-.155-2.384-.17-3.13-.031z"/></g><g><path fill="#f4f4f4" d="M266.785 38.265c-1.203.426-1.836 1.033-2.3 2.209-.45 1.141-.177 2.166.883 3.301.981 1.051 1.972 1.136 3.52.304 1.491-.802 1.861-1.403 1.783-2.9-.102-1.985-2.158-3.526-3.886-2.914z"/></g><g><path fill="#f4f4f4" d="M248.45 58.411c.234-.217.337-.491.228-.608-.11-.117-.39-.034-.623.184-.233.218-.335.492-.226.609.109.117.389.033.622-.185z"/></g><g><path fill="#f4f4f4" d="M278.038 90.238c1.923.486 2.573.475 2.096-.035-.507-.543-2.264-1.246-3.48-1.393-.62-.075-1.292-.314-1.495-.53-.204-.219-.523-.366-.712-.328-.188.037-1.183-.24-2.212-.618-4.601-1.69-9.295-1.626-12.395.17-.742.43-1.751.817-2.24.858-.49.041-1.072.245-1.294.452-.556.52-1.301.556-3.416.168-1-.184-3.061-.548-4.58-.81-1.518-.263-3.376-.743-4.127-1.066-1.352-.583-3.862-.747-11.307-.739-1.815.003-3.373.073-3.461.156-.09.083-2.093.257-4.453.387-5.55.306-6.168.708-2.437 1.584 1.119.263 2.16.607 2.313.764.153.157.91.396 1.683.53.772.133 2.09.585 2.929 1.001.839.418 1.964.848 2.5.957.536.11 1.507.51 2.157.887 1.464.851 7.287 1.406 8.909.85a41.089 41.089 0 0 1 2.276-.694c1.57-.42 3.52-1.854 3.623-2.664.084-.663-.114-.658 4.324-.114 1.049.128 2.05.388 2.228.577.177.19.369.981.428 1.76.172 2.317 2.729 6.12 4.548 6.76.486.17 1.25.7 1.695 1.176.62.663 1.186.925 2.416 1.12 2.835.448 6.613.037 10.574-1.15 1.923-.577 3.182-1.494 1.356-.988-.521.144-1.378.233-1.904.197-1.303-.089-5.076-1.504-5.653-2.12-.4-.429-.373-.553.187-.864 2.885-1.596 3.762-3.053 2.998-4.983-.248-.625-.317-1.259-.154-1.41.457-.429 4.15-.335 6.08.152z"/></g><g><path fill="#f4f4f4" d="M263.916 107.697c-6.113-2.421-7.588-2.705-10.192-1.962-1.995.569-3.656.34-6.84-.94-1.76-.706-1.848-1.04-.534-2.017.977-.727 1.042-.856.794-1.595-.214-.637-.607-1.048-1.881-1.968-2.384-1.72-4.16-2.295-8.595-2.782-5.996-.66-8.301-.956-10.502-1.352a98.671 98.671 0 0 0-4.462-.664c-1.356-.168-2.492-.204-2.525-.082-.075.275 1.332 1.154 3.074 1.92.716.316 1.566.856 1.889 1.2.322.346 1.126.824 1.787 1.063.66.24 1.382.63 1.603.866.22.237 1.063.755 1.869 1.15.807.397 1.65.918 1.877 1.16.775.829 2.95 1.797 5.96 2.652 1.657.472 4.175 1.35 5.596 1.955 1.42.603 3.13 1.22 3.8 1.373.67.152 1.667.539 2.219.86.975.57 1 .626.933 2.17-.038.872.2 2.508.53 3.634.576 1.97.656 2.094 2.068 3.214 1.358 1.077 3.82 2.38 6.109 3.232.52.195 2.357.554 4.08.8 2.313.33 3.445.326 4.327-.016 2.129-.828 2.037-1.103-.412-1.247-3.042-.18-3.743-.375-5.852-1.637-1.648-.986-2.844-2.258-2.461-2.615.087-.082.603-.12 1.145-.084 1.07.07 2.424-.634 2.923-1.521.537-.956.597-2.724.119-3.53-.252-.425-.315-.841-.14-.924.68-.322 5.992 1.846 5.545 2.263-.105.099-.867.445-1.694.77l-1.502.594-.524 1.4c-.988 2.635.39 4.36 3.568 4.469 1.688.057 1.864-.002 2.573-.87.468-.57.844-1.5.974-2.405.156-1.09.32-1.446.627-1.361.894.243.573-.665-.72-2.03-2.68-2.83-4.353-4.035-7.153-5.143z"/></g><g><path fill="#f4f4f4" d="M232.746 113.046c.148.16 1.406.737 2.795 1.286 2.317.914 2.761.973 5.356.714 1.556-.156 3.07-.399 3.362-.54 1.207-.582.742-1.949-1.467-4.314-1.327-1.42-1.799-1.748-3.245-2.252-.93-.324-2.29-.916-3.023-1.314-1.485-.809-5.557-2.34-7.375-2.773-.653-.156-2.744-.75-4.648-1.323-1.934-.582-4.228-1.035-5.199-1.029-.957.006-1.815.16-1.907.343-.19.38-.297.29 2.188 1.843 4.994 3.122 6.39 4.171 8.165 6.142 1.136 1.262 1.73 1.695 3.068 2.246.913.376 1.781.812 1.93.971z"/></g><g><path fill="#f4f4f4" d="M254.811 128.776c-2.789-3.232-5.297-5.468-7.464-6.654-1.377-.754-4.812-1.426-6.542-1.278-.929.078-1.223-.054-2.019-.906-2.362-2.528-7.858-6.646-8.797-6.59-.376.022-.45.092-.287.268.122.13.143.312.046.403-.097.09-1.039-.415-2.094-1.123-5.25-3.528-8.959-5.304-10.592-5.074-.434.062-.813.135-.842.162-.029.027.972 1.104 2.223 2.392 3.255 3.348 7.82 8.758 8.632 10.233.386.697 1.17 1.65 1.757 2.133 3.591 2.96 4.23 3.366 6.016 3.823 1.003.256 1.884.531 1.958.61.074.08.636.171 1.25.205l1.114.062.701 2.12c.65 1.967.846 2.27 2.674 4.17 3.634 3.773 4.498 4.443 5.91 4.591l1.275.134-1.163-.98c-1.394-1.174-3.543-3.96-3.26-4.225.111-.104.79-.13 1.507-.059 1.603.16 2.508-.3 2.931-1.489.302-.845.314-2.36.027-3.14-.446-1.208 5.066 1.605 6.41 3.271.962 1.192.778 1.721-.41 1.181-1.106-.503-2.657-.308-3.435.431-1.63 1.546-.439 4.794 1.785 4.87 2.337.08 4.24-2.527 3.675-5.037-.286-1.272-.582-1.718-2.986-4.504z"/></g><g><path fill="#f4f4f4" d="M228.658 112.859c-.004.117.21.22.479.229.294.01.404-.07.28-.203a.803.803 0 0 0-.478-.228c-.15-.006-.277.086-.281.202z"/></g><g><path fill="#f4f4f4" d="M292.89 68.12c-.32-1.114-.492-1.353-1.206-1.678-.95-.432-2.778-.405-4.096.058-.872.307-.898.37-.935 2.295-.03 1.569.1 2.127.632 2.696.795.85 1.436.99 2.992.65 2.153-.468 3.18-2.047 2.613-4.02z"/></g><g><path fill="#f4f4f4" d="M277.405 91.067c-2.12.34-3.248 1.999-2.687 3.954.428 1.489.708 1.827 1.856 2.236 1.288.458 2.553-.11 3.474-1.564 1.025-1.615.926-2.535-.406-3.803-.944-.898-1.196-.99-2.237-.823z"/></g><g><path fill="#f4f4f4" d="M238.829 152.92c-1.99-.77-3.045-.79-5.507-.106-.965.268-2.002.456-2.306.417-.303-.039-.903.073-1.332.25-.429.174-1.874.775-3.208 1.334-2.313.968-3.855 1.512-11.504 4.06-1.833.61-4.511 1.761-5.952 2.558-4.46 2.466-8.67 5.081-9.805 6.09-.597.53-1.434 1.164-1.861 1.41-.427.244-.805.517-.841.606-.036.09-1.363 1.484-2.95 3.1-1.586 1.616-3.347 3.551-3.912 4.3a285.48 285.48 0 0 1-3.406 4.341c-3.251 4.074-4.588 6.067-6.478 9.653a82.776 82.776 0 0 1-2.086 3.72c-1.071 1.76-2.202 4.142-2.343 4.934-.051.295-.356 1.022-.676 1.615-1.449 2.688-2.717 11.196-2.362 15.844.107 1.38.165 3.233.13 4.12-.07 1.792.321 2.564.863 1.705.186-.293.244-.98.13-1.527-.113-.548-.059-1.51.121-2.14.179-.632.534-2.189.787-3.463s.622-2.757.82-3.296c.197-.538.448-1.458.557-2.043.312-1.673 1.187-3.982 2.35-6.202.589-1.124 1.219-2.459 1.4-2.967.181-.508.788-1.676 1.35-2.594 2.226-3.643 3.952-6.345 5.242-8.21a130.282 130.282 0 0 0 1.936-2.868c.74-1.157 2.072-2.41 2.3-2.166.197.211-.739 2.092-2.071 4.161-.49.762-1.494 2.48-2.23 3.82-.736 1.338-1.657 2.936-2.047 3.55-.945 1.488-3.431 6.977-4.137 9.14-1.632 4.987-2.704 9.65-2.446 10.623.146.547.204.548.522.006.409-.698.541-1.047 1.929-5.095 2.002-5.837 5.118-10.412 11.977-17.586 8.246-8.624 8.602-8.973 8.774-8.6.193.422-1.384 3.158-2.925 5.08-.606.755-1.813 2.43-2.682 3.721-3.771 5.607-4.481 6.622-5.609 8.03-.655.818-1.673 2.121-2.261 2.896-.587.775-1.54 2.028-2.118 2.787-1.143 1.501-2.695 5.031-2.366 5.383.129.138.612-.244 1.314-1.038.611-.692 2.107-2.375 3.327-3.74 1.218-1.366 2.252-2.62 2.297-2.784.338-1.242 11.129-11.839 12.026-11.81.677.02.102 1.041-2.135 3.792-5.027 6.182-7.019 8.368-11.426 12.536-4.696 4.441-5.813 5.681-5.401 5.993.47.354 6.719-3.418 7.159-4.32.255-.524 6.105-5.204 7.55-6.04 1.159-.67 7.086-5.505 12.298-10.03 6.677-5.8 5.537-3.589-2.754 5.344-2.63 2.832-3.407 3.533-5.174 4.668-.819.526-2.835 2.005-4.479 3.285-3.391 2.641-4.065 3.123-5.36 3.831-2.076 1.134-12.558 10.416-12.392 10.974.05.172.401.07.779-.228 1.778-1.394 5.467-3.695 6.652-4.148.725-.277 1.907-.926 2.627-1.44.722-.516 1.663-1.039 2.092-1.164.43-.126 1.274-.56 1.877-.968.603-.407 1.992-1.216 3.087-1.798 3.036-1.615 7.074-3.94 8.051-4.636.481-.342 1.87-1.248 3.087-2.012 1.216-.764 2.756-1.858 3.422-2.43.666-.575 2.797-2.312 4.737-3.86 3.625-2.897 6.115-5.356 7.959-7.854a55.088 55.088 0 0 1 1.547-2.015c.5-.59 1.362-2.045 1.985-3.348.185-.387.946-1.868 1.692-3.292 1.67-3.188 2.785-5.779 2.69-6.253-.039-.196.125-1.138.365-2.093.468-1.86.543-3.256.353-6.539-.136-2.343-.329-2.985-2.15-7.127-.843-1.917-1.201-3.09-1.021-3.339.153-.21.852-.409 1.553-.442 2.508-.116 5.937-.914 6.925-1.61 1.243-.878 2.774-2.692 2.795-3.313.013-.356-.411-.637-1.721-1.144z"/></g><g><path fill="#f4f4f4" d="M286.609 92.5c-.981-.096-1.533.029-1.988.454-1.304 1.218-1.423 3.057-.275 4.3.962 1.044 2.301.957 3.571-.23 1.26-1.176 1.408-1.6.967-2.786-.532-1.433-.73-1.584-2.275-1.737z"/></g><g><path fill="#f4f4f4" d="M275.4 115.877c-.703 0-1.403.112-1.554.252-.556.516-1.13 2.655-.862 3.216.412.868 1.9 1.856 2.897 1.927 1.792.126 3.441-1.83 2.987-3.54-.262-.984-1.886-1.852-3.468-1.855z"/></g><g><path fill="#f4f4f4" d="M173.565 234.652c6.587 13.055 10.772 27.23 12.952 41.66.398 2.707-3.65 3.404-4.134.663-1.732-12.8-4.897-25.236-10.062-36.954-.433-.886-.778-1.538-.9-1.667-.2-.228-.529-.926-.714-1.567a12.802 12.802 0 0 0-.353-.98c-.078-.16-.146-.324-.225-.483a3.05 3.05 0 0 1-.295-.772 35.957 35.957 0 0 0-.524-1.157c-.926-1.939-1.739-4.062-3.435-9.065-.826-2.452-1.454-4.106-1.61-4.277-.157-.17-2.652-7.654-4.034-12.1-.314-1.04-.585-1.91-.813-2.666 0-.003-.002-.004-.003-.006-.488-.837-.985-1.626-1.239-1.954-.34-.44-.84-1.215-1.112-1.723-.779-1.454-2.26-3.329-3.984-5.037-.873-.866-1.845-1.914-2.16-2.329-.316-.417-1.218-1.317-2.005-2-3.12-2.71-5.505-4.7-7.24-6.045a125.331 125.331 0 0 1-2.627-2.08c-1.022-.852-2.618-1.62-2.757-1.327-.12.253 1.295 1.715 3.13 3.235.675.561 2.103 1.853 3.175 2.874 1.071 1.02 2.39 2.225 2.928 2.677 1.308 1.098 5.21 5.437 6.494 7.226 2.964 4.127 5.318 8.117 5.365 9.09.025.548-.028.567-.48.158-.582-.524-.806-.808-3.272-4.138-3.555-4.802-7.77-8.114-16.2-12.728-10.134-5.548-10.565-5.765-10.614-5.37-.055.444 2.201 2.51 4.186 3.832.78.52 2.383 1.712 3.563 2.65 5.122 4.072 6.074 4.802 7.527 5.77.845.564 2.165 1.47 2.934 2.012.77.544 2.015 1.422 2.771 1.953 1.493 1.051 3.96 3.856 3.76 4.276-.08.166-.637-.045-1.518-.573-.766-.459-2.64-1.575-4.165-2.48-1.524-.903-2.845-1.758-2.935-1.896-.675-1.047-13.736-7.672-14.556-7.384-.618.217.211.991 3.08 2.876 6.45 4.237 8.928 5.671 14.215 8.23 5.634 2.724 7.028 3.542 6.738 3.951-.33.464-7.2-1.189-7.872-1.895-.388-.408-7.157-3.015-8.735-3.364-1.266-.28-8.15-3.009-14.286-5.662-7.86-3.399-6.16-1.69 4.105 4.128 3.257 1.845 4.178 2.265 6.142 2.795.91.245 3.204 1.021 5.095 1.722 3.903 1.446 4.666 1.693 6.068 1.968 2.248.44 14.64 5.941 14.65 6.504.003.173-.35.18-.786.017-2.049-.766-6.128-1.81-7.355-1.882-.749-.044-2.03-.296-2.846-.56-.816-.266-1.838-.474-2.27-.463-.434.01-1.34-.145-2.017-.345-.675-.198-2.194-.539-3.375-.756-3.275-.603-7.682-1.567-8.788-1.923-.544-.176-2.09-.605-3.437-.955-1.346-.349-3.088-.909-3.87-1.243-.783-.335-3.259-1.314-5.502-2.177-4.193-1.612-7.21-3.153-9.644-4.92a51.492 51.492 0 0 0-2.018-1.406c-.634-.4-1.855-1.49-2.81-2.51-.285-.303-1.42-1.448-2.526-2.544-2.474-2.454-4.262-4.52-4.312-4.984-.022-.193-.449-1.014-.95-1.825-.976-1.58-1.454-2.847-2.239-5.933-.56-2.203-.569-2.852-.1-7.208.217-2.016.204-3.204-.035-3.38-.203-.15-.906-.128-1.562.046-2.35.627-5.748.894-6.864.54-1.404-.446-3.347-1.673-3.549-2.24-.116-.325.193-.708 1.254-1.559 1.612-1.293 2.58-1.62 5.053-1.709.968-.034 1.981-.165 2.25-.29.27-.124.855-.196 1.302-.16.448.037 1.957.17 3.353.294 2.417.218 4 .268 11.805.381 1.871.028 4.68.307 6.243.621 4.838.971 9.49 2.153 10.831 2.751.707.316 1.665.656 2.131.758.465.101.895.242.954.314.06.071 1.692.971 3.63 2 1.936 1.026 4.127 2.296 4.868 2.821.74.526 2.727 1.881 4.415 3.012 4.192 2.81 6.01 4.257 8.802 7.015.932.92 2.288 2.19 3.015 2.823 1.503 1.311 3.244 3.18 3.606 3.87.134.257.627.838 1.096 1.291.457.443.987 1.147 1.544 2.006v-.015c-.142-.912-.44-2.237-.77-3.449-.47-1.753-.898-3.763-.969-4.46-.157-1.655-.969-4.42-1.439-4.948-.37-.384-1.013-1.867-2.224-5.145-1.14-3.079-4.176-9.407-5.459-11.388-.698-1.084-1.81-2.537-2.452-3.236-.997-1.069-1.283-1.668-1.995-4.09-.969-3.393-.983-3.649-.399-6.287.542-2.394.812-2.55 2.851-1.624 1.183.541 1.482.812 2.266 2.038 1.226 1.94 2.98 6.058 3.221 7.597.1.713.314 1.411.456 1.568.143.157.328 1.197.4 2.31.071 1.111.313 2.636.527 3.391.228.741.498 2.067.613 2.951.285 2.152 1.297 5.131 1.653 4.817.143-.142.186-.912.071-1.695a61.959 61.959 0 0 1-.27-3.15c-.058-.927-.172-1.982-.272-2.352-.17-.627-.512-4.56-.44-5.075.013-.114-.044-1.668-.144-3.435-.47-8.552.456-17.802 2.153-21.679 3.45-7.882 3.776-9.322 1.966-8.837-.399.1-1.753.271-3.02.37-1.883.143-2.738.014-4.534-.684-3.72-1.454-4.96-2.537-7.07-6.229-.627-1.083-1.14-1.724-1.496-1.853-.74-.242-2.08-1.724-2.38-2.637-.143-.427-.128-1.31.042-1.98.941-3.963 1.768-6.358 2.595-7.469.498-.67.94-1.383.997-1.569.185-.698 3.95-4.546 5.96-6.086 2.336-1.795 4.503-2.794 9.32-4.276 3.08-.955 3.52-.983 9.08-.798 3.221.114 5.943.314 6.057.428.4.427-.556.955-1.596.87-1.51-.115-5.003.598-8.496 1.724-3.149 1.012-4.803 1.84-6.086 3.036-.74.698-.727.698 1.226.185 1.083-.285 2.822-.57 3.834-.627 1.026-.057 2.124-.214 2.452-.342.812-.328 4.361-.442 8.438-.257 4.732.214 7.055 1.07 4.347 1.597-1.24.242-6.642 1.867-8.466 2.551-1.255.456-4.518 2.637-4.518 3.008-.029.513 4.56-.214 9.35-1.483 2.266-.613 5.758-2.494 6.171-3.335.357-.727-.014-1.782-1.21-3.435-1.013-1.397-1.81-2.979-1.712-3.392.143-.599-.769-4.163-1.183-4.604-.299-.314-.827-.37-1.653-.17-.67.155-2.366.383-3.777.498-1.582.113-4.76.826-8.224 1.838-10.99 3.193-12.829 3.464-17.846 2.58-1.397-.242-2.793-.413-3.107-.399-.74.043-3.364-1.383-5.687-3.093-2.18-1.596-2.565-2.323-2.979-5.602a92.93 92.93 0 0 0-.57-3.99c-.286-1.625-.243-1.797.94-3.778 1.412-2.352 2.965-4.119 4.433-5.06.784-.513 1.811-.884 3.193-1.14 1.37-.228 3.093-.342 5.274-.356 6.044-.029 11.588 1.568 18.26 5.231 2.222 1.225 6.426 4.69 8.11 6.685a8.034 8.034 0 0 0 1.467 1.311c.698.442.755.57.413.884-.912.826-2.223.5-4.034-.998-2.594-2.138-5.188-3.535-8.295-4.46-2.38-.714-6.87-1.199-6.885-.743 0 .385 2.88 1.91 5.203 2.78.983.37 1.867.77 1.981.883.1.1.827.442 1.625.727.798.3 1.825.8 2.281 1.112.442.328 1.967.984 3.378 1.468 1.397.5 2.48.97 2.38 1.055-.385.356-4.034.442-5.687.128-.955-.185-1.824-.256-1.924-.17-.1.1-1.625-.044-3.393-.3-3.848-.57-8.45-.684-8.708-.214-.343.613.47 1.312 2.466 2.081 2.408.955 4.204 1.041 9.378.485 4.547-.499 9.521-.57 10.733-.157.442.142.926.171 1.055.043.271-.257.157-1.71-.257-3.193-.199-.698-.114-1.24.271-1.796.3-.442.641-1.254.756-1.824.37-1.74.898-2.979 2.08-4.775 1.183-1.81 1.711-2.252 6.286-5.23 2.153-1.398 6.044-2.496 8.952-2.524 2.28-.029 6.884.912 9.478 1.91.684.271 1.81.955 2.48 1.511 1.112.926 1.183 1.055.813 1.411-.47.427-1.468.385-3.592-.17-.799-.2-1.454-.272-1.454-.144 0 .342 3.207 1.981 4.974 2.551.926.285 1.782.371 2.053.186 2.394-1.668 3.535-2.153 4.86-2.067.77.043 1.967.114 2.651.157 1.07.071 1.255.157 1.198.627-.043.285.156.912.455 1.368.656 1.027.913 2.908.542 4.077-.142.484-.128 1.083.03 1.34.555.884.783 3.25.64 6.642-.07 1.881-.27 3.52-.413 3.663-.157.143-.342.755-.414 1.354-.07.6-.399 1.653-.727 2.337-.342.67-.655 1.768-.698 2.41-.099 1.083-.214 1.253-1.639 2.408-.84.67-2.18 1.967-2.979 2.865l-1.44 1.64.884.954c.5.528 1.768 1.511 2.837 2.195 2.95 1.896 7.696 6.015 9.506 8.253 8.24 10.22 9.522 14.895 6.343 22.948-.77 1.938-1.069 2.38-2.08 3.164-1.04.813-1.398.898-2.766.77-4.717-.485-5.288-.813-6.899-3.905-.555-1.084-1.026-2.167-1.04-2.395-.014-.243-.314-.969-.67-1.625-.356-.656-.656-1.525-.67-1.953a6.408 6.408 0 0 0-.285-1.525 17.93 17.93 0 0 1-.37-1.439c-.785-4.09-1.069-5.673-1.326-7.298-.584-3.635-1.525-5.958-4.547-11.246-1.097-1.924-1.995-3.664-1.995-3.849-.015-.812 2.266 1.098 4.518 3.763 3.407 4.048 4.22 5.516 7.626 13.797.612 1.483 1.311 1.554 1.297.13-.015-3.393-1.31-7.698-3.364-11.147-.984-1.639-5.43-6.115-7.326-7.369-1.34-.898-2.808-1.069-3.193-.385-.17.313-1.297.67-3.207.998-1.625.285-2.95.627-2.95.755s1.296 1.653 2.893 3.378c1.824 1.995 3.35 3.891 4.133 5.174a150.089 150.089 0 0 0 2.367 3.735c1.353 2.081 1.924 3.777 2.337 6.983.727 5.645-.3 12.501-2.409 16.15-1.867 3.235-3.52 4.96-5.886 6.115-2.296 1.14-4.448 1.268-5.346.327-.44-.47-.969-.555-2.38-.427-1.639.157-1.896.085-2.594-.67-.442-.456-.94-1.268-1.14-1.796-.884-2.409-.029-10.462 1.468-13.783.485-1.098 1.012-2.78 1.154-3.749.143-.955.413-1.867.585-2.038.556-.513 2.095-5.744 2.28-7.739.128-1.369-.042-2.595-.613-4.39-.442-1.369-.926-2.623-1.069-2.78-.142-.17-.413-.955-.627-1.739l-.37-1.44 1.168 1.497c.628.827 1.426 1.953 1.768 2.523.328.556.87 1.297 1.197 1.653l.6.627-.23-.884c-.128-.484-.627-1.71-1.125-2.708-1.426-2.907-1.126-2.993 1.055-.299 2.21 2.694 3.55 5.345 5.088 10.05.527 1.624 1.097 2.935 1.254 2.893.3-.058.285-3.507-.014-3.835-.1-.114-.242-.755-.313-1.439-.143-1.426-1.326-4.048-2.78-6.115a116.87 116.87 0 0 1-2.08-3.108c-1.34-2.109-2.054-2.465-4.519-2.266-1.426.114-2.139-.014-3.179-.584-1.796-1.012-2.736-1.226-3.236-.756-.356.328-.555.243-1.225-.47-.955-1.026-1.882-1.397-2.366-.955-.185.186-.314 1.012-.27 1.867.07 1.753-.885 4.604-2.866 8.524-1.354 2.694-3.32 6.4-3.72 7.027-.157.257-.1.356.2.37.655.03 3.848-2.694 4.988-4.247 1.183-1.596 1.468-2.708 1.725-6.542.1-1.568.271-2.937.385-3.036.442-.413 1.054 3.021 1.126 6.428.128 5.003.2 5.83.498 5.83.414 0 .984-1.668 1.411-4.077.328-1.839.286-3.335-.213-8.167-.114-1.212.47-.927.998.485.883 2.337 1.07 3.078 1.197 4.945.071 1.027.2 2.367.285 2.965.456 3.207.527 5.345.256 7.511-.456 3.55-.997 6.03-1.396 6.415-.2.185-.357.513-.37.727 0 .228-.485 1.325-1.07 2.451-1.397 2.694-5.644 7.098-7.782 8.068-.727.328-1.54.783-1.782 1.026-.784.727-5.929 2.124-8.025 2.181-2.95.071-3.249.2-3.59 1.468a10.71 10.71 0 0 0-.3 2.11c0 .57-.272 1.824-.6 2.793-.327.955-.755 2.965-.969 4.447-.2 1.482-.442 2.78-.527 2.865-.37.342-1.269 7.626-1.269 10.191.015 3.293-.114 6.272-.57 14.367-.185 3.45-.242 6.985-.114 7.854.114.87.228 2.324.242 3.236.014.912.171 1.81.357 1.995.171.185.37.756.442 1.283.071.513.27 1.211.442 1.568.3.627.313.627.641-.328.185-.513.27-1.026.171-1.126-.57-.613 1.725-8.424 3.093-10.505 1.012-1.525 1.098-2.023.5-2.665-.258-.27-.714-1.24-1.013-2.152-.299-.913-.67-1.782-.813-1.939-.613-.64-.64-3.05-.085-5.259 1.07-4.19 1.967-5.53 6.713-9.964 4.49-4.218 7.113-5.929 14.111-9.22 2.01-.956 12.244-4.092 16.933-5.204 3.378-.798 3.962-.884 9.265-1.31 1.724-.129 3.293-.386 3.463-.543.186-.17.913-.499 1.611-.727 1.297-.442 2.095-.128 1.71.642-.27.57-4.475 1.824-7.312 2.194-3.463.457-12.314 3.193-13.298 4.105-.64.6.242 1.227 1.083.77.385-.228 1.967-.883 3.507-1.454 4.917-1.838 8.153-2.55 8.124-1.796-.014.457-4.618 3.507-7.369 4.89-3.036 1.54-5.217 3.092-9.15 6.527-2.167 1.882-3.522 3.265-4.39 4.448-3.236 4.446-4.604 5.915-10.79 11.645-6.2 5.744-6.244 5.772-7.754 6.2-1.298.356-1.64.584-2.395 1.568-1.126 1.44-2.765 5.473-3.463 8.523-1.497 6.486-1.654 9.964-.628 13.384.4 1.355.97 3.85 1.255 5.545.712 4.091 2.48 10.163 3.178 10.932.262.282 1.201 2.171 1.94 3.828a7.8 7.8 0 0 1 .405.765zm-16.683-39.84zm56.201-107.615c-.4 3.991-1.127 6.443-2.922 9.921-.699 1.354-1.212 2.593-1.127 2.765.214.47 1.654-.542 3.592-2.509 2.338-2.38 3.008-4.262 3.193-8.979.086-1.982.243-3.692.356-3.806.115-.1.057-.27-.128-.37-.185-.1-.812.142-1.397.555-.584.413-1.14.812-1.24.87-.1.057-.256.77-.327 1.553zm-2.75-1.254c-.515-.028-1.684 1.297-2.524 2.85a65.574 65.574 0 0 1-1.996 3.28c-2.836 4.29-3.179 5.187-1.767 4.603 2.88-1.183 6.343-5.744 7.027-9.237.142-.783-.185-1.482-.74-1.496zm-3.82-2.75l-1.099 1.31a101.97 101.97 0 0 0-2.494 3.136c-2.209 2.908-1.953 3.022 1.354.57 3.078-2.252 3.663-3.15 2.822-4.248zm-7.74.626c-2.638 2.466-3.764 3.635-3.536 3.706.613.171 5.801-1.924 7.055-2.837 3.336-2.45 3.692-2.808 4.02-4.004.171-.642.214-1.226.086-1.284-.129-.07-1.013.086-1.982.343l-1.753.456zm-32.313 30.146c-2.31 1.711-2.98 2.324-2.766 2.552.271.285.898.085 4.262-1.383 2.651-1.155 3.18-1.497 4.974-3.178a23.366 23.366 0 0 0 3.478-4.148c3.022-4.619 2.481-4.476-3.706.912-2.594 2.266-5.402 4.618-6.242 5.245zm-9.408 34.764c-.57 3.464-.67 19.285-.157 25.143.13 1.468.485 2.181.898 1.796.342-.328.627-1.867 1.297-7.155.87-6.913 1-7.697 1.212-7.896.1-.1.185-.542.185-.97-.028-1.268 1.041-5.33 2.01-7.668 1.17-2.85 1.183-3.578.03-4.803-1.783-1.91-2.553-7.926-1.44-11.26 1.253-3.778 6.014-9.294 11.074-12.843 1.511-1.055 4.09-3.079 5.744-4.475 3.521-3.008 4.76-4.69 5.66-7.74.298-1.04.626-1.967.74-2.053.413-.399-.228-1.596-1.497-2.779-1.326-1.255-2.865-1.91-3.35-1.425-.142.128-.569 1.311-.94 2.637-1.51 5.273-4.504 10.39-7.954 13.57-1.98 1.838-2.722 2.38-5.587 4.118-1.625.998-3.463 2.608-4.362 3.834-.955 1.297-2.152 5.66-2.337 8.538-.1 1.311-.314 2.794-.485 3.306-.185.514-.299 1.198-.242 1.54.043.328-.1.97-.299 1.425-.214.456-.3 1.568-.2 2.452.1.898.086 2.11 0 2.708z"/></g></g></svg>