<svg xmlns="http://www.w3.org/2000/svg" width="268" height="237" viewBox="0 0 268 237"><g><g><path fill="#121a24" d="M41.16 207.083a20.367 20.367 0 0 1 1.004 4.477c.152 1.507.233 2.804.233 3.937a32.62 32.62 0 0 1-.21 3.751c-.128 1.426-.444 2.899-.935 4.43a24.494 24.494 0 0 1-2.092 4.523c-.899 1.471-2.15 2.827-3.727 3.984-1.578 1.169-3.518 2.127-5.82 2.852-2.302.724-5.072 1.086-8.309 1.086-3.26 0-6.029-.362-8.355-1.086-2.325-.725-4.265-1.683-5.843-2.852a14.583 14.583 0 0 1-3.762-3.984c-.9-1.497-1.625-3.004-2.116-4.523a22.26 22.26 0 0 1-.958-4.43c-.128-1.425-.21-2.687-.21-3.751 0-1.086.082-2.325.21-3.774.152-1.402.444-2.875.935-4.429a19.896 19.896 0 0 1 2.068-4.499c.96-1.507 2.174-2.828 3.728-4.02 1.543-1.156 3.46-2.092 5.738-2.816 2.302-.724 5.048-1.087 8.285-1.087h.06c1.775 0 3.423.105 4.93.328 1.192.163 2.291.409 3.32.713 2.301.689 4.241 1.624 5.818 2.769 1.578 1.156 2.84 2.454 3.798 3.926.935 1.472 1.683 2.957 2.21 4.475zm-7.562 14.059c.468-1.788.678-3.681.678-5.645 0-2.044-.21-3.937-.678-5.713-.444-1.788-1.169-3.32-2.173-4.64-1.04-1.32-2.408-2.325-4.114-3.073-1.706-.76-3.809-1.122-6.287-1.122-2.384 0-4.37.362-6.006 1.122-1.625.748-2.945 1.753-3.962 3.073-1.005 1.32-1.729 2.852-2.197 4.64-.444 1.776-.666 3.669-.666 5.713 0 1.964.222 3.857.666 5.586.468 1.765 1.192 3.319 2.232 4.64 1.03 1.344 2.372 2.372 4.055 3.155 1.66.771 3.728 1.157 6.158 1.157 2.384 0 4.406-.386 6.09-1.157 1.647-.783 2.99-1.811 4.031-3.108 1.004-1.298 1.73-2.875 2.173-4.628z"/></g><g><path fill="#121a24" d="M105.689 207.189c.467 1.531.806 3.004.958 4.452.152 1.426.292 2.723.315 3.857 0 1.063-.058 2.325-.187 3.75-.105 1.426-.41 2.875-.9 4.348a19.201 19.201 0 0 1-2.126 4.429c-.935 1.473-2.174 2.793-3.728 3.927-1.554 1.144-3.494 2.068-5.82 2.769-2.302.701-5.095 1.04-8.332 1.04h-18.79v-40.55h19.129c3.109 0 5.773.339 7.993 1.005 2.256.678 4.137 1.577 5.668 2.723 1.53 1.11 2.746 2.407 3.669 3.856a19.644 19.644 0 0 1 2.15 4.394zm-7.456 13.871c.444-1.729.654-3.599.63-5.562-.057-2.045-.314-3.938-.758-5.644-.456-1.753-1.181-3.237-2.197-4.5-1.006-1.273-2.384-2.255-4.055-3.003-1.683-.701-3.787-1.063-6.241-1.063H75.177v28.384h10.692c2.384 0 4.429-.362 6.077-1.051 1.659-.725 3.027-1.742 4.067-3.003 1.04-1.297 1.764-2.829 2.22-4.558z"/></g><g><path fill="#121a24" d="M131.704 235.772h8.11v-40.564h-8.11z"/></g><g><path fill="#121a24" d="M249.68 195.211h-8.257l-18.11 40.554h8.986l13.253-30.463 13.254 30.463h8.983z"/></g><g><path fill="#121a24" d="M188.085 208.72l-3.658 6.567-3.646-6.497-8.168-13.579h-3.856l-.012-.012s0-.01-.024-.01h-.666s0 .01.012.01h-4.942c.093.175.21.34.326.514a208.923 208.923 0 0 0 7.76 12.33l9.103 14.42v13.298h8.098v-13.509l17.19-27.04h-9.477z"/></g><g><path fill="#121a24" d="M116.047 28.447c.835.64 2.47 1.263 3.283 1.25.778-.014 1.052.304 1.408 1.629.161.598.492 1.302.738 1.564.246.264.624 1.16.841 1.99.721 2.763 1.632 5.54 2.105 6.414.257.474.857 1.54 1.332 2.367.476.827 1.435 2.709 2.13 4.18 1.027 2.17 1.273 2.913 1.303 3.922.034 1.156.626 2.7.927 2.418.18-.167.467-4.19.576-8.025.062-2.2-.047-3.743-.362-5.105-.247-1.073-.519-2.026-.604-2.117-.085-.091-.132-.48-.104-.867.061-.85-1.019-3.032-2.458-4.968-2.259-3.04-2.146-2.764-1.896-4.586.36-2.624.35-4.106-.033-5.534-1.432-4.185-4.669-6.834-4.669-6.834-.917-.86-1.5-1.245-2.267-1.494-.959-.312-1.1-.291-1.99.296-1.214.8-1.63 1.808-1.165 2.816.257.557.453.718 1.21.993 1.01.365 1.566.166 2.406-.86l.532-.65.524.567c.288.31.555.726.592.92.072.38-.052.439-1.819.85-1.076.25-1.59.753-1.828 1.787-.204.888.08 2.518.521 3 .487.53 1.631.827 2.555.662l.917-.163-.115 1.075c-.063.592-.196 1.152-.295 1.245-.103.096-.875-.336-1.82-1.02l-1.644-1.185-.78-1.535c-.429-.846-.879-2.094-1-2.774-.399-2.23-.604-3.05-.735-2.927-.07.066-.24.666-.377 1.332-.613 3.006.528 8.19 2.061 9.367z"/></g><g><path fill="#121a24" d="M102.235 47.152c1.506 1.81 2.774 2.43 9.052 4.43 3.806 1.213 9.637 3.888 11.234 5.156.439.348 1.06.67 1.382.714.578.08.578.073-.018-.933-.33-.558-1.124-1.632-1.763-2.385-1.661-1.957-2.317-2.916-2.371-3.47-.04-.402.01-.47.296-.4.93.226 3.548 3.172 4.477 5.038.395.795 1.796 2.015 2.282 1.987.422-.026.336-.466-.423-2.164-.28-.628-.552-1.388-.604-1.688-.121-.701-1.23-2.596-2.394-4.096-1.364-1.756-2.535-3.534-2.474-3.757.077-.285 3.836 4 4.638 5.287.37.595.825 1.186 1.012 1.314.425.29.093-.718-1.132-3.452-.477-1.064-1.106-2.753-1.396-3.752-.614-2.11-1.175-3.575-1.833-4.791-.257-.475-.744-1.385-1.082-2.022-.393-.741-1.342-1.971-2.625-3.405-1.106-1.235-2.181-2.572-2.39-2.97-.207-.4-1.335-1.753-2.508-3.008-1.934-2.072-2.22-2.314-3.085-2.61l-.953-.326.704.91c.73.944.755 1.532.047 1.134-.492-.277-1.235-.003-2.047.755-.485.454-.613.786-.67 1.737-.058.999.02 1.27.519 1.806 1.023 1.096 3.066.808 3.719-.524.336-.684.347-.692.643-.374.345.369.726 2.858.474 3.093-.222.207-2.107-.21-3.251-.72-2.42-1.078-4.383-2.688-5.273-4.321-.33-.603-.371-.626-.423-.233-.082.617 1.125 3.469 1.943 4.596.7.962 3.053 2.713 4.059 3.019.624.19 2.098.975 2.94 1.565 1.03.719 2.527 1.32 3.189 1.28.692-.041 1.08.348 2.11 2.107 1.052 1.795 1.055 1.803.874 1.973-.09.083-.493-.208-.916-.662-.416-.445-1.282-1.1-1.924-1.453a28.97 28.97 0 0 1-2.2-1.37c-.567-.4-1.307-.77-1.644-.821-.338-.051-.713-.2-.835-.33-.421-.451-3.071-1.227-4.403-1.291-.737-.034-2.143.053-3.123.194-2.68.384-3.165 1.02-2.56 3.355.135.518.077.834-.196 1.09-1.128 1.054-.81 2.708.922 4.788z"/></g><g><path fill="#121a24" d="M128.006 11.729c-.753-.806-.977 5.917-.298 8.962.125.559.273 1.379.33 1.82.23 1.825 3.231 3.722 6.137 3.879 1.072.058 1.316.157 1.89.773.626.67.878 1.547.851 2.957-.003.198.07.747.165 1.218.177.883-.032 1.459-.282.778-.076-.207-.553-1.16-1.06-2.117-1.199-2.266-2.204-3.231-3.435-3.3-1.022-.056-1.189.068-1.584 1.173-.309.864-.364 2.106-.159 3.64.144 1.08 1.086 4.222 1.351 4.506.104.11.428 1.032.72 2.047.291 1.015.68 2.186.862 2.605.628 1.435 1.19 4.787 1.094 6.532-.083 1.538.278 3.167.705 3.18.232.009 1.13-2.772 1.391-4.305.135-.791.407-1.59.605-1.775.782-.733 1.273-7.507.865-11.918a551.595 551.595 0 0 1-.387-4.407c-.105-1.262-.29-2.928-.412-3.701-.12-.775-.172-2.742-.113-4.374.075-2.08-.024-3.494-.33-4.735l-.438-1.771-2.917-3.042c-3.07-3.203-3.453-3.477-4.439-3.173-.97.299-1.512 1.033-1.548 2.102-.039 1.16.31 1.645 1.403 1.95 1.063.297 1.653.09 2.422-.846.356-.433.73-.764.831-.736.355.1 1.587 2.133 1.852 3.055.34 1.186 1.006 4.958.926 5.25-.033.123-.39.17-.792.108-1.41-.22-2.416.346-2.868 1.614-.133.375-.329.678-.434.675-.416-.015-1.21-.991-1.87-2.3-.818-1.62-1.198-3.57-.986-5.05.084-.583.062-1.156-.048-1.274z"/></g><g><path fill="#121a24" d="M131.184 17.048c.719.024 1.042-.093 1.546-.563 1.522-1.423 1.259-3.495-.525-4.13-.356-.127-.91-.199-1.231-.158-.412.053-.781.295-1.267.838-.937 1.046-.962 1.992-.085 3.134.596.774.734.851 1.562.88z"/></g><g><path fill="#121a24" d="M143.301 21.924c2.222 1.215 3.414 1.855 3.73 2.006.211.1.213.78.006 2.162a111.556 111.556 0 0 0-.42 3.065c-.205 1.81-.52 1.726-1.136-.298-.3-.986-.674-1.928-.83-2.096-.157-.168-.387-.553-.51-.856-.262-.639-.88-.929-1.427-.669-.998.475-2.07 4.095-2.017 6.813.018.916.018 2.136 0 2.71-.018.571.042 1.12.133 1.216.091.096.18.793.2 1.548.018.754.092 2.032.165 2.838.23 2.556-.228 5.99-.948 7.1-.173.267-.316.8-.317 1.185 0 .655.017.681.292.42.162-.156.468-.702.682-1.215.213-.514.521-1.059.684-1.21.394-.368 1.676-3.043 2.382-4.969.311-.849.67-1.64.797-1.758.357-.334 1.927-5.823 1.78-6.224-.034-.094.092-.682.282-1.308.325-1.075.656-3.363.79-5.465.096-1.508.57-3.19 1.19-4.234.316-.532.613-1.19.661-1.464.047-.275.327-.727.622-1.007 1.408-1.34 2.617-3.608 3.114-5.847.224-1.009-.14-3.652-.566-4.109-.113-.12-.465-1.056-.782-2.077-1.086-3.498-3.357-6.84-4.635-6.82-.367.005-.705-.166-.962-.488-.345-.432-.526-.462-1.416-.225-1.133.3-1.53.592-1.77 1.293-.323.948-.143 1.926.477 2.601.497.54.741.64 1.48.602.745-.039.975-.156 1.483-.75.356-.416.621-.98.647-1.379.057-.886.401-.78 1.224.376.661.93 1.631 3.533 1.807 4.848.126.947-.762 4.913-1.115 4.983-.147.03-.416-.107-.599-.303-.867-.928-2.852-.554-3.868.728l-.607.764-.992-1.237c-.744-.928-1.094-1.588-1.399-2.634-.225-.767-.46-1.345-.525-1.284-.124.118-.888 2.32-1.258 3.63-.878 3.105-.9 3.901-.15 5.363 1.17 2.282 1.284 2.398 3.621 3.675z"/></g><g><path fill="#121a24" d="M148.1 8.617c-.08-.798-.2-1.016-.915-1.646-.699-.62-.985-.727-1.897-.718-.996.01-1.123.068-1.738.796-1.112 1.315-1.173 2.742-.165 3.82 1.8 1.928 4.981.407 4.715-2.252z"/></g><g><path fill="#121a24" d="M163.76 4.386c.03.28.241.711.47.956.527.565 2.008.648 2.55.142.623-.582.827-.329.881 1.092.034.897.138 1.295.317 1.213.55-.252-.047-4.43-.8-5.597-.395-.612-.492-.643-1.668-.537-.686.061-1.33.19-1.43.283-.453.423-.82 1.44-.606 1.677.128.143.257.49.286.771z"/></g><g><path fill="#121a24" d="M155.202 17.82c.055 1.048.58 1.802 2.622 3.766l1.742 1.675.06 1.516c.04 1.047-.145 2.164-.599 3.604-1.414 4.49-2.155 6.656-2.512 7.34-.204.394-.717 1.587-1.14 2.652a154.206 154.206 0 0 1-.958 2.377 6.742 6.742 0 0 0-.285.804c-.12.46-2.869 6.218-3.513 7.357l-.483.854.634-.383c.793-.48 4.268-4.04 4.213-4.316-.022-.111.302-.242.72-.29.795-.092 1.847-.94 2.108-1.7.078-.225.531-.648 1.11-1.035 1.11-.743 1.607-1.362 2.004-2.495.151-.434.491-1.323.755-1.976.95-2.351 1.072-4.72.264-5.113-.257-.125-1.716.28-2.7.75-.76.363-.676-.326.392-3.207.267-.72.575-1.767.685-2.33.11-.564.267-1.087.35-1.163.081-.078.321-.757.533-1.511.312-1.114.54-1.516 1.212-2.147 1.384-1.297 3.23-3.572 3.89-4.794.342-.636.822-2.017 1.066-3.07.453-1.951.805-6.311.51-6.321-.089-.003-.33.673-.537 1.502-.206.829-.467 1.722-.582 1.984a8.44 8.44 0 0 0-.309.834c-.156.556-1.506 2.7-1.695 2.695-.093-.003-.257-.32-.365-.702-.248-.882-.85-1.53-1.87-2.008-.604-.283-1.085-.302-1.952-.08-.633.165-1.195.25-1.25.193-.14-.152.053-3.62.256-4.57.093-.436.292-.91.443-1.05.285-.266.918-1.324 1.232-2.058v-.001c.117-.275-.059-.138-.502.392-4.319 5.159-4.9 6.012-5.539 8.12-.293.97-.382 1.79-.252 2.319.112.45.22 1.164.242 1.586z"/></g><g><path fill="#121a24" d="M166.23 10.32c.433-1.025.318-1.567-.52-2.463-.781-.838-1.29-.943-2.337-.49-1.051.457-1.186.582-1.464 1.365-.33.924-.161 1.688.538 2.437 1.193 1.277 3.066.857 3.784-.85z"/></g><g><path fill="#121a24" d="M152.583 27.563c-.404.14-.84.42-.968.622-.13.202-.51.749-.844 1.215-.787 1.098-1.51 3.228-1.657 4.883-.064.719-.234 1.634-.376 2.032-.143.398-.3 1.136-.347 1.64-.306 3.232-1.227 6.632-2.355 8.697-1.165 2.13-.672 2.777.64.84.435-.64 1.398-1.917 2.14-2.837.742-.92 1.66-2.161 2.036-2.757.378-.597 1.04-1.414 1.47-1.816.646-.603.967-1.211 1.818-3.444.57-1.492 1.104-3.223 1.188-3.847.176-1.318-.244-3.2-.858-3.841a7.314 7.314 0 0 1-.79-1.044c-.334-.55-.424-.578-1.097-.343z"/></g><g><path fill="#121a24" d="M172.18 29.349c-.088.258-.047.724.091 1.036.271.613-.177 1.52-1.872 3.787-2.069 2.77-3.883 4.722-5.103 5.497-1.202.763-4.906 4.443-5.067 5.034-.04.147-1.95 2.003-4.244 4.125-2.294 2.12-4.117 3.914-4.05 3.984.127.138 1.704-.42 3.366-1.191.554-.256 1.33-.541 1.723-.629.393-.09 1.264-.38 1.936-.645.672-.266 1.4-.421 1.62-.347.218.075.633.001.921-.163.29-.163 1.238-.567 2.111-.896 1.511-.571 1.664-.678 3.233-2.262 1.398-1.411 1.736-1.87 2.24-3.038 1.02-2.363.904-3.647-.395-4.406-.418-.243-.757-.523-.754-.619.003-.097.667-.906 1.475-1.797.807-.892 1.99-2.438 2.626-3.437.637-.999 1.338-1.988 1.558-2.199.22-.21.44-.614.49-.897.1-.579 1.278-1.559 3.256-2.708.618-.361 1.9-1.377 2.848-2.26 1.496-1.394 1.853-1.84 2.694-3.367.534-.969 1.187-2.51 1.452-3.426.543-1.876.913-5.987.592-6.579-.248-.46-.292-.359-.61 1.443-.357 2.009-1.232 4.399-1.954 5.334-1.925 2.496-3.13 3.9-3.77 4.392l-.714.547-.038-1.275c-.046-1.562-.625-2.313-2.027-2.632-.504-.114-1.038-.338-1.186-.496-.148-.158-.203-1.13-.123-2.158.147-1.888.541-3.204 1.277-4.266.221-.318.302-.605.181-.638-.12-.034-.836.515-1.589 1.219-2.245 2.096-4.2 5.166-4.74 7.441-.169.705-.296 1.443-.283 1.64.037.583 1.68 4.046 2.165 4.567.562.601.873 1.672.664 2.285z"/></g><g><path fill="#121a24" d="M179.74 13.155c.908.667 1.848.545 3.005-.39.917-.74 1-.873 1.045-1.661.04-.728-.062-.974-.69-1.646-.775-.83-2.103-1.282-2.877-.98-.92.36-1.322.993-1.335 2.094-.017 1.479.185 2.093.853 2.583z"/></g><g><path fill="#121a24" d="M178.796 19.396c1.07-.307 1.917-1.046 2.24-1.951.301-.845-.133-2.416-.8-2.894-.708-.508-2.383-.901-2.932-.69-.767.297-1.216.807-1.61 1.83-.88 2.275.856 4.35 3.102 3.705z"/></g><g><path fill="#121a24" d="M181.636 34.808c-.168.899-.087 2.996.124 3.222.061.066-.092.494-.34.951-.345.631-.382.931-.158 1.253.163.233.305.566.317.74.013.213.181.294.512.247.27-.038 1.184.025 2.03.141 1.154.158 2.153.074 3.985-.335 1.345-.299 2.604-.691 2.797-.868.194-.178.532-.373.75-.435.926-.258 2.605-1.674 4.824-4.07 2.557-2.758 3.051-3.469 3.692-5.307.244-.701.57-1.393.725-1.538.155-.145.325-.609.378-1.033.054-.424.177-.998.274-1.277.202-.582.011-.911-.339-.584-.133.125-.646.041-1.174-.191-.742-.326-1.07-.342-1.576-.074-1.356.716-1.522 2.356-.389 3.846l.663.873-.623.724c-1.173 1.365-3.399 3.321-4.205 3.696-1.054.489-3.149 1.115-3.276.979-.056-.06.01-.483.145-.942.44-1.488-.657-3.198-2.307-3.6-.496-.121-.565-.19-.488-.485.193-.739 2.432-2.663 4.417-3.796.844-.482 1.695-1.027 1.893-1.211.66-.615-.349-.392-3.017.669-1.39.552-2.978 1.151-3.526 1.329-.549.178-1.322.533-1.717.791-1.727 1.126-4.049 4.449-4.39 6.285z"/></g><g><path fill="#121a24" d="M177.29 45.305c.828-.729 1.8-1.528 2.163-1.778.366-.253.598-.52.522-.602-.136-.145-3.052 1.921-4.136 2.93-.595.555-1.444.8-2.898.831-1.074.024-1.914.335-3.01 1.113-.82.582-2.166 1.4-4.514 2.742a643.588 643.588 0 0 0-6.461 3.755c-.707.44-1.247.986-1.114 1.128.187.2 2.098-.066 3.477-.483.632-.193 1.403-.327 1.715-.3.312.025.652-.033.757-.132.105-.098.904-.16 1.776-.14.87.02 1.986-.09 2.477-.246a98.35 98.35 0 0 1 1.718-.52c.454-.133.915-.324 1.024-.426.109-.1.432-.189.717-.193.797-.013 2.82-1.756 3.618-3.117.898-1.535 1.049-2.012.844-2.666-.176-.562-.152-.597 1.325-1.896z"/></g><g><path fill="#121a24" d="M197.995 46.594c-.542.101-1.447.183-2.01.183-.961 0-2.021.21-3.891.77-.442.133-1.377.712-2.123 1.315-.733.591-1.526 1.087-1.761 1.101-.243.015-.549.215-.712.468-.186.288-.434.424-.711.39-.235-.032-.53.041-.657.16-.127.118-.772.28-1.434.36-1.535.186-5.465.997-6.935 1.433-1.096.325-2.626.927-4.964 1.956-1.624.715-3.437 1.368-6.701 2.416-.917.295-2.547.845-3.622 1.226-1.075.381-2.267.776-2.647.88-1.591.431-1.084.7 1.62.86 5.884.343 6.653.417 6.872.651.129.138 1.086.21 2.127.158 4.709-.23 5.145-.359 7.562-2.227 1.985-1.534 2.137-2.687.444-3.353-.422-.166-.764-.376-.761-.468.02-.59 8.566-2.526 9.248-2.094.179.113.707.742 1.172 1.395.718 1.01 1.086 1.343 2.425 2.198 2.317 1.48 3.279 1.764 5.606 1.651 2.401-.116 4.215-.478 6.076-1.21 2.593-1.024 5.56-2.684 5.296-2.967-.065-.069-1.087.228-2.271.663-1.183.435-2.563.832-3.066.883-.504.051-1.215.132-1.581.181-.686.092-2.648-.212-2.866-.446-.067-.072.257-.485.721-.919.723-.675.858-.928.941-1.773.125-1.26-.398-2.378-1.376-2.94-.387-.222-.703-.475-.7-.56.013-.392 4.835-1.14 5.152-.8.064.067-.152.462-.48.876-.759.956-.891 2.057-.394 3.276.326.802.492 1.006 1.005 1.241 1.929.876 4.515-.51 4.382-2.35-.017-.236-.223-1.056-.459-1.82l-.428-1.392-.851-.304c-.849-.302-2.526-.655-4.972-1.045-.71-.113-1.734-.124-2.276-.023z"/></g><g><path fill="#121a24" d="M193.885 27.957c-.875.31-1.335.751-1.673 1.606-.328.831-.129 1.577.643 2.402.713.764 1.434.826 2.56.221 1.084-.583 1.353-1.02 1.297-2.11-.075-1.443-1.57-2.564-2.827-2.119z"/></g><g><path fill="#121a24" d="M180.549 42.612c.17-.158.244-.357.165-.442-.079-.085-.283-.025-.453.133-.17.159-.244.358-.164.443.079.085.282.024.452-.134z"/></g><g><path fill="#121a24" d="M202.07 65.762c1.4.354 1.872.346 1.525-.025-.369-.395-1.647-.907-2.532-1.014-.45-.054-.94-.228-1.087-.386-.148-.158-.38-.265-.518-.238-.137.027-.86-.175-1.609-.449-3.347-1.23-6.76-1.183-9.016.123-.54.313-1.274.594-1.63.625-.356.03-.779.177-.94.33-.405.377-.947.403-2.486.121a392.42 392.42 0 0 0-3.33-.59c-1.105-.19-2.456-.54-3.003-.775-.983-.424-2.809-.543-8.224-.537-1.32.002-2.454.052-2.518.113-.065.06-1.523.187-3.239.282-4.037.222-4.487.515-1.773 1.151.814.192 1.572.442 1.683.556.111.114.662.288 1.224.386.561.097 1.52.425 2.13.728.611.304 1.43.618 1.82.696.39.08 1.095.37 1.568.645 1.064.62 5.3 1.024 6.48.618a29.795 29.795 0 0 1 1.656-.504c1.142-.306 2.56-1.348 2.635-1.938.061-.482-.083-.479 3.146-.083.762.094 1.492.282 1.62.42.13.138.27.714.311 1.28.125 1.686 1.986 4.45 3.308 4.916.354.125.91.51 1.234.857.451.482.862.672 1.757.814 2.062.326 4.81.027 7.691-.837 1.4-.419 2.315-1.086.987-.718a5.01 5.01 0 0 1-1.385.144c-.948-.065-3.693-1.095-4.112-1.544-.29-.31-.272-.4.135-.627 2.1-1.16 2.737-2.222 2.181-3.625-.18-.454-.23-.916-.112-1.026.333-.31 3.02-.243 4.423.111z"/></g><g><path fill="#121a24" d="M191.798 78.461c-4.447-1.76-5.519-1.968-7.414-1.428-1.45.415-2.659.25-4.975-.682-1.28-.515-1.344-.757-.389-1.468.712-.528.76-.622.578-1.16-.155-.464-.44-.762-1.368-1.43-1.734-1.253-3.025-1.67-6.252-2.025-4.36-.48-6.038-.696-7.639-.984a73.99 73.99 0 0 0-3.246-.483c-.986-.122-1.812-.149-1.837-.059-.054.2.97.84 2.236 1.397.521.23 1.14.622 1.375.873.234.251.82.598 1.3.773.48.174 1.005.457 1.166.63.16.172.772.55 1.36.837.586.287 1.2.667 1.365.843.563.602 2.145 1.306 4.335 1.93 1.205.341 3.036.981 4.07 1.42 1.034.44 2.278.89 2.764 1 .487.11 1.213.391 1.614.625.71.414.728.455.68 1.58-.028.633.145 1.823.384 2.642.42 1.433.477 1.523 1.504 2.338.988.783 2.78 1.73 4.444 2.351.38.141 1.715.403 2.968.583 1.682.24 2.506.236 3.148-.013 1.548-.602 1.481-.803-.3-.907-2.213-.13-2.722-.273-4.257-1.19-1.198-.719-2.069-1.643-1.79-1.903.064-.06.44-.087.833-.06.78.05 1.763-.463 2.126-1.107.391-.696.434-1.982.086-2.569-.183-.308-.229-.612-.1-.67.494-.236 4.357 1.341 4.033 1.645-.077.071-.632.323-1.233.561l-1.092.431-.382 1.018c-.718 1.917.284 3.172 2.596 3.251 1.227.042 1.355 0 1.871-.633.341-.415.615-1.09.71-1.749.113-.793.232-1.052.455-.99.65.177.416-.485-.524-1.477-1.948-2.058-3.166-2.934-5.203-3.74z"/></g><g><path fill="#121a24" d="M169.126 82.353c.108.115 1.023.536 2.033.935 1.685.665 2.008.709 3.896.519 1.132-.113 2.233-.29 2.446-.392.877-.423.539-1.418-1.068-3.138-.965-1.033-1.308-1.272-2.36-1.638a18.075 18.075 0 0 1-2.2-.956c-1.08-.59-4.041-1.702-5.364-2.017-.475-.114-1.995-.546-3.38-.962-1.407-.423-3.076-.753-3.782-.748l-.001-.001c-.695.004-1.32.117-1.386.25-.14.276-.216.21 1.59 1.34 3.634 2.27 4.649 3.035 5.94 4.467.827.919 1.258 1.234 2.232 1.635.665.273 1.296.59 1.404.706z"/></g><g><path fill="#121a24" d="M185.176 93.794c-2.03-2.35-3.853-3.977-5.43-4.84-1.001-.549-3.5-1.037-4.758-.93-.676.057-.89-.039-1.47-.659-1.716-1.839-5.714-4.834-6.398-4.793-.273.016-.328.067-.208.195.089.095.104.227.033.294-.07.065-.756-.302-1.523-.818-3.82-2.566-6.516-3.858-7.705-3.69-.315.045-.59.097-.612.117-.021.02.707.803 1.617 1.74 2.368 2.436 5.687 6.37 6.279 7.444.28.506.85 1.2 1.278 1.551 2.612 2.154 3.077 2.45 4.376 2.781.73.186 1.37.386 1.424.444.054.058.463.124.909.15l.81.043.51 1.543c.474 1.431.616 1.652 1.946 3.032 2.643 2.746 3.27 3.233 4.298 3.34l.928.098-.846-.713c-1.014-.853-2.577-2.88-2.371-3.073.08-.075.574-.095 1.096-.043 1.166.115 1.824-.219 2.132-1.083.219-.614.229-1.718.019-2.283-.324-.879 3.685 1.167 4.663 2.38.7.866.566 1.251-.3.857-.803-.365-1.93-.224-2.497.314-1.185 1.124-.32 3.488 1.299 3.542 1.7.06 3.083-1.838 2.673-3.663-.208-.925-.423-1.25-2.172-3.277z"/></g><g><path fill="#121a24" d="M166.152 82.216c-.003.085.154.16.348.166.214.008.295-.05.205-.146a.579.579 0 0 0-.348-.167c-.11-.003-.202.063-.205.147z"/></g><g><path fill="#121a24" d="M212.874 49.674c-.233-.81-.358-.985-.877-1.222-.691-.313-2.021-.295-2.98.042-.634.224-.653.27-.68 1.67-.022 1.142.073 1.547.46 1.961.578.62 1.044.721 2.176.474 1.566-.34 2.313-1.489 1.9-2.925z"/></g><g><path fill="#121a24" d="M201.61 66.365c-1.543.249-2.362 1.455-1.954 2.877.311 1.083.515 1.329 1.35 1.626.936.334 1.857-.08 2.526-1.138.746-1.175.674-1.844-.295-2.765-.686-.654-.869-.721-1.627-.6z"/></g><g><path fill="#121a24" d="M173.55 111.356c-1.448-.56-2.215-.574-4.006-.076-.702.195-1.456.33-1.677.303-.22-.028-.657.053-.969.18-.312.129-1.363.566-2.334.973-1.682.704-2.803 1.099-8.367 2.952-1.334.444-3.282 1.282-4.33 1.86-3.244 1.795-6.307 3.697-7.132 4.43-.434.387-1.043.848-1.354 1.026-.31.178-.585.376-.612.442-.026.064-.99 1.079-2.145 2.255-1.154 1.175-2.435 2.583-2.846 3.127-.41.544-1.526 1.965-2.478 3.158-2.364 2.963-3.337 4.413-4.71 7.02a60.721 60.721 0 0 1-1.519 2.707c-.778 1.28-1.6 3.013-1.704 3.589-.037.215-.259.743-.492 1.175-1.054 1.955-1.976 8.144-1.717 11.525.077 1.003.12 2.352.094 2.996-.05 1.304.233 1.866.628 1.24.135-.212.177-.712.094-1.111-.082-.397-.043-1.098.088-1.556.13-.46.388-1.592.573-2.52.184-.925.452-2.004.596-2.395.143-.393.326-1.062.405-1.487.227-1.217.864-2.896 1.71-4.511.428-.818.886-1.79 1.018-2.158.132-.371.573-1.22.982-1.887 1.62-2.651 2.875-4.615 3.813-5.973a97.387 97.387 0 0 0 1.408-2.086c.54-.842 1.507-1.753 1.673-1.575.144.153-.538 1.522-1.506 3.027-.357.554-1.087 1.804-1.622 2.778-.536.973-1.206 2.135-1.49 2.582-.687 1.084-2.495 5.076-3.009 6.649-1.187 3.628-1.967 7.019-1.779 7.727.106.398.15.399.38.005.297-.508.393-.762 1.403-3.706 1.456-4.247 3.722-7.575 8.712-12.792 5.998-6.274 6.257-6.528 6.382-6.255.14.305-1.006 2.297-2.128 3.694-.44.549-1.318 1.768-1.95 2.707-2.744 4.078-3.26 4.817-4.08 5.84-.477.596-1.217 1.544-1.645 2.107-.427.564-1.12 1.476-1.54 2.028-.832 1.09-1.96 3.659-1.722 3.915.094.1.446-.177.956-.755.445-.503 1.533-1.728 2.42-2.721.886-.993 1.638-1.905 1.671-2.024.246-.904 8.095-8.613 8.748-8.592.492.016.074.758-1.553 2.759-3.657 4.497-5.106 6.087-8.31 9.119-3.417 3.23-4.23 4.132-3.93 4.359.342.257 4.887-2.486 5.207-3.143.186-.38 4.441-3.785 5.492-4.393.843-.487 5.154-4.004 8.945-7.297 4.857-4.218 4.03-2.61-2.003 3.889-1.913 2.06-2.478 2.569-3.763 3.395-.596.382-2.063 1.458-3.258 2.39-2.467 1.92-2.957 2.272-3.899 2.786-1.51.825-9.134 7.577-9.014 7.983.037.125.292.049.567-.166 1.293-1.014 3.977-2.687 4.84-3.017.526-.201 1.386-.673 1.91-1.048s1.21-.756 1.521-.847c.312-.09.927-.407 1.365-.704.44-.296 1.45-.884 2.246-1.307 2.208-1.175 5.146-2.866 5.856-3.372.35-.25 1.36-.91 2.245-1.464.885-.556 2.005-1.352 2.49-1.77.484-.416 2.034-1.68 3.445-2.806 2.637-2.107 4.45-3.895 5.79-5.712.42-.572.927-1.231 1.125-1.465.364-.431.991-1.488 1.444-2.437.134-.281.688-1.358 1.231-2.394 1.214-2.32 2.025-4.204 1.956-4.548-.028-.143.091-.828.266-1.523.34-1.353.395-2.368.256-4.756-.099-1.704-.239-2.171-1.563-5.185-.613-1.393-.874-2.248-.743-2.43.111-.151.62-.296 1.13-.32 1.824-.084 4.318-.664 5.037-1.172.904-.637 2.017-1.957 2.033-2.408.01-.26-.299-.464-1.252-.833z"/></g><g><path fill="#121a24" d="M208.305 67.408c-.714-.07-1.115.02-1.446.33-.949.886-1.035 2.224-.2 3.128.7.759 1.674.696 2.598-.167.916-.855 1.023-1.163.703-2.026-.387-1.043-.53-1.153-1.655-1.265z"/></g><g><path fill="#121a24" d="M200.152 84.412c-.512 0-1.02.081-1.13.184-.404.375-.822 1.93-.627 2.338.3.631 1.38 1.35 2.107 1.402 1.304.092 2.503-1.332 2.172-2.576-.19-.715-1.371-1.346-2.522-1.348z"/></g><g><path fill="#121a24" d="M126.077 170.809c4.792 9.495 7.836 19.806 9.422 30.303.29 1.968-2.656 2.475-3.007.482-1.26-9.311-3.562-18.356-7.319-26.88-.316-.645-.566-1.119-.656-1.213-.145-.166-.384-.673-.518-1.14a10.162 10.162 0 0 0-.257-.713c-.057-.116-.106-.235-.164-.351a2.213 2.213 0 0 1-.214-.561 29.224 29.224 0 0 0-.38-.842c-.675-1.41-1.266-2.955-2.5-6.595-.6-1.783-1.058-2.985-1.172-3.11-.114-.124-1.928-5.567-2.934-8.802-.228-.757-.425-1.39-.59-1.938 0-.003-.003-.003-.003-.005-.355-.609-.716-1.183-.902-1.421-.247-.32-.61-.884-.809-1.254-.566-1.057-1.644-2.421-2.897-3.663-.635-.63-1.342-1.393-1.572-1.694-.229-.303-.886-.958-1.458-1.456-2.27-1.971-4.004-3.418-5.267-4.396a91.958 91.958 0 0 1-1.91-1.514c-.743-.619-1.904-1.177-2.006-.965-.087.184.942 1.248 2.277 2.354.491.407 1.53 1.347 2.31 2.09.78.741 1.737 1.618 2.13 1.947.951.799 3.79 3.955 4.723 5.257 2.156 3.001 3.87 5.903 3.902 6.611.02.399-.02.412-.349.115-.423-.381-.585-.587-2.379-3.009-2.586-3.493-5.652-5.903-11.784-9.259-7.372-4.035-7.685-4.193-7.72-3.906-.04.323 1.6 1.825 3.044 2.787.567.378 1.734 1.246 2.592 1.928 3.726 2.962 4.418 3.493 5.475 4.198.614.41 1.575 1.068 2.134 1.463l2.015 1.421c1.087.764 2.88 2.804 2.735 3.11-.057.12-.463-.033-1.104-.417-.557-.335-1.92-1.147-3.029-1.804s-2.069-1.279-2.135-1.38c-.49-.761-9.992-5.58-10.588-5.371-.45.158.154.722 2.241 2.093 4.691 3.081 6.494 4.124 10.34 5.985 4.097 1.983 5.111 2.578 4.901 2.874-.24.338-5.239-.864-5.726-1.378-.283-.296-5.206-2.193-6.354-2.447-.92-.203-5.929-2.188-10.392-4.118-5.717-2.473-4.482-1.23 2.986 3.003 2.37 1.342 3.04 1.646 4.468 2.033.662.179 2.33.742 3.706 1.252 2.84 1.052 3.394 1.232 4.414 1.432 1.635.319 10.648 4.321 10.656 4.73.002.126-.255.132-.572.014-1.49-.558-4.457-1.317-5.349-1.37-.546-.031-1.477-.215-2.07-.407-.594-.194-1.338-.344-1.652-.337-.316.007-.975-.105-1.467-.25-.49-.145-1.596-.393-2.455-.551-2.382-.438-5.588-1.14-6.392-1.399a62.724 62.724 0 0 0-2.5-.694c-.98-.254-2.247-.661-2.816-.904a178.63 178.63 0 0 0-4.002-1.584c-3.05-1.173-5.245-2.293-7.015-3.578a36.715 36.715 0 0 0-1.467-1.024c-.462-.29-1.35-1.083-2.045-1.825a118.794 118.794 0 0 0-1.837-1.851c-1.8-1.785-3.1-3.288-3.137-3.626-.015-.139-.326-.737-.69-1.327-.71-1.149-1.058-2.07-1.629-4.315-.407-1.603-.414-2.074-.073-5.243.158-1.466.15-2.33-.025-2.459-.148-.109-.659-.093-1.137.034-1.709.456-4.18.65-4.993.392-1.02-.324-2.434-1.216-2.58-1.628-.085-.237.14-.516.911-1.135 1.173-.941 1.877-1.179 3.676-1.243.704-.025 1.441-.12 1.636-.21.196-.091.622-.144.948-.117.326.027 1.423.123 2.438.213 1.758.159 2.91.196 8.587.278 1.361.02 3.404.223 4.541.451 3.52.707 6.903 1.566 7.88 2.002.513.229 1.21.476 1.55.551.337.074.65.175.693.228.043.052 1.231.706 2.64 1.454 1.41.747 3.002 1.671 3.541 2.053.54.383 1.984 1.368 3.212 2.19 3.05 2.044 4.371 3.098 6.402 5.103a59.15 59.15 0 0 0 2.193 2.054c1.093.953 2.36 2.312 2.623 2.814.098.188.457.61.798.941.332.321.717.834 1.123 1.459v-.011c-.104-.664-.322-1.628-.56-2.51-.342-1.274-.653-2.736-.705-3.245-.114-1.202-.705-3.214-1.047-3.598-.27-.279-.737-1.357-1.618-3.742-.829-2.239-3.038-6.843-3.97-8.284-.509-.788-1.317-1.846-1.784-2.354-.725-.777-.933-1.213-1.45-2.975-.707-2.468-.717-2.655-.292-4.572.394-1.742.591-1.856 2.074-1.182.86.393 1.078.591 1.648 1.482.892 1.41 2.167 4.407 2.344 5.527.072.518.227 1.026.331 1.14.104.114.24.87.291 1.679.052.81.228 1.919.383 2.468.166.539.363 1.504.446 2.146.207 1.566.944 3.733 1.203 3.504.104-.103.135-.663.051-1.233a45.373 45.373 0 0 1-.196-2.291c-.042-.674-.125-1.442-.198-1.711-.124-.456-.373-3.318-.32-3.692.01-.083-.032-1.212-.104-2.498-.343-6.22.331-12.949 1.565-15.769 2.51-5.734 2.747-6.78 1.431-6.429-.29.073-1.275.197-2.198.27-1.369.104-1.99.01-3.297-.497-2.706-1.058-3.608-1.846-5.143-4.532-.456-.788-.829-1.254-1.088-1.347-.539-.176-1.514-1.254-1.732-1.918-.103-.311-.093-.954.031-1.442.685-2.882 1.286-4.624 1.887-5.432.363-.488.685-1.006.726-1.141.135-.508 2.872-3.307 4.334-4.427 1.7-1.306 3.276-2.032 6.78-3.11 2.24-.694 2.561-.715 6.605-.58 2.343.083 4.323.227 4.406.31.29.312-.404.695-1.16.633-1.1-.083-3.64.436-6.18 1.254-2.292.736-3.494 1.338-4.428 2.209-.538.508-.528.508.892.135.788-.208 2.053-.415 2.79-.456.746-.042 1.544-.156 1.782-.249.591-.238 3.173-.321 6.138-.187 3.442.156 5.132.778 3.163 1.161-.903.176-4.832 1.358-6.159 1.856-.912.332-3.286 1.918-3.286 2.187-.02.373 3.317-.155 6.801-1.078 1.648-.445 4.188-1.814 4.49-2.426.258-.529-.01-1.295-.882-2.499-.737-1.015-1.317-2.167-1.244-2.467.103-.435-.56-3.028-.86-3.349-.219-.227-.602-.269-1.204-.124-.487.114-1.72.28-2.747.362-1.15.083-3.463.602-5.982 1.338-7.994 2.322-9.332 2.52-12.98 1.877-1.017-.177-2.033-.301-2.26-.291-.54.031-2.448-1.005-4.138-2.249-1.586-1.162-1.866-1.69-2.167-4.075a67.883 67.883 0 0 0-.414-2.903c-.208-1.182-.177-1.306.684-2.747 1.026-1.711 2.156-2.997 3.224-3.681.57-.373 1.317-.643 2.323-.829.995-.166 2.25-.249 3.836-.26 4.396-.02 8.43 1.141 13.281 3.806 1.617.891 4.676 3.411 5.9 4.862.26.311.735.736 1.067.954.508.321.55.414.301.643-.664.601-1.618.362-2.934-.726-1.887-1.556-3.774-2.571-6.034-3.245-1.732-.519-4.998-.871-5.008-.539 0 .279 2.094 1.389 3.784 2.021.715.27 1.358.56 1.441.643.073.072.602.321 1.182.529.581.218 1.327.58 1.66.809.321.238 1.43.715 2.456 1.067 1.016.364 1.804.705 1.732.768-.28.259-2.934.321-4.137.093-.695-.135-1.327-.187-1.4-.124-.072.072-1.182-.032-2.467-.218-2.8-.415-6.148-.498-6.335-.155-.249.445.342.953 1.794 1.513 1.752.695 3.058.757 6.822.353 3.307-.364 6.925-.415 7.807-.115.321.104.673.124.767.032.197-.187.114-1.244-.187-2.323-.145-.508-.083-.902.197-1.306.218-.321.467-.912.55-1.327.27-1.265.653-2.167 1.513-3.474.861-1.316 1.244-1.638 4.572-3.805 1.566-1.015 4.397-1.814 6.512-1.835 1.658-.02 5.007.664 6.894 1.39.498.196 1.317.694 1.804 1.099.81.673.861.767.591 1.026-.342.312-1.068.28-2.612-.124-.58-.146-1.058-.197-1.058-.104 0 .249 2.333 1.441 3.618 1.856.674.207 1.296.269 1.493.135 1.742-1.213 2.572-1.566 3.536-1.503.56.03 1.431.082 1.928.113.778.052.913.114.871.456-.03.208.114.664.332.996.477.746.664 2.114.394 2.965-.104.353-.093.788.021.975.404.642.57 2.364.466 4.831-.052 1.369-.197 2.561-.3 2.665-.115.103-.249.549-.3.984-.053.436-.29 1.203-.53 1.7-.249.489-.477 1.286-.508 1.753-.072.788-.156.912-1.192 1.752-.612.488-1.586 1.431-2.167 2.084l-1.047 1.193.642.694c.363.384 1.286 1.1 2.064 1.597 2.146 1.379 5.598 4.375 6.915 6.003 5.993 7.433 6.926 10.834 4.614 16.692-.56 1.41-.778 1.731-1.514 2.302-.757.59-1.016.653-2.01.559-3.433-.352-3.848-.591-5.02-2.841-.404-.788-.746-1.576-.756-1.741-.01-.177-.228-.705-.488-1.182-.259-.477-.477-1.11-.487-1.42a4.665 4.665 0 0 0-.207-1.11 13.217 13.217 0 0 1-.27-1.047c-.57-2.975-.777-4.127-.964-5.308-.425-2.644-1.109-4.334-3.307-8.181-.799-1.399-1.452-2.664-1.452-2.799-.01-.59 1.65.798 3.287 2.738 2.478 2.944 3.07 4.011 5.547 10.036.445 1.078.954 1.13.943.093-.01-2.468-.954-5.599-2.447-8.108-.715-1.192-3.95-4.448-5.329-5.36-.974-.654-2.042-.778-2.322-.28-.125.228-.943.487-2.333.726-1.182.207-2.146.456-2.146.549 0 .094.943 1.203 2.104 2.457 1.328 1.452 2.437 2.831 3.007 3.764a111.46 111.46 0 0 0 1.721 2.716c.985 1.514 1.4 2.747 1.701 5.08.53 4.106-.218 9.093-1.753 11.748-1.358 2.353-2.56 3.607-4.28 4.447-1.67.83-3.236.923-3.889.238-.322-.342-.706-.404-1.732-.31-1.192.114-1.379.062-1.887-.488a4.564 4.564 0 0 1-.829-1.306c-.643-1.752-.02-7.61 1.068-10.026.352-.799.736-2.021.84-2.726.103-.696.3-1.359.425-1.483.404-.374 1.524-4.178 1.66-5.63.092-.996-.033-1.887-.448-3.193-.32-.995-.673-1.908-.777-2.022-.103-.124-.3-.695-.456-1.265l-.27-1.047.85 1.089c.457.6 1.037 1.42 1.286 1.835.24.404.632.943.871 1.202l.435.457-.166-.644c-.093-.352-.456-1.244-.819-1.969-1.036-2.116-.819-2.177.768-.218 1.607 1.96 2.581 3.888 3.701 7.31.384 1.181.798 2.135.912 2.104.218-.041.208-2.551-.01-2.789-.073-.083-.176-.549-.228-1.047-.104-1.037-.964-2.944-2.022-4.448a88.315 88.315 0 0 1-1.514-2.26c-.974-1.534-1.493-1.794-3.286-1.648-1.037.083-1.555-.011-2.312-.425-1.306-.736-1.99-.892-2.354-.55-.259.238-.404.176-.89-.342-.696-.747-1.37-1.016-1.722-.695-.135.135-.229.736-.197 1.358.052 1.276-.643 3.349-2.084 6.201-.985 1.958-2.416 4.655-2.706 5.111-.114.186-.073.259.145.269.477.021 2.8-1.96 3.63-3.089.86-1.162 1.067-1.97 1.253-4.759.073-1.141.197-2.136.28-2.208.322-.301.767 2.197.82 4.676.092 3.638.144 4.24.362 4.24.301 0 .715-1.213 1.026-2.965.24-1.338.208-2.427-.155-5.942-.083-.88.342-.673.726.353.642 1.7.777 2.239.871 3.598.051.747.145 1.721.207 2.157.332 2.332.384 3.888.186 5.464-.33 2.581-.725 4.385-1.016 4.665-.144.135-.259.373-.269.528 0 .166-.352.965-.778 1.784-1.016 1.959-4.105 5.163-5.66 5.868-.529.239-1.12.57-1.296.747-.57.529-4.313 1.545-5.837 1.586-2.147.051-2.364.145-2.613 1.068a7.79 7.79 0 0 0-.218 1.534c0 .415-.197 1.327-.435 2.032-.239.695-.55 2.157-.706 3.235-.145 1.079-.32 2.022-.383 2.084-.27.249-.923 5.547-.923 7.413.011 2.395-.083 4.562-.415 10.451-.134 2.509-.176 5.08-.083 5.713.083.632.166 1.689.177 2.353.01.663.124 1.317.26 1.451.123.135.27.55.32.934.052.373.197.881.322 1.14.218.456.228.456.466-.239.135-.373.197-.746.125-.819-.415-.445 1.254-6.127 2.25-7.641.736-1.109.798-1.472.362-1.938-.186-.197-.518-.902-.736-1.565-.217-.664-.487-1.297-.59-1.411-.446-.466-.467-2.218-.063-3.826.778-3.048 1.431-4.022 4.884-7.247 3.265-3.069 5.173-4.312 10.263-6.708 1.462-.694 8.906-2.975 12.318-3.784 2.457-.581 2.882-.643 6.74-.954 1.253-.093 2.394-.279 2.518-.394.135-.125.664-.363 1.172-.529.943-.321 1.524-.093 1.244.467-.197.415-3.256 1.327-5.319 1.597-2.519.332-8.958 2.322-9.673 2.986-.467.435.176.891.788.559.28-.166 1.431-.642 2.551-1.057 3.576-1.337 5.93-1.856 5.91-1.307-.01.332-3.36 2.551-5.36 3.557-2.209 1.119-3.796 2.25-6.658 4.748-1.575 1.369-2.56 2.375-3.193 3.235-2.353 3.235-3.348 4.303-7.848 8.471-4.51 4.178-4.54 4.198-5.64 4.51-.944.258-1.193.424-1.742 1.14-.819 1.047-2.01 3.981-2.519 6.2-1.089 4.717-1.203 7.248-.457 9.735.291.985.705 2.8.913 4.033.518 2.976 1.804 7.393 2.312 7.952.19.205.873 1.58 1.41 2.784.101.166.2.35.295.558zM154.822 63.55c-.29 2.904-.819 4.687-2.125 7.217-.508.984-.882 1.887-.819 2.011.155.343 1.202-.394 2.612-1.824 1.701-1.732 2.188-3.101 2.323-6.533.062-1.441.176-2.684.26-2.767.082-.074.04-.198-.095-.27-.134-.073-.59.104-1.015.404-.425.3-.83.591-.902.632-.073.042-.187.56-.239 1.13zm-2-.912c-.374-.02-1.224.943-1.836 2.074-.342.612-.995 1.69-1.452 2.384-2.063 3.121-2.312 3.775-1.285 3.349 2.094-.861 4.614-4.178 5.111-6.718.104-.57-.134-1.078-.539-1.089zm-2.779-2.001l-.799.954a76.873 76.873 0 0 0-1.814 2.28c-1.607 2.116-1.42 2.199.985.416 2.24-1.638 2.664-2.291 2.053-3.09zm-5.63.456c-1.918 1.794-2.737 2.645-2.57 2.696.444.124 4.218-1.4 5.131-2.063 2.426-1.783 2.685-2.043 2.923-2.913.125-.467.156-.893.063-.934-.094-.051-.737.063-1.44.249l-1.277.332zM120.91 83.021c-1.68 1.245-2.167 1.69-2.012 1.856.198.207.654.063 3.101-1.005 1.928-.84 2.311-1.089 3.618-2.312a17 17 0 0 0 2.53-3.018c2.198-3.359 1.804-3.255-2.696.664-1.887 1.649-3.93 3.359-4.54 3.815zm-6.843 25.288c-.414 2.519-.487 14.027-.114 18.288.093 1.068.353 1.587.653 1.307.25-.239.456-1.359.944-5.204.632-5.03.726-5.599.881-5.745.073-.072.135-.393.135-.705-.02-.922.757-3.878 1.462-5.578.85-2.073.86-2.602.021-3.494-1.297-1.389-1.856-5.764-1.048-8.19.913-2.747 4.376-6.76 8.056-9.341 1.1-.768 2.976-2.24 4.18-3.256 2.56-2.187 3.461-3.411 4.115-5.63.217-.757.456-1.431.54-1.493.3-.29-.167-1.161-1.09-2.021-.965-.913-2.084-1.39-2.437-1.038-.103.094-.414.954-.684 1.918-1.099 3.837-3.276 7.559-5.785 9.871-1.44 1.337-1.98 1.732-4.064 2.997-1.182.725-2.52 1.897-3.173 2.789-.695.943-1.565 4.116-1.7 6.21-.073.954-.228 2.032-.353 2.405-.134.373-.217.871-.176 1.12.031.238-.073.705-.218 1.036-.155.332-.217 1.141-.145 1.783.073.654.062 1.535 0 1.971z"/></g></g></svg>