<svg xmlns="http://www.w3.org/2000/svg" width="109" height="91" viewBox="0 0 109 91"><g><g><path fill="#121a24" d="M63.055 61.722c-4.925 1.973-9.828 4.002-14.742 6.004-.346.142-.697.272-1.107.431-.047-.31-.083-.512-.107-.715-.549-4.636-3.575-7.367-8.216-7.378-5.524-.013-11.049.025-16.574-.013-3.743-.026-6.882 1.272-9.45 3.992-1.01 1.067-2.174 2.005-3.073 3.154-1.519 1.941-3.414 2.383-5.683 1.838-.169-.04-.344-.06-.515-.094-1.36-.265-2.408.126-3.024 1.432v1.26c.508.725 1.072 1.353 2.044 1.445.938.09 1.87.268 2.81.336 2.457.18 4.621-.46 6.37-2.305 1.443-1.522 2.94-2.993 4.42-4.48 1.44-1.447 3.17-2.325 5.222-2.339 5.98-.04 11.96-.049 17.938.01.742.008 1.58.358 2.2.794 1.247.88 1.636 2.53 1.124 3.953-.496 1.38-1.843 2.337-3.409 2.343-4.3.017-8.602-.02-12.903.035-.643.008-1.39.257-1.894.647-.676.525-.799 1.367-.439 2.2.413.951 1.192 1.321 2.184 1.321 4.441.001 8.883.051 13.322-.04 1.08-.022 2.19-.409 3.214-.81 1.62-.638 3.155-1.48 4.763-2.146a2831.044 2831.044 0 0 1 16.964-6.935c2.573-1.045 5.095.172 5.675 2.702.453 1.972-.602 3.785-2.766 4.702-8.55 3.622-17.108 7.224-25.652 10.86-3.622 1.541-7.376 2.288-11.316 2.272-8.95-.037-17.903.005-26.855-.03-1.286-.005-2.317.292-3.016 1.418v1.26c.52 1.17 1.423 1.56 2.687 1.556 9.197-.032 18.393-.026 27.59-.014 3.636.005 7.19-.515 10.572-1.843 3.8-1.493 7.544-3.129 11.307-4.717 5.596-2.362 11.201-4.702 16.774-7.116 3.571-1.546 5.531-5.243 4.83-8.856-1.034-5.326-6.206-8.162-11.269-6.134z"/></g><g><path fill="#121a24" d="M104.976 36.97c1.385-.356 2.489.017 2.927 1.213.41 1.124-.112 2.324-1.445 2.708-1.595.46-3.254.886-4.9.942-3.912.135-7.834.044-11.752.044H88.55c0 3.513.003 6.834-.001 10.156-.003 2.012-.697 2.712-2.715 2.713-20.43.003-40.86.003-61.29 0-2.042 0-2.758-.733-2.76-2.794 0-10.67-.001-21.34.002-32.01 0-2.017.694-2.713 2.705-2.714 5.904-.004 35.016-.003 40.986.003.41-.006.822-.015 1.233-.034.606-.028 1.31-.255 1.775-.632C73.91 12.15 79.294 7.682 84.7 3.245c3.513-2.883 8.023-3.248 11.937-.992 3.33 1.92 6.657 3.846 9.984 5.77 1.34.776 1.766 1.912 1.138 3.031-.624 1.111-1.85 1.352-3.185.591-3.247-1.853-6.488-3.719-9.73-5.582-2.722-1.564-5.267-1.383-7.675.591-4.057 3.325-8.102 6.666-12.152 10.001-.131.108-.254.227-.64.571h1.328c5.247.002 10.495-.028 15.742.017 3.568.03 6.393 2.524 6.993 6.043.676 3.968-2.282 7.983-6.307 8.252-3.17.212-6.362.092-9.544.12-.77.006-1.542-.025-2.308.023-1.621.103-2.832 1.288-2.89 2.778-.065 1.685 1.005 2.948 2.71 3.166.449.057.908.052 1.362.052 6.472.003 12.944.04 19.415-.029 1.37-.015 2.758-.337 4.097-.679zM88.61 27.563c1.318-.132 2.58-.132 3.778-.412 1.276-.299 2.063-1.689 1.95-3.009-.108-1.296-1.16-2.522-2.446-2.65-1.064-.107-2.147-.022-3.282-.022zM77.47 21.476c.599 3.728 3.813 6.475 6.817 5.843v-5.843zm-51.45 6.85c3.393-.64 6.832-4.145 6.775-6.82H26.02zm6.878 22.123c-.603-3.3-3.818-6.454-6.863-6.774v6.774zm40.38-.799c.726-3.26 2.495-5.887 5.289-8.006-3.03-.944-4.772-2.915-5.26-5.908-.496-3.046.768-5.366 3.213-7.202-1.714-1.945-2.855-4.138-3.38-6.655-.044-.209-.632-.43-.968-.435-2.786-.026-5.571-.02-8.356-.022-6.432.027-24.026 0-25.201.003h-1.313c-.563 2.904-1.79 5.412-3.858 7.467-2.043 2.03-4.508 3.264-7.392 3.796v6.53c.727.202 1.479.355 2.19.617 4.678 1.723 7.66 4.996 8.836 9.85.168.693.44.88 1.116.877 11.3-.018 22.599-.018 33.899 0 .7.001 1.016-.144 1.186-.912zm11.016-5.979c-3.114.398-6.314 3.592-6.815 6.811h6.815z"/></g><g><path fill="#121a24" d="M55.181 27.424c4.702.006 8.555 3.86 8.553 8.553 0 4.69-3.863 8.554-8.553 8.558-4.688.003-8.54-3.855-8.546-8.558-.005-4.699 3.853-8.56 8.546-8.553zm.031 12.912c2.368-.02 4.326-1.997 4.324-4.364 0-2.37-1.953-4.33-4.332-4.35-2.37-.019-4.34 1.923-4.37 4.308-.029 2.415 1.97 4.428 4.378 4.406z"/></g></g></svg>